SplineFontDB: 3.2
FontName: HeyComic
FullName: Hey Comic
FamilyName: Hey Comic
Weight: Book
Copyright: Copyright (c) 2019 by Khurasan. All rights reserved.
Version: 1.000
ItalicAngle: 0
UnderlinePosition: -100
UnderlineWidth: 50
Ascent: 800
Descent: 200
InvalidEm: 0
sfntRevision: 0x00010000
LayerCount: 2
Layer: 0 1 "Arri+AOgA-re" 1
Layer: 1 1 "Avant" 0
XUID: [1021 641 -346718529 20498]
StyleMap: 0x0040
FSType: 4
OS2Version: 3
OS2_WeightWidthSlopeOnly: 0
OS2_UseTypoMetrics: 0
CreationTime: 1568419993
ModificationTime: 1754313621
PfmFamily: 81
TTFWeight: 400
TTFWidth: 5
LineGap: 28
VLineGap: 0
Panose: 0 0 0 0 0 0 0 0 0 0
OS2TypoAscent: 749
OS2TypoAOffset: 0
OS2TypoDescent: -269
OS2TypoDOffset: 0
OS2TypoLinegap: 55
OS2WinAscent: 1002
OS2WinAOffset: 0
OS2WinDescent: 269
OS2WinDOffset: 0
HheadAscent: 1002
HheadAOffset: 0
HheadDescent: -269
HheadDOffset: 0
OS2SubXSize: 700
OS2SubYSize: 650
OS2SubXOff: 0
OS2SubYOff: 140
OS2SupXSize: 700
OS2SupYSize: 650
OS2SupXOff: 0
OS2SupYOff: 477
OS2StrikeYSize: 50
OS2StrikeYPos: 250
OS2CapHeight: 700
OS2XHeight: 500
OS2Vendor: 'PYRS'
OS2CodePages: 00000001.00000000
OS2UnicodeRanges: 00000007.00000000.00000000.00000000
Lookup: 258 0 0 "'kern' Cr+AOkA-nage horizontal dans Latin lookup 0" { "'kern' Cr+AOkA-nage horizontal dans Latin lookup 0 selon les donn+AOkA-es de glyphe 0"  "'kern' Cr+AOkA-nage horizontal dans Latin lookup 0 selon les donn+AOkA-es de glyphe 1"  } ['kern' ('latn' <'dflt' > ) ]
DEI: 91125
TtTable: prep
PUSHW_1
 0
CALL
SVTCA[y-axis]
PUSHW_3
 1
 4
 2
CALL
SVTCA[x-axis]
PUSHW_3
 5
 2
 2
CALL
SVTCA[x-axis]
PUSHW_8
 5
 38
 30
 25
 18
 11
 0
 8
CALL
PUSHW_8
 6
 36
 30
 25
 18
 9
 0
 8
CALL
SVTCA[y-axis]
PUSHW_8
 1
 39
 30
 25
 18
 11
 0
 8
CALL
PUSHW_8
 2
 43
 36
 25
 18
 11
 0
 8
CALL
PUSHW_8
 3
 36
 30
 25
 18
 9
 0
 8
CALL
PUSHW_8
 4
 26
 21
 16
 12
 9
 0
 8
CALL
SVTCA[y-axis]
PUSHW_3
 7
 4
 7
CALL
PUSHW_1
 0
DUP
RCVT
RDTG
ROUND[Black]
RTG
WCVTP
EndTTInstrs
TtTable: fpgm
PUSHW_1
 0
FDEF
MPPEM
PUSHW_1
 9
LT
IF
PUSHB_2
 1

StartChar: exclam
Encoding: 33 33 5
Width: 236
GlyphClass: 1
Flags: W
LayerCount: 2
Fore
SplineSet
38 214 m 0,0,1
 43 337 43 337 42.5 459 c 128,-1,2
 42 581 42 581 37 705 c 0,3,4
 38 714 38 714 44 723 c 0,5,6
 49 730 49 730 59 737 c 128,-1,7
 69 744 69 744 87 746 c 0,8,9
 104 749 104 749 122 750 c 128,-1,10
 140 751 140 751 156 748 c 128,-1,11
 172 745 172 745 183 736.5 c 128,-1,12
 194 728 194 728 198 711 c 0,13,14
 200 703 200 703 201 677 c 128,-1,15
 202 651 202 651 202 614 c 0,16,17
 202 508 202 508 196.5 408.5 c 128,-1,18
 191 309 191 309 179 212 c 0,19,20
 180 205 180 205 176 201 c 0,21,22
 173 196 173 196 166.5 193 c 128,-1,23
 160 190 160 190 146 190 c 256,24,25
 132 190 132 190 113.5 190.5 c 128,-1,26
 95 191 95 191 78.5 193.5 c 128,-1,27
 62 196 62 196 50 200.5 c 128,-1,28
 38 205 38 205 38 214 c 0,0,1
189 66 m 0,29,30
 189 37 189 37 165 16 c 128,-1,31
 141 -5 141 -5 106 -5 c 0,32,33
 72 -5 72 -5 48 16 c 128,-1,34
 24 37 24 37 24 66 c 0,35,36
 24 97 24 97 48 118 c 128,-1,37
 72 139 72 139 106 139 c 0,38,39
 141 139 141 139 165 118 c 128,-1,40
 189 97 189 97 189 66 c 0,29,30
EndSplineSet
Validated: 33
EndChar

StartChar: quotedbl
Encoding: 34 34 6
Width: 359
GlyphClass: 1
Flags: W
LayerCount: 2
Fore
SplineSet
201 716 m 2,0,1
 202 732 202 732 207.5 740.5 c 128,-1,2
 213 749 213 749 239 749 c 0,3,4
 251 749 251 749 267 749 c 128,-1,5
 283 749 283 749 296.5 746 c 128,-1,6
 310 743 310 743 317.5 734 c 128,-1,7
 325 725 325 725 320 706 c 0,8,9
 317 692 317 692 312 673.5 c 128,-1,10
 307 655 307 655 301.5 635 c 128,-1,11
 296 615 296 615 290 596 c 128,-1,12
 284 577 284 577 278 562 c 0,13,14
 273 551 273 551 267.5 540.5 c 128,-1,15
 262 530 262 530 245 530 c 0,16,17
 237 530 237 530 228.5 531 c 128,-1,18
 220 532 220 532 217 532 c 0,19,20
 205 533 205 533 197 539.5 c 128,-1,21
 189 546 189 546 191 572 c 2,22,-1
 201 716 l 2,0,1
38 716 m 2,23,24
 39 732 39 732 44.5 740.5 c 128,-1,25
 50 749 50 749 76 749 c 0,26,27
 88 749 88 749 104 749 c 128,-1,28
 120 749 120 749 133.5 746 c 128,-1,29
 147 743 147 743 154.5 734 c 128,-1,30
 162 725 162 725 157 706 c 0,31,32
 154 692 154 692 149 673.5 c 128,-1,33
 144 655 144 655 138.5 635 c 128,-1,34
 133 615 133 615 127 596 c 128,-1,35
 121 577 121 577 115 562 c 0,36,37
 110 551 110 551 104.5 540.5 c 128,-1,38
 99 530 99 530 82 530 c 0,39,40
 74 530 74 530 65.5 531 c 128,-1,41
 57 532 57 532 54 532 c 0,42,43
 42 533 42 533 34 539.5 c 128,-1,44
 26 546 26 546 28 572 c 2,45,-1
 38 716 l 2,23,24
EndSplineSet
Validated: 33
EndChar

StartChar: numbersign
Encoding: 35 35 7
Width: 739
GlyphClass: 1
Flags: W
LayerCount: 2
Fore
SplineSet
640 266 m 2,0,1
 650 264 650 264 659 260 c 0,2,3
 667 256 667 256 673 249 c 128,-1,4
 679 242 679 242 681 228 c 0,5,6
 682 215 682 215 682.5 201 c 128,-1,7
 683 187 683 187 679 175 c 128,-1,8
 675 163 675 163 664.5 154.5 c 128,-1,9
 654 146 654 146 635 144 c 0,10,11
 627 143 627 143 600.5 143.5 c 128,-1,12
 574 144 574 144 538 144 c 1,13,14
 529 111 529 111 520 78.5 c 128,-1,15
 511 46 511 46 502 13 c 0,16,17
 499 4 499 4 492 -1 c 0,18,19
 486 -6 486 -6 474.5 -9 c 128,-1,20
 463 -12 463 -12 446 -9 c 0,21,22
 429 -7 429 -7 410.5 -3 c 128,-1,23
 392 1 392 1 377.5 8 c 128,-1,24
 363 15 363 15 354.5 26 c 128,-1,25
 346 37 346 37 348 55 c 0,26,27
 349 63 349 63 354 87 c 128,-1,28
 359 111 359 111 370 144 c 1,29,-1
 331 144 l 2,30,31
 314 144 314 144 299 143.5 c 128,-1,32
 284 143 284 143 269 143 c 1,33,-1
 231 11 l 2,34,35
 227 2 227 2 219 -4 c 0,36,37
 212 -9 212 -9 201 -12 c 128,-1,38
 190 -15 190 -15 173 -11 c 0,39,40
 156 -8 156 -8 138 -3.5 c 128,-1,41
 120 1 120 1 105.5 8.5 c 128,-1,42
 91 16 91 16 82.5 28 c 128,-1,43
 74 40 74 40 76 57 c 0,44,45
 77 65 77 65 83 86 c 128,-1,46
 89 107 89 107 98 138 c 1,47,48
 90 137 90 137 83.5 136.5 c 128,-1,49
 77 136 77 136 72 136 c 0,50,51
 67 135 67 135 63 135 c 0,52,53
 55 134 55 134 49 136 c 0,54,55
 44 138 44 138 39.5 142.5 c 128,-1,56
 35 147 35 147 33 158 c 0,57,58
 32 168 32 168 30.5 181.5 c 128,-1,59
 29 195 29 195 29.5 207.5 c 128,-1,60
 30 220 30 220 34.5 229.5 c 128,-1,61
 39 239 39 239 50 240 c 0,62,63
 70 243 70 243 92 244.5 c 128,-1,64
 114 246 114 246 136 247 c 1,65,66
 141 261 141 261 146 276 c 128,-1,67
 151 291 151 291 156 306 c 1,68,69
 141 305 141 305 128.5 304.5 c 128,-1,70
 116 304 116 304 108 304 c 0,71,72
 98 303 98 303 91 303 c 0,73,74
 84 302 84 302 78 304 c 0,75,76
 73 306 73 306 68.5 310.5 c 128,-1,77
 64 315 64 315 63 326 c 0,78,79
 61 336 61 336 60 350 c 128,-1,80
 59 364 59 364 60 376.5 c 128,-1,81
 61 389 61 389 65.5 398.5 c 128,-1,82
 70 408 70 408 80 409 c 2,83,-1
 193 417 l 1,84,85
 203 444 203 444 211 467 c 128,-1,86
 219 490 219 490 225 507 c 0,87,88
 232 527 232 527 238 544 c 0,89,90
 239 550 239 550 244 554 c 0,91,92
 253 563 253 563 278 558 c 0,93,94
 291 554 291 554 308.5 549.5 c 128,-1,95
 326 545 326 545 341.5 539 c 128,-1,96
 357 533 357 533 367 525 c 128,-1,97
 377 517 377 517 375 508 c 2,98,-1
 352 427 l 1,99,-1
 471 434 l 1,100,101
 480 459 480 459 488 480 c 128,-1,102
 496 501 496 501 502 516 c 0,103,104
 509 534 509 534 515 547 c 0,105,106
 517 553 517 553 522 557 c 0,107,108
 527 560 527 560 534 562 c 128,-1,109
 541 564 541 564 555 560 c 0,110,111
 568 555 568 555 585.5 549.5 c 128,-1,112
 603 544 603 544 618 537 c 128,-1,113
 633 530 633 530 643 522 c 128,-1,114
 653 514 653 514 650 505 c 2,115,-1
 629 445 l 1,116,-1
 646 446 l 2,117,118
 655 446 655 446 664 442 c 0,119,120
 671 439 671 439 678 432 c 128,-1,121
 685 425 685 425 687 412 c 256,122,123
 689 399 689 399 690.5 385 c 128,-1,124
 692 371 692 371 689.5 359 c 128,-1,125
 687 347 687 347 678 338 c 128,-1,126
 669 329 669 329 650 326 c 0,127,128
 637 323 637 323 589 320 c 1,129,130
 585 306 585 306 581 293 c 128,-1,131
 577 280 577 280 573 266 c 1,132,-1
 640 266 l 2,0,1
303 259 m 1,133,134
 329 260 329 260 355.5 261 c 128,-1,135
 382 262 382 262 408 263 c 1,136,137
 413 275 413 275 417 287.5 c 128,-1,138
 421 300 421 300 426 313 c 1,139,140
 400 312 400 312 372 311.5 c 128,-1,141
 344 311 344 311 318 310 c 1,142,-1
 303 259 l 1,133,134
EndSplineSet
Validated: 33
EndChar

StartChar: dollar
Encoding: 36 36 8
Width: 486
GlyphClass: 1
Flags: W
LayerCount: 2
Fore
SplineSet
325 401 m 0,0,1
 325 426 325 426 312.5 441.5 c 128,-1,2
 300 457 300 457 282.5 464.5 c 128,-1,3
 265 472 265 472 245.5 472.5 c 128,-1,4
 226 473 226 473 213 468 c 0,5,6
 196 462 196 462 191 453 c 128,-1,7
 186 444 186 444 189 434.5 c 128,-1,8
 192 425 192 425 200 416.5 c 128,-1,9
 208 408 208 408 218 403 c 0,10,11
 230 397 230 397 245 390.5 c 128,-1,12
 260 384 260 384 274 379 c 128,-1,13
 288 374 288 374 299 369.5 c 128,-1,14
 310 365 310 365 316 362 c 0,15,16
 356 344 356 344 386.5 316.5 c 128,-1,17
 417 289 417 289 434 253 c 0,18,19
 450 218 450 218 450.5 184 c 128,-1,20
 451 150 451 150 439.5 119.5 c 128,-1,21
 428 89 428 89 406 63.5 c 128,-1,22
 384 38 384 38 356 20 c 0,23,24
 335 6 335 6 313 -1.5 c 128,-1,25
 291 -9 291 -9 268 -12 c 1,26,-1
 262 -89 l 2,27,28
 261 -92 261 -92 258 -94 c 256,29,30
 255 -96 255 -96 250 -97 c 128,-1,31
 245 -98 245 -98 236 -98 c 0,32,33
 219 -97 219 -97 201 -95 c 128,-1,34
 183 -93 183 -93 180 -83 c 0,35,36
 179 -78 179 -78 182 -55.5 c 128,-1,37
 185 -33 185 -33 189 -8 c 1,38,39
 157 0 157 0 127 16 c 128,-1,40
 97 32 97 32 73 57 c 0,41,42
 55 75 55 75 44.5 97.5 c 128,-1,43
 34 120 34 120 32 143.5 c 128,-1,44
 30 167 30 167 36 190 c 128,-1,45
 42 213 42 213 59 231 c 0,46,47
 62 236 62 236 67 239 c 0,48,49
 81 251 81 251 96.5 248 c 128,-1,50
 112 245 112 245 119 223 c 0,51,52
 134 181 134 181 164.5 154 c 128,-1,53
 195 127 195 127 238 125 c 0,54,55
 252 124 252 124 265 128.5 c 128,-1,56
 278 133 278 133 287 141.5 c 128,-1,57
 296 150 296 150 299.5 163 c 128,-1,58
 303 176 303 176 297 193 c 0,59,60
 291 211 291 211 270.5 224 c 128,-1,61
 250 237 250 237 225 246.5 c 128,-1,62
 200 256 200 256 175 264 c 128,-1,63
 150 272 150 272 135 279 c 0,64,65
 97 297 97 297 67.5 323.5 c 128,-1,66
 38 350 38 350 30 394 c 0,67,68
 24 429 24 429 34.5 464.5 c 128,-1,69
 45 500 45 500 70 526 c 0,70,71
 98 555 98 555 135.5 569 c 128,-1,72
 173 583 173 583 208 588 c 1,73,-1
 205 673 l 2,74,75
 205 675 205 675 208 678 c 0,76,77
 213 683 213 683 229 686 c 0,78,79
 246 688 246 688 264 688.5 c 128,-1,80
 282 689 282 689 286 678 c 0,81,82
 287 675 287 675 287 667 c 128,-1,83
 287 659 287 659 287 647 c 128,-1,84
 287 635 287 635 286.5 620.5 c 128,-1,85
 286 606 286 606 285 592 c 2,86,-1
 285 588 l 1,87,88
 317 584 317 584 346 572 c 128,-1,89
 375 560 375 560 396.5 541 c 128,-1,90
 418 522 418 522 430.5 496.5 c 128,-1,91
 443 471 443 471 442 439 c 0,92,93
 442 425 442 425 434 413.5 c 128,-1,94
 426 402 426 402 413 393.5 c 128,-1,95
 400 385 400 385 384 381 c 128,-1,96
 368 377 368 377 350 377 c 0,97,98
 339 377 339 377 332 382 c 128,-1,99
 325 387 325 387 325 401 c 0,0,1
EndSplineSet
Validated: 33
EndChar

StartChar: percent
Encoding: 37 37 9
Width: 597
GlyphClass: 1
Flags: W
LayerCount: 2
Fore
SplineSet
503 662 m 0,0,1
 418 507 418 507 341.5 349.5 c 128,-1,2
 265 192 265 192 197 29 c 0,3,4
 196 26 196 26 193 22 c 0,5,6
 188 16 188 16 181 10 c 0,7,8
 173 3 173 3 161 -0.5 c 128,-1,9
 149 -4 149 -4 132 0 c 0,10,11
 115 5 115 5 97.5 11.5 c 128,-1,12
 80 18 80 18 67 28.5 c 128,-1,13
 54 39 54 39 48.5 54.5 c 128,-1,14
 43 70 43 70 49 94 c 0,15,16
 53 106 53 106 67 140 c 128,-1,17
 81 174 81 174 104 222 c 0,18,19
 126 269 126 269 154 325 c 128,-1,20
 182 381 182 381 212 438 c 0,21,22
 235 482 235 482 255.5 518.5 c 128,-1,23
 276 555 276 555 295.5 589 c 128,-1,24
 315 623 315 623 334.5 656 c 128,-1,25
 354 689 354 689 376 727 c 0,26,27
 381 736 381 736 387 740 c 0,28,29
 392 744 392 744 400.5 745 c 128,-1,30
 409 746 409 746 422 740 c 0,31,32
 434 734 434 734 450.5 725.5 c 128,-1,33
 467 717 467 717 480.5 706.5 c 128,-1,34
 494 696 494 696 501.5 685 c 128,-1,35
 509 674 509 674 503 662 c 0,0,1
144 747 m 256,36,37
 166 747 166 747 185.5 738.5 c 128,-1,38
 205 730 205 730 220 715.5 c 128,-1,39
 235 701 235 701 243.5 681 c 128,-1,40
 252 661 252 661 252 639 c 256,41,42
 252 617 252 617 243.5 597.5 c 128,-1,43
 235 578 235 578 220 563.5 c 128,-1,44
 205 549 205 549 185.5 540.5 c 128,-1,45
 166 532 166 532 144 532 c 256,46,47
 122 532 122 532 102.5 540.5 c 128,-1,48
 83 549 83 549 68.5 563.5 c 128,-1,49
 54 578 54 578 45.5 597.5 c 128,-1,50
 37 617 37 617 37 639 c 256,51,52
 37 661 37 661 45.5 681 c 128,-1,53
 54 701 54 701 68.5 715.5 c 128,-1,54
 83 730 83 730 102.5 738.5 c 128,-1,55
 122 747 122 747 144 747 c 256,36,37
165 639 m 0,56,57
 165 649 165 649 159 654.5 c 128,-1,58
 153 660 153 660 144 660 c 0,59,60
 124 660 124 660 124 639 c 0,61,62
 124 620 124 620 144 620 c 0,63,64
 153 620 153 620 159 625.5 c 128,-1,65
 165 631 165 631 165 639 c 0,56,57
452 214 m 256,66,67
 474 214 474 214 494 205.5 c 128,-1,68
 514 197 514 197 528.5 182.5 c 128,-1,69
 543 168 543 168 551.5 148 c 128,-1,70
 560 128 560 128 560 106 c 256,71,72
 560 84 560 84 551.5 64.5 c 128,-1,73
 543 45 543 45 528.5 30 c 128,-1,74
 514 15 514 15 494 6.5 c 128,-1,75
 474 -2 474 -2 452 -2 c 256,76,77
 430 -2 430 -2 410.5 6.5 c 128,-1,78
 391 15 391 15 376 30 c 128,-1,79
 361 45 361 45 352.5 64.5 c 128,-1,80
 344 84 344 84 344 106 c 256,81,82
 344 128 344 128 352.5 148 c 128,-1,83
 361 168 361 168 376 182.5 c 128,-1,84
 391 197 391 197 410.5 205.5 c 128,-1,85
 430 214 430 214 452 214 c 256,66,67
473 106 m 0,86,87
 473 115 473 115 467 121 c 128,-1,88
 461 127 461 127 452 127 c 0,89,90
 444 127 444 127 437.5 121 c 128,-1,91
 431 115 431 115 431 106 c 0,92,93
 431 98 431 98 437.5 91.5 c 128,-1,94
 444 85 444 85 452 85 c 0,95,96
 461 85 461 85 467 91.5 c 128,-1,97
 473 98 473 98 473 106 c 0,86,87
EndSplineSet
Validated: 33
EndChar

StartChar: ampersand
Encoding: 38 38 10
Width: 662
GlyphClass: 1
Flags: W
LayerCount: 2
Fore
SplineSet
598 427 m 0,0,1
 605 427 605 427 609 421.5 c 128,-1,2
 613 416 613 416 615.5 408.5 c 128,-1,3
 618 401 618 401 618 393.5 c 128,-1,4
 618 386 618 386 618 381 c 0,5,6
 617 365 617 365 615.5 348.5 c 128,-1,7
 614 332 614 332 610.5 317.5 c 128,-1,8
 607 303 607 303 601.5 293.5 c 128,-1,9
 596 284 596 284 587 282 c 2,10,-1
 578 282 l 1,11,12
 594 230 594 230 582.5 178.5 c 128,-1,13
 571 127 571 127 537.5 86.5 c 128,-1,14
 504 46 504 46 451.5 20.5 c 128,-1,15
 399 -5 399 -5 332 -6 c 0,16,17
 280 -7 280 -7 229.5 8.5 c 128,-1,18
 179 24 179 24 137.5 54 c 128,-1,19
 96 84 96 84 68.5 127.5 c 128,-1,20
 41 171 41 171 35 227 c 0,21,22
 31 271 31 271 43 314.5 c 128,-1,23
 55 358 55 358 79 397 c 128,-1,24
 103 436 103 436 138 468 c 128,-1,25
 173 500 173 500 215 521 c 1,26,27
 212 537 212 537 197.5 553.5 c 128,-1,28
 183 570 183 570 166 585.5 c 128,-1,29
 149 601 149 601 135.5 615.5 c 128,-1,30
 122 630 122 630 121 644 c 0,31,32
 120 656 120 656 119.5 673.5 c 128,-1,33
 119 691 119 691 120 707 c 128,-1,34
 121 723 121 723 124 734 c 128,-1,35
 127 745 127 745 133 743 c 0,36,37
 343 751 343 751 554 749 c 0,38,39
 562 747 562 747 568 742 c 0,40,41
 573 737 573 737 577.5 728.5 c 128,-1,42
 582 720 582 720 583 705 c 0,43,44
 584 689 584 689 584.5 672 c 128,-1,45
 585 655 585 655 582 640.5 c 128,-1,46
 579 626 579 626 572 615.5 c 128,-1,47
 565 605 565 605 551 603 c 0,48,49
 544 602 544 602 523 602 c 128,-1,50
 502 602 502 602 472 603 c 128,-1,51
 442 604 442 604 406 605 c 128,-1,52
 370 606 370 606 333 608 c 2,53,-1
 332 608 l 1,54,55
 351 590 351 590 370.5 571.5 c 128,-1,56
 390 553 390 553 410 536 c 1,57,-1
 411 534 l 2,58,59
 413 530 413 530 413 526 c 0,60,61
 413 523 413 523 411.5 514.5 c 128,-1,62
 410 506 410 506 408.5 495.5 c 128,-1,63
 407 485 407 485 404.5 474.5 c 128,-1,64
 402 464 402 464 400 455 c 0,65,66
 397 446 397 446 394 442.5 c 128,-1,67
 391 439 391 439 386 438 c 128,-1,68
 381 437 381 437 374.5 438 c 128,-1,69
 368 439 368 439 359 438 c 0,70,71
 336 436 336 436 312 428 c 128,-1,72
 288 420 288 420 270 409 c 0,73,74
 219 378 219 378 195.5 330.5 c 128,-1,75
 172 283 172 283 177.5 238.5 c 128,-1,76
 183 194 183 194 219.5 164.5 c 128,-1,77
 256 135 256 135 325 140 c 0,78,79
 358 143 358 143 386 159 c 128,-1,80
 414 175 414 175 427 204 c 0,81,82
 435 221 435 221 432.5 240 c 128,-1,83
 430 259 430 259 414 278 c 1,84,-1
 414 279 l 1,85,86
 388 275 388 275 360.5 270.5 c 128,-1,87
 333 266 333 266 311 259 c 0,88,89
 302 260 302 260 290.5 277.5 c 128,-1,90
 279 295 279 295 270 316.5 c 128,-1,91
 261 338 261 338 257 356.5 c 128,-1,92
 253 375 253 375 260 377 c 0,93,94
 341 408 341 408 426.5 420.5 c 128,-1,95
 512 433 512 433 598 427 c 0,0,1
EndSplineSet
Validated: 33
EndChar

StartChar: quotesingle
Encoding: 39 39 11
Width: 199
GlyphClass: 1
Flags: W
LayerCount: 2
Fore
SplineSet
41 716 m 2,0,1
 42 732 42 732 47.5 740.5 c 128,-1,2
 53 749 53 749 79 749 c 0,3,4
 91 749 91 749 107 749 c 128,-1,5
 123 749 123 749 136.5 746 c 128,-1,6
 150 743 150 743 157.5 734 c 128,-1,7
 165 725 165 725 160 706 c 0,8,9
 157 692 157 692 152 673.5 c 128,-1,10
 147 655 147 655 141.5 635 c 128,-1,11
 136 615 136 615 130 596 c 128,-1,12
 124 577 124 577 118 562 c 0,13,14
 113 551 113 551 107.5 540.5 c 128,-1,15
 102 530 102 530 85 530 c 0,16,17
 77 530 77 530 68.5 531 c 128,-1,18
 60 532 60 532 57 532 c 0,19,20
 45 533 45 533 37 539.5 c 128,-1,21
 29 546 29 546 31 572 c 2,22,-1
 41 716 l 2,0,1
EndSplineSet
Validated: 33
EndChar

StartChar: parenleft
Encoding: 40 40 12
Width: 401
GlyphClass: 1
Flags: W
LayerCount: 2
Fore
SplineSet
359 637 m 0,0,1
 317 613 317 613 282.5 576 c 128,-1,2
 248 539 248 539 226 493.5 c 128,-1,3
 204 448 204 448 195.5 398 c 128,-1,4
 187 348 187 348 198 298 c 128,-1,5
 209 248 209 248 241.5 202 c 128,-1,6
 274 156 274 156 332 119 c 0,7,8
 337 116 337 116 341.5 113 c 128,-1,9
 346 110 346 110 351 107 c 0,10,11
 359 102 359 102 360.5 94.5 c 128,-1,12
 362 87 362 87 360 78 c 0,13,14
 358 57 358 57 345.5 31 c 128,-1,15
 333 5 333 5 319 -14 c 0,16,17
 307 -30 307 -30 286 -28 c 128,-1,18
 265 -26 265 -26 244 -15 c 0,19,20
 195 13 195 13 154.5 52 c 128,-1,21
 114 91 114 91 85.5 140.5 c 128,-1,22
 57 190 57 190 43 249.5 c 128,-1,23
 29 309 29 309 33 378 c 0,24,25
 37 440 37 440 56.5 496 c 128,-1,26
 76 552 76 552 107 600 c 128,-1,27
 138 648 138 648 179 688.5 c 128,-1,28
 220 729 220 729 267 759 c 0,29,30
 280 767 280 767 292.5 765.5 c 128,-1,31
 305 764 305 764 313 754 c 0,32,33
 322 743 322 743 335 726 c 128,-1,34
 348 709 348 709 357 691.5 c 128,-1,35
 366 674 366 674 368.5 659 c 128,-1,36
 371 644 371 644 359 637 c 0,0,1
EndSplineSet
Validated: 33
EndChar

StartChar: parenright
Encoding: 41 41 13
Width: 401
GlyphClass: 1
Flags: W
LayerCount: 2
Fore
SplineSet
52 637 m 0,0,1
 41 644 41 644 44 659 c 128,-1,2
 47 674 47 674 56.5 691.5 c 128,-1,3
 66 709 66 709 79.5 726 c 128,-1,4
 93 743 93 743 103 754 c 0,5,6
 111 764 111 764 123.5 765.5 c 128,-1,7
 136 767 136 767 149 759 c 0,8,9
 195 729 195 729 234 688.5 c 128,-1,10
 273 648 273 648 302.5 600 c 128,-1,11
 332 552 332 552 349 496 c 128,-1,12
 366 440 366 440 367 378 c 0,13,14
 368 309 368 309 351.5 249.5 c 128,-1,15
 335 190 335 190 304.5 140.5 c 128,-1,16
 274 91 274 91 232 52 c 128,-1,17
 190 13 190 13 139 -15 c 0,18,19
 118 -26 118 -26 97 -28 c 128,-1,20
 76 -30 76 -30 64 -14 c 0,21,22
 51 5 51 5 40 31 c 128,-1,23
 29 57 29 57 27 78 c 0,24,25
 26 87 26 87 28 94.5 c 128,-1,26
 30 102 30 102 38 107 c 0,27,28
 43 110 43 110 47.5 113 c 128,-1,29
 52 116 52 116 57 119 c 0,30,31
 117 156 117 156 151 202 c 128,-1,32
 185 248 185 248 198 298 c 128,-1,33
 211 348 211 348 205 398 c 128,-1,34
 199 448 199 448 178.5 493.5 c 128,-1,35
 158 539 158 539 125.5 576 c 128,-1,36
 93 613 93 613 52 637 c 0,0,1
EndSplineSet
Validated: 33
EndChar

StartChar: plus
Encoding: 43 43 14
Width: 506
GlyphClass: 1
Flags: W
LayerCount: 2
Fore
SplineSet
460 348 m 0,0,1
 461 330 461 330 462 311 c 128,-1,2
 463 292 463 292 460.5 276 c 128,-1,3
 458 260 458 260 452 248.5 c 128,-1,4
 446 237 446 237 433 234 c 0,5,6
 426 232 426 232 399.5 232 c 128,-1,7
 373 232 373 232 336 234 c 1,8,9
 337 208 337 208 337.5 181.5 c 128,-1,10
 338 155 338 155 339 128 c 0,11,12
 337 120 337 120 332 115 c 256,13,14
 327 110 327 110 317.5 106 c 128,-1,15
 308 102 308 102 290 100 c 0,16,17
 273 98 273 98 254.5 96.5 c 128,-1,18
 236 95 236 95 220 96.5 c 128,-1,19
 204 98 204 98 192 104 c 128,-1,20
 180 110 180 110 177 123 c 0,21,22
 175 132 175 132 174.5 165 c 128,-1,23
 174 198 174 198 176 243 c 1,24,25
 152 245 152 245 131 246 c 128,-1,26
 110 247 110 247 95 248 c 0,27,28
 77 249 77 249 62 250 c 0,29,30
 57 249 57 249 53 253 c 0,31,32
 50 256 50 256 47 262.5 c 128,-1,33
 44 269 44 269 44 283 c 0,34,35
 43 297 43 297 42.5 315.5 c 128,-1,36
 42 334 42 334 42.5 350.5 c 128,-1,37
 43 367 43 367 46 379 c 128,-1,38
 49 391 49 391 56 392 c 2,39,-1
 185 394 l 1,40,41
 187 417 187 417 189 436 c 128,-1,42
 191 455 191 455 193 469 c 0,43,44
 195 486 195 486 196 500 c 0,45,46
 195 504 195 504 199 508 c 0,47,48
 202 511 202 511 209 514 c 128,-1,49
 216 517 216 517 230 517 c 256,50,51
 244 517 244 517 262.5 516.5 c 128,-1,52
 281 516 281 516 297.5 514.5 c 128,-1,53
 314 513 314 513 326 509.5 c 128,-1,54
 338 506 338 506 338 499 c 0,55,56
 337 473 337 473 336.5 447 c 128,-1,57
 336 421 336 421 336 395 c 1,58,-1
 432 396 l 2,59,60
 439 394 439 394 445 389 c 0,61,62
 450 384 450 384 454 374.5 c 128,-1,63
 458 365 458 365 460 348 c 0,0,1
EndSplineSet
Validated: 33
EndChar

StartChar: comma
Encoding: 44 44 15
Width: 220
GlyphClass: 1
Flags: W
LayerCount: 2
Fore
SplineSet
62 156 m 2,0,1
 64 165 64 165 69 172 c 0,2,3
 74 178 74 178 82 182.5 c 128,-1,4
 90 187 90 187 104 187 c 0,5,6
 123 186 123 186 138.5 184.5 c 128,-1,7
 154 183 154 183 165 179 c 0,8,9
 182 174 182 174 184 164 c 128,-1,10
 186 154 186 154 181 137 c 0,11,12
 177 125 177 125 171 109 c 128,-1,13
 165 93 165 93 158 76.5 c 128,-1,14
 151 60 151 60 144 44.5 c 128,-1,15
 137 29 137 29 131 19 c 0,16,17
 126 10 126 10 120 1 c 128,-1,18
 114 -8 114 -8 106 -15 c 128,-1,19
 98 -22 98 -22 88 -25.5 c 128,-1,20
 78 -29 78 -29 64 -26 c 0,21,22
 43 -20 43 -20 35.5 -16.5 c 128,-1,23
 28 -13 28 -13 29 -6 c 2,24,-1
 62 156 l 2,0,1
EndSplineSet
Validated: 1
EndChar

StartChar: hyphen
Encoding: 45 45 16
Width: 443
GlyphClass: 1
Flags: W
LayerCount: 2
Fore
SplineSet
43 371 m 0,0,1
 214 376 214 376 386 371 c 0,2,3
 392 370 392 370 397 365 c 256,4,5
 402 360 402 360 405 351.5 c 128,-1,6
 408 343 408 343 409 327 c 0,7,8
 410 312 410 312 410 295.5 c 128,-1,9
 410 279 410 279 407 265 c 128,-1,10
 404 251 404 251 398 241.5 c 128,-1,11
 392 232 392 232 381 229 c 0,12,13
 375 228 375 228 358 228.5 c 128,-1,14
 341 229 341 229 317 230.5 c 128,-1,15
 293 232 293 232 264 234 c 128,-1,16
 235 236 235 236 205 238 c 0,17,18
 176 240 176 240 148.5 241.5 c 128,-1,19
 121 243 121 243 99 245 c 0,20,21
 73 246 73 246 51 247 c 0,22,23
 47 246 47 246 43 249 c 0,24,25
 40 251 40 251 37.5 257.5 c 128,-1,26
 35 264 35 264 34 276 c 256,27,28
 33 288 33 288 32 304 c 128,-1,29
 31 320 31 320 31 335 c 128,-1,30
 31 350 31 350 34 360.5 c 128,-1,31
 37 371 37 371 43 371 c 0,0,1
EndSplineSet
Validated: 33
EndChar

StartChar: period
Encoding: 46 46 17
Width: 214
GlyphClass: 1
Flags: W
LayerCount: 2
Fore
SplineSet
178 58 m 0,0,1
 178 32 178 32 156.5 13.5 c 128,-1,2
 135 -5 135 -5 105 -5 c 256,3,4
 75 -5 75 -5 53.5 13.5 c 128,-1,5
 32 32 32 32 32 58 c 0,6,7
 32 85 32 85 53.5 104 c 128,-1,8
 75 123 75 123 105 123 c 256,9,10
 135 123 135 123 156.5 104 c 128,-1,11
 178 85 178 85 178 58 c 0,0,1
EndSplineSet
Validated: 1
EndChar

StartChar: slash
Encoding: 47 47 18
Width: 461
GlyphClass: 1
Flags: W
LayerCount: 2
Fore
SplineSet
184 26 m 2,0,1
 178 14 178 14 169 6 c 0,2,3
 161 -1 161 -1 149 -5 c 128,-1,4
 137 -9 137 -9 120 -4 c 0,5,6
 103 0 103 0 85.5 6.5 c 128,-1,7
 68 13 68 13 54.5 22.5 c 128,-1,8
 41 32 41 32 34.5 47 c 128,-1,9
 28 62 28 62 34 85 c 0,10,11
 37 97 37 97 49.5 130.5 c 128,-1,12
 62 164 62 164 80.5 211.5 c 128,-1,13
 99 259 99 259 122.5 316 c 128,-1,14
 146 373 146 373 170 430 c 0,15,16
 226 565 226 565 296 729 c 0,17,18
 299 738 299 738 304 743 c 256,19,20
 309 748 309 748 317 750.5 c 128,-1,21
 325 753 325 753 339 748 c 0,22,23
 352 744 352 744 369.5 738 c 128,-1,24
 387 732 387 732 402 724 c 128,-1,25
 417 716 417 716 426 706 c 128,-1,26
 435 696 435 696 431 684 c 2,27,-1
 184 26 l 2,0,1
EndSplineSet
Validated: 33
EndChar

StartChar: zero
Encoding: 48 48 19
Width: 647
GlyphClass: 2
Flags: W
LayerCount: 2
Fore
SplineSet
429.224609375 -3.73828125 m 0,0,1
 407.625 -10.9384765625 407.625 -10.9384765625 384.224609375 -13.6376953125 c 128,-1,2
 360.825195312 -16.337890625 360.825195312 -16.337890625 337.424804688 -16.337890625 c 0,3,4
 306.825195312 -16.337890625 306.825195312 -16.337890625 276.224609375 -8.23828125 c 128,-1,5
 245.625 -0.1376953125 245.625 -0.1376953125 218.174804688 14.7119140625 c 128,-1,6
 190.724609375 29.5615234375 190.724609375 29.5615234375 167.325195312 50.7119140625 c 128,-1,7
 143.924804688 71.8623046875 143.924804688 71.8623046875 127.724609375 97.9619140625 c 0,8,9
 105.224609375 133.961914062 105.224609375 133.961914062 92.625 174.461914062 c 128,-1,10
 80.025390625 214.961914062 80.025390625 214.961914062 73.724609375 257.26171875 c 0,11,12
 66.525390625 305.862304688 66.525390625 305.862304688 67.4248046875 354.912109375 c 128,-1,13
 68.3251953125 403.961914062 68.3251953125 403.961914062 78.224609375 452.561523438 c 0,14,15
 82.724609375 470.561523438 82.724609375 470.561523438 87.6748046875 489.01171875 c 128,-1,16
 92.625 507.461914062 92.625 507.461914062 100.724609375 524.561523438 c 0,17,18
 126.825195312 583.061523438 126.825195312 583.061523438 175.424804688 624.461914062 c 0,19,20
 211.424804688 654.162109375 211.424804688 654.162109375 258.224609375 669.461914062 c 0,21,22
 282.525390625 676.662109375 282.525390625 676.662109375 308.174804688 676.211914062 c 128,-1,23
 333.825195312 675.76171875 333.825195312 675.76171875 359.025390625 673.961914062 c 0,24,25
 374.325195312 673.061523438 374.325195312 673.061523438 390.525390625 671.26171875 c 128,-1,26
 406.724609375 669.461914062 406.724609375 669.461914062 422.025390625 666.76171875 c 0,27,28
 437.325195312 663.162109375 437.325195312 663.162109375 451.724609375 657.76171875 c 128,-1,29
 466.125 652.362304688 466.125 652.362304688 480.525390625 646.061523438 c 0,30,31
 516.525390625 630.76171875 516.525390625 630.76171875 543.525390625 598.811523438 c 128,-1,32
 570.525390625 566.862304688 570.525390625 566.862304688 584.924804688 529.961914062 c 0,33,34
 593.924804688 507.461914062 593.924804688 507.461914062 598.875 484.061523438 c 128,-1,35
 603.825195312 460.662109375 603.825195312 460.662109375 607.424804688 436.362304688 c 0,36,37
 616.424804688 382.362304688 616.424804688 382.362304688 615.075195312 327.912109375 c 128,-1,38
 613.724609375 273.461914062 613.724609375 273.461914062 602.924804688 219.461914062 c 0,39,40
 598.424804688 193.362304688 598.424804688 193.362304688 591.224609375 166.811523438 c 128,-1,41
 584.025390625 140.26171875 584.025390625 140.26171875 573.224609375 115.061523438 c 0,42,43
 557.924804688 82.662109375 557.924804688 82.662109375 531.825195312 57.4619140625 c 0,44,45
 509.325195312 37.662109375 509.325195312 37.662109375 483.674804688 21.912109375 c 128,-1,46
 458.025390625 6.162109375 458.025390625 6.162109375 429.224609375 -3.73828125 c 0,0,1
426.525390625 353.561523438 m 0,47,48
 433.724609375 352.662109375 433.724609375 352.662109375 440.924804688 352.662109375 c 128,-1,49
 448.125 352.662109375 448.125 352.662109375 455.325195312 351.76171875 c 1,50,51
 453.525390625 388.662109375 453.525390625 388.662109375 444.525390625 423.76171875 c 0,52,53
 436.424804688 450.76171875 436.424804688 450.76171875 417.525390625 475.51171875 c 128,-1,54
 398.625 500.26171875 398.625 500.26171875 372.525390625 510.162109375 c 0,55,56
 354.525390625 517.362304688 354.525390625 517.362304688 333.375 512.412109375 c 128,-1,57
 312.224609375 507.461914062 312.224609375 507.461914062 295.125 497.561523438 c 0,58,59
 292.424804688 495.76171875 292.424804688 495.76171875 287.025390625 491.711914062 c 128,-1,60
 281.625 487.662109375 281.625 487.662109375 276.224609375 482.711914062 c 128,-1,61
 270.825195312 477.76171875 270.825195312 477.76171875 265.875 473.26171875 c 128,-1,62
 260.924804688 468.76171875 260.924804688 468.76171875 260.025390625 466.061523438 c 0,63,64
 258.224609375 464.26171875 258.224609375 464.26171875 257.775390625 462.01171875 c 128,-1,65
 257.325195312 459.76171875 257.325195312 459.76171875 255.525390625 457.961914062 c 0,66,67
 261.825195312 448.061523438 261.825195312 448.061523438 267.674804688 439.961914062 c 128,-1,68
 273.525390625 431.862304688 273.525390625 431.862304688 280.724609375 424.662109375 c 0,69,70
 296.025390625 409.362304688 296.025390625 409.362304688 312.674804688 397.211914062 c 128,-1,71
 329.325195312 385.061523438 329.325195312 385.061523438 347.325195312 376.061523438 c 0,72,73
 382.424804688 358.961914062 382.424804688 358.961914062 426.525390625 353.561523438 c 0,47,48
300.525390625 164.561523438 m 0,74,75
 315.825195312 158.26171875 315.825195312 158.26171875 331.575195312 156.912109375 c 128,-1,76
 347.325195312 155.561523438 347.325195312 155.561523438 362.625 158.26171875 c 0,77,78
 376.125 160.961914062 376.125 160.961914062 388.724609375 167.711914062 c 128,-1,79
 401.325195312 174.461914062 401.325195312 174.461914062 410.325195312 184.362304688 c 0,80,81
 424.724609375 201.461914062 424.724609375 201.461914062 434.625 223.961914062 c 1,82,83
 418.424804688 223.961914062 418.424804688 223.961914062 402.674804688 226.662109375 c 128,-1,84
 386.924804688 229.362304688 386.924804688 229.362304688 371.625 233.862304688 c 0,85,86
 330.224609375 245.561523438 330.224609375 245.561523438 294.224609375 271.211914062 c 128,-1,87
 258.224609375 296.862304688 258.224609375 296.862304688 231.224609375 331.061523438 c 1,88,-1
 231.224609375 313.061523438 l 2,89,90
 231.224609375 304.061523438 231.224609375 304.061523438 232.125 295.061523438 c 0,91,92
 233.924804688 269.862304688 233.924804688 269.862304688 237.974609375 245.112304688 c 128,-1,93
 242.025390625 220.362304688 242.025390625 220.362304688 255.525390625 199.662109375 c 0,94,95
 263.625 187.961914062 263.625 187.961914062 275.775390625 178.961914062 c 128,-1,96
 287.924804688 169.961914062 287.924804688 169.961914062 300.525390625 164.561523438 c 0,74,75
EndSplineSet
Validated: 524321
EndChar

StartChar: one
Encoding: 49 49 20
Width: 341
GlyphClass: 1
Flags: W
LayerCount: 2
Fore
SplineSet
316 652 m 0,0,1
 292 348 292 348 295 41 c 0,2,3
 294 30 294 30 289 21 c 0,4,5
 284 13 284 13 274 5.5 c 128,-1,6
 264 -2 264 -2 247 -4 c 0,7,8
 229 -6 229 -6 210.5 -6.5 c 128,-1,9
 192 -7 192 -7 176 -3 c 128,-1,10
 160 1 160 1 148.5 11 c 128,-1,11
 137 21 137 21 134 42 c 0,12,13
 132 53 132 53 131.5 85 c 128,-1,14
 131 117 131 117 133 162 c 0,15,16
 135 208 135 208 138 262.5 c 128,-1,17
 141 317 141 317 144 372 c 0,18,19
 145 374 145 374 145 378 c 0,20,21
 139 379 139 379 130.5 382 c 128,-1,22
 122 385 122 385 108 394 c 0,23,24
 93 404 93 404 77.5 414.5 c 128,-1,25
 62 425 62 425 49.5 436 c 128,-1,26
 37 447 37 447 30 457 c 128,-1,27
 23 467 23 467 26 476 c 256,28,29
 29 485 29 485 53 516 c 0,30,31
 64 530 64 530 77 548 c 128,-1,32
 90 566 90 566 104 585 c 0,33,34
 118 603 118 603 129.5 620 c 128,-1,35
 141 637 141 637 151 651 c 0,36,37
 162 667 162 667 172 682 c 0,38,39
 176 690 176 690 198.5 691.5 c 128,-1,40
 221 693 221 693 246.5 688.5 c 128,-1,41
 272 684 272 684 293 674.5 c 128,-1,42
 314 665 314 665 316 652 c 0,0,1
EndSplineSet
Validated: 33
EndChar

StartChar: two
Encoding: 50 50 21
Width: 500
GlyphClass: 1
Flags: W
LayerCount: 2
Fore
SplineSet
446 153 m 0,0,1
 453 153 453 153 457 146.5 c 128,-1,2
 461 140 461 140 463.5 131.5 c 128,-1,3
 466 123 466 123 466.5 114 c 128,-1,4
 467 105 467 105 467 101 c 0,5,6
 467 83 467 83 466 63.5 c 128,-1,7
 465 44 465 44 462 27.5 c 128,-1,8
 459 11 459 11 453 -0.5 c 128,-1,9
 447 -12 447 -12 436 -14 c 0,10,11
 431 -16 431 -16 414.5 -15 c 128,-1,12
 398 -14 398 -14 375 -12 c 0,13,14
 351 -10 351 -10 323.5 -8.5 c 128,-1,15
 296 -7 296 -7 267 -6 c 256,16,17
 238 -5 238 -5 211 -5 c 128,-1,18
 184 -5 184 -5 163 -6 c 0,19,20
 145 -8 145 -8 118.5 -8 c 128,-1,21
 92 -8 92 -8 73 -5 c 0,22,23
 58 -2 58 -2 50 18.5 c 128,-1,24
 42 39 42 39 40.5 67 c 128,-1,25
 39 95 39 95 45 125.5 c 128,-1,26
 51 156 51 156 63 179 c 0,27,28
 82 212 82 212 106 238.5 c 128,-1,29
 130 265 130 265 156 289.5 c 128,-1,30
 182 314 182 314 209 339 c 128,-1,31
 236 364 236 364 262 393 c 0,32,33
 273 405 273 405 287 428 c 128,-1,34
 301 451 301 451 308 474 c 0,35,36
 317 504 317 504 307 520 c 128,-1,37
 297 536 297 536 278.5 539.5 c 128,-1,38
 260 543 260 543 238 534.5 c 128,-1,39
 216 526 216 526 200 507 c 0,40,41
 186 489 186 489 179.5 465 c 128,-1,42
 173 441 173 441 182 416 c 0,43,44
 184 411 184 411 186.5 404.5 c 128,-1,45
 189 398 189 398 190 392 c 0,46,47
 191 378 191 378 171.5 363.5 c 128,-1,48
 152 349 152 349 126 342.5 c 128,-1,49
 100 336 100 336 75 341.5 c 128,-1,50
 50 347 50 347 40 373 c 0,51,52
 29 409 29 409 30.5 444.5 c 128,-1,53
 32 480 32 480 42.5 513.5 c 128,-1,54
 53 547 53 547 72.5 577 c 128,-1,55
 92 607 92 607 118 630 c 0,56,57
 146 655 146 655 182.5 670 c 128,-1,58
 219 685 219 685 258 688 c 128,-1,59
 297 691 297 691 334.5 681 c 128,-1,60
 372 671 372 671 402 645 c 0,61,62
 426 625 426 625 440 599.5 c 128,-1,63
 454 574 454 574 460 545.5 c 128,-1,64
 466 517 466 517 464.5 487 c 128,-1,65
 463 457 463 457 456 427 c 0,66,67
 445 383 445 383 422.5 347 c 128,-1,68
 400 311 400 311 372 278.5 c 128,-1,69
 344 246 344 246 312.5 215.5 c 128,-1,70
 281 185 281 185 251 153 c 1,71,72
 348 157 348 157 446 153 c 0,0,1
EndSplineSet
Validated: 33
EndChar

StartChar: three
Encoding: 51 51 22
Width: 460
GlyphClass: 1
Flags: W
LayerCount: 2
Fore
SplineSet
375 379 m 1,0,1
 404 344 404 344 420.5 294.5 c 128,-1,2
 437 245 437 245 432 197 c 0,3,4
 428 160 428 160 410 123.5 c 128,-1,5
 392 87 392 87 364 58.5 c 128,-1,6
 336 30 336 30 299.5 12.5 c 128,-1,7
 263 -5 263 -5 221 -5 c 0,8,9
 195 -5 195 -5 168 0.5 c 128,-1,10
 141 6 141 6 115.5 16 c 128,-1,11
 90 26 90 26 68 42 c 128,-1,12
 46 58 46 58 32 79 c 0,13,14
 17 100 17 100 23 125 c 0,15,16
 29 153 29 153 46.5 173.5 c 128,-1,17
 64 194 64 194 79 207 c 0,18,19
 87 213 87 213 99 215 c 128,-1,20
 111 217 111 217 122 205 c 0,21,22
 140 184 140 184 161 171.5 c 128,-1,23
 182 159 182 159 202.5 157.5 c 128,-1,24
 223 156 223 156 241.5 166.5 c 128,-1,25
 260 177 260 177 273 201 c 0,26,27
 280 215 280 215 281 231 c 128,-1,28
 282 247 282 247 275 260.5 c 128,-1,29
 268 274 268 274 252 283.5 c 128,-1,30
 236 293 236 293 210 295 c 0,31,32
 208 294 208 294 207 294.5 c 128,-1,33
 206 295 206 295 205 295 c 2,34,-1
 203 295 l 2,35,36
 202 294 202 294 201 294 c 2,37,-1
 197 294 l 2,38,39
 194 295 194 295 190.5 295.5 c 128,-1,40
 187 296 187 296 185 298 c 0,41,42
 174 301 174 301 170 316 c 128,-1,43
 166 331 166 331 165.5 349 c 128,-1,44
 165 367 165 367 167 384.5 c 128,-1,45
 169 402 169 402 172 410 c 0,46,47
 176 421 176 421 182 428.5 c 128,-1,48
 188 436 188 436 196 436 c 0,49,50
 221 436 221 436 240 452 c 128,-1,51
 259 468 259 468 267 488 c 128,-1,52
 275 508 275 508 269.5 525.5 c 128,-1,53
 264 543 264 543 239 545 c 0,54,55
 222 547 222 547 202.5 534.5 c 128,-1,56
 183 522 183 522 170 496 c 0,57,58
 165 486 165 486 162 476.5 c 128,-1,59
 159 467 159 467 147 462 c 0,60,61
 137 458 137 458 128 458 c 0,62,63
 99 458 99 458 72.5 475 c 128,-1,64
 46 492 46 492 37 523 c 0,65,66
 33 542 33 542 38 560 c 128,-1,67
 43 578 43 578 53 595 c 0,68,69
 70 623 70 623 96 644 c 128,-1,70
 122 665 122 665 153.5 677.5 c 128,-1,71
 185 690 185 690 220.5 693 c 128,-1,72
 256 696 256 696 292 687 c 0,73,74
 337 676 337 676 366 645.5 c 128,-1,75
 395 615 395 615 406.5 573 c 128,-1,76
 418 531 418 531 410.5 481 c 128,-1,77
 403 431 403 431 375 379 c 1,0,1
EndSplineSet
Validated: 33
EndChar

StartChar: four
Encoding: 52 52 23
Width: 534
GlyphClass: 1
Flags: W
LayerCount: 2
Fore
SplineSet
498 41 m 2,0,1
 496 30 496 30 491 20 c 0,2,3
 486 12 486 12 476 5 c 128,-1,4
 466 -2 466 -2 449 -4 c 256,5,6
 432 -6 432 -6 413.5 -6.5 c 128,-1,7
 395 -7 395 -7 379 -3 c 128,-1,8
 363 1 363 1 351 11.5 c 128,-1,9
 339 22 339 22 336 43 c 0,10,11
 334 54 334 54 334 88 c 128,-1,12
 334 122 334 122 335 172 c 1,13,14
 266 172 266 172 196.5 174.5 c 128,-1,15
 127 177 127 177 55 179 c 0,16,17
 52 178 52 178 48 181 c 0,18,19
 45 183 45 183 42 190 c 128,-1,20
 39 197 39 197 37 211 c 0,21,22
 36 218 36 218 34 233.5 c 128,-1,23
 32 249 32 249 30.5 266.5 c 128,-1,24
 29 284 29 284 29 299.5 c 128,-1,25
 29 315 29 315 34 323 c 0,26,27
 38 330 38 330 54 347.5 c 128,-1,28
 70 365 70 365 93 391 c 0,29,30
 151 454 151 454 207 520 c 128,-1,31
 263 586 263 586 318 661 c 0,32,33
 328 675 328 675 336.5 682.5 c 128,-1,34
 345 690 345 690 367 692 c 0,35,36
 388 694 388 694 419.5 696.5 c 128,-1,37
 451 699 451 699 473 693 c 0,38,39
 478 690 478 690 482.5 685.5 c 128,-1,40
 487 681 487 681 488 674 c 0,41,42
 492 649 492 649 492.5 627 c 128,-1,43
 493 605 493 605 494 585 c 2,44,-1
 498 41 l 2,0,1
255 333 m 1,45,46
 276 334 276 334 297 334.5 c 128,-1,47
 318 335 318 335 339 335 c 1,48,49
 339 362 339 362 340 389 c 128,-1,50
 341 416 341 416 343 445 c 1,51,52
 322 416 322 416 300 388.5 c 128,-1,53
 278 361 278 361 255 333 c 1,45,46
EndSplineSet
Validated: 33
EndChar

StartChar: five
Encoding: 53 53 24
Width: 491
GlyphClass: 1
Flags: W
LayerCount: 2
Fore
SplineSet
412 395 m 0,0,1
 443 353 443 353 454 303 c 128,-1,2
 465 253 465 253 456.5 203.5 c 128,-1,3
 448 154 448 154 422.5 108.5 c 128,-1,4
 397 63 397 63 355 32 c 0,5,6
 298 -10 298 -10 239 -14.5 c 128,-1,7
 180 -19 180 -19 127 10 c 0,8,9
 92 28 92 28 67 56 c 128,-1,10
 42 84 42 84 40 126 c 0,11,12
 39 149 39 149 49.5 170 c 128,-1,13
 60 191 60 191 77 203 c 128,-1,14
 94 215 94 215 114 214.5 c 128,-1,15
 134 214 134 214 153 194 c 0,16,17
 167 176 167 176 189 162.5 c 128,-1,18
 211 149 211 149 237 154 c 0,19,20
 287 162 287 162 304 223 c 0,21,22
 308 240 308 240 307 258.5 c 128,-1,23
 306 277 306 277 299.5 293 c 128,-1,24
 293 309 293 309 280 321.5 c 128,-1,25
 267 334 267 334 246 339 c 0,26,27
 217 347 217 347 184 344.5 c 128,-1,28
 151 342 151 342 126 334 c 0,29,30
 117 332 117 332 97.5 333 c 128,-1,31
 78 334 78 334 67 334 c 0,32,33
 55 335 55 335 46.5 346 c 128,-1,34
 38 357 38 357 33.5 372 c 128,-1,35
 29 387 29 387 28 402 c 128,-1,36
 27 417 27 417 31 428 c 0,37,38
 34 438 34 438 35.5 466.5 c 128,-1,39
 37 495 37 495 38 530.5 c 128,-1,40
 39 566 39 566 39.5 602 c 128,-1,41
 40 638 40 638 41 662 c 0,42,43
 42 681 42 681 46.5 688 c 128,-1,44
 51 695 51 695 60 696 c 128,-1,45
 69 697 69 697 82 694.5 c 128,-1,46
 95 692 95 692 112 691 c 0,47,48
 181 686 181 686 250.5 684 c 128,-1,49
 320 682 320 682 393 686 c 0,50,51
 405 687 405 687 414.5 686 c 128,-1,52
 424 685 424 685 428 683 c 0,53,54
 433 680 433 680 437.5 673.5 c 128,-1,55
 442 667 442 667 444 653 c 0,56,57
 446 635 446 635 445.5 614 c 128,-1,58
 445 593 445 593 441 574.5 c 128,-1,59
 437 556 437 556 429 542 c 128,-1,60
 421 528 421 528 409 525 c 0,61,62
 403 523 403 523 384 522.5 c 128,-1,63
 365 522 365 522 338 523 c 0,64,65
 242 526 242 526 146 541 c 1,66,-1
 146 480 l 1,67,68
 230 494 230 494 299.5 472 c 128,-1,69
 369 450 369 450 412 395 c 0,0,1
EndSplineSet
Validated: 33
EndChar

StartChar: six
Encoding: 54 54 25
Width: 555
GlyphClass: 1
Flags: W
LayerCount: 2
Fore
SplineSet
239 463 m 1,0,1
 303 472 303 472 356.5 461 c 128,-1,2
 410 450 410 450 448 421 c 128,-1,3
 486 392 486 392 506 347 c 128,-1,4
 526 302 526 302 524 244 c 0,5,6
 522 201 522 201 508.5 160.5 c 128,-1,7
 495 120 495 120 470 87 c 128,-1,8
 445 54 445 54 409.5 30 c 128,-1,9
 374 6 374 6 329 -4 c 0,10,11
 312 -7 312 -7 296 -8.5 c 128,-1,12
 280 -10 280 -10 263 -8 c 0,13,14
 218 -5 218 -5 177 13 c 128,-1,15
 136 31 136 31 104 61 c 128,-1,16
 72 91 72 91 51 131.5 c 128,-1,17
 30 172 30 172 26 220 c 0,18,19
 21 274 21 274 32.5 331.5 c 128,-1,20
 44 389 44 389 66.5 444 c 128,-1,21
 89 499 89 499 120 548.5 c 128,-1,22
 151 598 151 598 185 635 c 0,23,24
 199 651 199 651 214.5 664.5 c 128,-1,25
 230 678 230 678 246 687 c 0,26,27
 254 692 254 692 264 690.5 c 128,-1,28
 274 689 274 689 281 682 c 0,29,30
 292 673 292 673 304 659.5 c 128,-1,31
 316 646 316 646 324 630 c 0,32,33
 328 623 328 623 330.5 615.5 c 128,-1,34
 333 608 333 608 332 600 c 0,35,36
 332 583 332 583 318 569 c 0,37,38
 272 522 272 522 239 463 c 1,0,1
309 321 m 0,39,40
 277 329 277 329 251.5 321 c 128,-1,41
 226 313 226 313 209.5 296.5 c 128,-1,42
 193 280 193 280 186 257 c 128,-1,43
 179 234 179 234 184 212.5 c 128,-1,44
 189 191 189 191 207.5 173.5 c 128,-1,45
 226 156 226 156 259 149 c 0,46,47
 279 146 279 146 298 150.5 c 128,-1,48
 317 155 317 155 332 170 c 0,49,50
 349 187 349 187 355 210.5 c 128,-1,51
 361 234 361 234 358 256.5 c 128,-1,52
 355 279 355 279 342.5 297 c 128,-1,53
 330 315 330 315 309 321 c 0,39,40
EndSplineSet
Validated: 33
EndChar

StartChar: seven
Encoding: 55 55 26
Width: 493
GlyphClass: 1
Flags: W
LayerCount: 2
Fore
SplineSet
463 634 m 0,0,1
 464 621 464 621 465 603.5 c 128,-1,2
 466 586 466 586 465.5 569.5 c 128,-1,3
 465 553 465 553 462.5 540.5 c 128,-1,4
 460 528 460 528 454 526 c 0,5,6
 454 524 454 524 452 520 c 0,7,8
 378 404 378 404 325.5 276.5 c 128,-1,9
 273 149 273 149 243 14 c 1,10,-1
 243 13 l 2,11,12
 243 11 243 11 241 9 c 256,13,14
 239 7 239 7 237.5 4 c 128,-1,15
 236 1 236 1 232 -3 c 0,16,17
 227 -8 227 -8 216 -12.5 c 128,-1,18
 205 -17 205 -17 187 -15 c 256,19,20
 169 -13 169 -13 151 -10 c 128,-1,21
 133 -7 133 -7 118 -0.5 c 128,-1,22
 103 6 103 6 94 18.5 c 128,-1,23
 85 31 85 31 86 51 c 0,24,25
 87 62 87 62 94 92 c 128,-1,26
 101 122 101 122 115 164 c 0,27,28
 129 207 129 207 148 256 c 128,-1,29
 167 305 167 305 190 353 c 0,30,31
 213 402 213 402 237.5 445.5 c 128,-1,32
 262 489 262 489 283 521 c 1,33,-1
 283 523 l 1,34,35
 164 523 164 523 49 526 c 0,36,37
 42 527 42 527 36 533 c 0,38,39
 31 538 31 538 26.5 548 c 128,-1,40
 22 558 22 558 21 575 c 0,41,42
 20 593 20 593 20.5 611.5 c 128,-1,43
 21 630 21 630 24 646 c 128,-1,44
 27 662 27 662 34 673 c 128,-1,45
 41 684 41 684 54 687 c 0,46,47
 60 688 60 688 80 687.5 c 128,-1,48
 100 687 100 687 128.5 685.5 c 128,-1,49
 157 684 157 684 191.5 681.5 c 128,-1,50
 226 679 226 679 261 677 c 256,51,52
 296 675 296 675 328.5 673.5 c 128,-1,53
 361 672 361 672 387 670 c 0,54,55
 417 668 417 668 443 667 c 0,56,57
 448 668 448 668 452 664 c 0,58,59
 456 661 456 661 459 654.5 c 128,-1,60
 462 648 462 648 463 634 c 0,0,1
EndSplineSet
Validated: 33
EndChar

StartChar: eight
Encoding: 56 56 27
Width: 532
GlyphClass: 1
Flags: W
LayerCount: 2
Fore
SplineSet
422 378 m 1,0,1
 467 345 467 345 486 302.5 c 128,-1,2
 505 260 505 260 502.5 216 c 128,-1,3
 500 172 500 172 478.5 130 c 128,-1,4
 457 88 457 88 422 56 c 128,-1,5
 387 24 387 24 340.5 5.5 c 128,-1,6
 294 -13 294 -13 242 -10 c 0,7,8
 208 -8 208 -8 171.5 4 c 128,-1,9
 135 16 135 16 104 37.5 c 128,-1,10
 73 59 73 59 51 90 c 128,-1,11
 29 121 29 121 23 160 c 0,12,13
 17 217 17 217 41 262.5 c 128,-1,14
 65 308 65 308 107 345 c 1,15,16
 53 392 53 392 40 450 c 128,-1,17
 27 508 27 508 47 561 c 0,18,19
 60 596 60 596 83 619.5 c 128,-1,20
 106 643 106 643 134.5 658 c 128,-1,21
 163 673 163 673 196.5 680.5 c 128,-1,22
 230 688 230 688 264 690 c 0,23,24
 303 692 303 692 341.5 680 c 128,-1,25
 380 668 380 668 411 646 c 128,-1,26
 442 624 442 624 462.5 593.5 c 128,-1,27
 483 563 483 563 488 528 c 128,-1,28
 493 493 493 493 478.5 454.5 c 128,-1,29
 464 416 464 416 424 379 c 0,30,31
 423 379 423 379 423 378.5 c 128,-1,32
 423 378 423 378 422 378 c 1,0,1
258 571 m 0,33,34
 234 571 234 571 215 555 c 128,-1,35
 196 539 196 539 188.5 517 c 128,-1,36
 181 495 181 495 189 471.5 c 128,-1,37
 197 448 197 448 226 432 c 1,38,39
 239 439 239 439 253.5 446 c 128,-1,40
 268 453 268 453 279 464 c 0,41,42
 306 489 306 489 313 509.5 c 128,-1,43
 320 530 320 530 313.5 544.5 c 128,-1,44
 307 559 307 559 291.5 566 c 128,-1,45
 276 573 276 573 258 571 c 0,33,34
183 200 m 0,46,47
 175 176 175 176 181 158.5 c 128,-1,48
 187 141 187 141 201 131 c 128,-1,49
 215 121 215 121 235 119 c 128,-1,50
 255 117 255 117 274 124 c 0,51,52
 300 133 300 133 313.5 153.5 c 128,-1,53
 327 174 327 174 328 197 c 128,-1,54
 329 220 329 220 317 242.5 c 128,-1,55
 305 265 305 265 279 278 c 1,56,57
 265 277 265 277 250.5 270.5 c 128,-1,58
 236 264 236 264 223 253.5 c 128,-1,59
 210 243 210 243 199.5 229 c 128,-1,60
 189 215 189 215 183 200 c 0,46,47
EndSplineSet
Validated: 33
EndChar

StartChar: nine
Encoding: 57 57 28
Width: 555
GlyphClass: 1
Flags: W
LayerCount: 2
Fore
SplineSet
304 220 m 1,0,1
 240 211 240 211 186.5 222 c 128,-1,2
 133 233 133 233 95 262 c 128,-1,3
 57 291 57 291 37 336 c 128,-1,4
 17 381 17 381 19 439 c 0,5,6
 20 482 20 482 34 522.5 c 128,-1,7
 48 563 48 563 73 596 c 128,-1,8
 98 629 98 629 133.5 653 c 128,-1,9
 169 677 169 677 214 687 c 0,10,11
 231 690 231 690 247 691.5 c 128,-1,12
 263 693 263 693 280 691 c 0,13,14
 344 687 344 687 392 658.5 c 128,-1,15
 440 630 440 630 470 585 c 128,-1,16
 500 540 500 540 511 482.5 c 128,-1,17
 522 425 522 425 512 364 c 0,18,19
 504 312 504 312 485.5 256.5 c 128,-1,20
 467 201 467 201 440.5 151.5 c 128,-1,21
 414 102 414 102 380.5 63.5 c 128,-1,22
 347 25 347 25 309 7 c 0,23,24
 288 -3 288 -3 258 1 c 0,25,26
 232 6 232 6 207 19 c 128,-1,27
 182 32 182 32 171 52 c 0,28,29
 164 64 164 64 167 80 c 128,-1,30
 170 96 170 96 184 104 c 0,31,32
 199 113 199 113 217 126 c 128,-1,33
 235 139 235 139 252 154.5 c 128,-1,34
 269 170 269 170 283 187 c 128,-1,35
 297 204 297 204 304 220 c 1,0,1
234 362 m 0,36,37
 266 354 266 354 291.5 362 c 128,-1,38
 317 370 317 370 333.5 386.5 c 128,-1,39
 350 403 350 403 357 426 c 128,-1,40
 364 449 364 449 359 470.5 c 128,-1,41
 354 492 354 492 335.5 509.5 c 128,-1,42
 317 527 317 527 284 534 c 0,43,44
 264 537 264 537 245 532.5 c 128,-1,45
 226 528 226 528 211 513 c 0,46,47
 194 496 194 496 188 472.5 c 128,-1,48
 182 449 182 449 185 426.5 c 128,-1,49
 188 404 188 404 200.5 386 c 128,-1,50
 213 368 213 368 234 362 c 0,36,37
EndSplineSet
Validated: 33
EndChar

StartChar: equal
Encoding: 61 61 29
Width: 437
GlyphClass: 1
Flags: W
LayerCount: 2
Fore
SplineSet
50 441 m 0,0,1
 131 442 131 442 211 442 c 128,-1,2
 291 442 291 442 372 440 c 0,3,4
 379 439 379 439 383 435 c 0,5,6
 387 432 387 432 390 425.5 c 128,-1,7
 393 419 393 419 394 408 c 0,8,9
 394 397 394 397 394 385 c 128,-1,10
 394 373 394 373 391.5 362.5 c 128,-1,11
 389 352 389 352 383 345 c 128,-1,12
 377 338 377 338 367 336 c 0,13,14
 362 336 362 336 346 336.5 c 128,-1,15
 330 337 330 337 307.5 338 c 128,-1,16
 285 339 285 339 257.5 340 c 128,-1,17
 230 341 230 341 203 343 c 0,18,19
 175 345 175 345 149 346 c 128,-1,20
 123 347 123 347 103 348 c 0,21,22
 79 349 79 349 58 350 c 0,23,24
 55 349 55 349 51 351 c 0,25,26
 43 355 43 355 42 371 c 0,27,28
 41 380 41 380 40 391.5 c 128,-1,29
 39 403 39 403 39 414 c 128,-1,30
 39 425 39 425 41.5 432.5 c 128,-1,31
 44 440 44 440 50 441 c 0,0,1
50 274 m 0,32,33
 131 276 131 276 211 275.5 c 128,-1,34
 291 275 291 275 372 273 c 0,35,36
 379 272 379 272 383 268 c 0,37,38
 387 265 387 265 390 259 c 128,-1,39
 393 253 393 253 394 242 c 0,40,41
 394 230 394 230 394 218 c 128,-1,42
 394 206 394 206 391.5 196 c 128,-1,43
 389 186 389 186 383 178.5 c 128,-1,44
 377 171 377 171 367 170 c 0,45,46
 362 169 362 169 346 169.5 c 128,-1,47
 330 170 330 170 307.5 171 c 128,-1,48
 285 172 285 172 257.5 173 c 128,-1,49
 230 174 230 174 203 175 c 0,50,51
 175 177 175 177 149 178.5 c 128,-1,52
 123 180 123 180 103 181 c 0,53,54
 79 182 79 182 58 183 c 0,55,56
 55 182 55 182 51 184 c 0,57,58
 43 188 43 188 42 204 c 0,59,60
 41 213 41 213 40 225 c 128,-1,61
 39 237 39 237 39 247.5 c 128,-1,62
 39 258 39 258 41.5 265.5 c 128,-1,63
 44 273 44 273 50 274 c 0,32,33
EndSplineSet
Validated: 33
EndChar

StartChar: question
Encoding: 63 63 30
Width: 593
GlyphClass: 1
Flags: W
LayerCount: 2
Fore
SplineSet
349 745 m 0,0,1
 403 739 403 739 452 715.5 c 128,-1,2
 501 692 501 692 530 646 c 0,3,4
 546 620 546 620 554 590.5 c 128,-1,5
 562 561 562 561 561 531.5 c 128,-1,6
 560 502 560 502 549 474 c 128,-1,7
 538 446 538 446 517 422 c 0,8,9
 494 395 494 395 468 375 c 128,-1,10
 442 355 442 355 414.5 337 c 128,-1,11
 387 319 387 319 358.5 301 c 128,-1,12
 330 283 330 283 303 259 c 0,13,14
 284 242 284 242 276 226.5 c 128,-1,15
 268 211 268 211 268 195 c 0,16,17
 267 178 267 178 256 175.5 c 128,-1,18
 245 173 245 173 231 173 c 0,19,20
 208 173 208 173 189 180 c 128,-1,21
 170 187 170 187 157.5 200 c 128,-1,22
 145 213 145 213 140 232 c 128,-1,23
 135 251 135 251 140 276 c 0,24,25
 152 324 152 324 181.5 353.5 c 128,-1,26
 211 383 211 383 249 410 c 0,27,28
 264 419 264 419 286.5 434.5 c 128,-1,29
 309 450 309 450 332 468 c 128,-1,30
 355 486 355 486 374.5 505.5 c 128,-1,31
 394 525 394 525 402 544 c 0,32,33
 413 568 413 568 408.5 585.5 c 128,-1,34
 404 603 404 603 390 614.5 c 128,-1,35
 376 626 376 626 355 631 c 128,-1,36
 334 636 334 636 310.5 635 c 128,-1,37
 287 634 287 634 264.5 627 c 128,-1,38
 242 620 242 620 225 608 c 256,39,40
 208 596 208 596 194 582 c 128,-1,41
 180 568 180 568 172.5 552 c 128,-1,42
 165 536 165 536 165.5 516.5 c 128,-1,43
 166 497 166 497 179 475 c 0,44,45
 189 457 189 457 179 438 c 128,-1,46
 169 419 169 419 149.5 406.5 c 128,-1,47
 130 394 130 394 106 392 c 128,-1,48
 82 390 82 390 64 406 c 0,49,50
 41 426 41 426 31.5 453.5 c 128,-1,51
 22 481 22 481 23 510.5 c 128,-1,52
 24 540 24 540 33.5 570 c 128,-1,53
 43 600 43 600 58 625 c 0,54,55
 79 661 79 661 113 686 c 128,-1,56
 147 711 147 711 187.5 726 c 128,-1,57
 228 741 228 741 270 745.5 c 128,-1,58
 312 750 312 750 349 745 c 0,0,1
283 66 m 0,59,60
 283 37 283 37 258.5 16 c 128,-1,61
 234 -5 234 -5 201 -5 c 0,62,63
 166 -5 166 -5 142.5 16 c 128,-1,64
 119 37 119 37 119 66 c 0,65,66
 119 97 119 97 142.5 118 c 128,-1,67
 166 139 166 139 201 139 c 0,68,69
 234 139 234 139 258.5 118 c 128,-1,70
 283 97 283 97 283 66 c 0,59,60
EndSplineSet
Validated: 33
EndChar

StartChar: at
Encoding: 64 64 31
Width: 791
GlyphClass: 1
Flags: W
LayerCount: 2
Fore
SplineSet
560 689 m 0,0,1
 603 668 603 668 637 637 c 128,-1,2
 671 606 671 606 694.5 567.5 c 128,-1,3
 718 529 718 529 730 485.5 c 128,-1,4
 742 442 742 442 742 396 c 0,5,6
 742 364 742 364 735.5 329.5 c 128,-1,7
 729 295 729 295 715 263.5 c 128,-1,8
 701 232 701 232 679 205.5 c 128,-1,9
 657 179 657 179 626 163 c 1,10,11
 639 152 639 152 640 133 c 0,12,13
 640 103 640 103 619.5 78.5 c 128,-1,14
 599 54 599 54 572 37 c 0,15,16
 525 9 525 9 475 -2.5 c 128,-1,17
 425 -14 425 -14 375.5 -10.5 c 128,-1,18
 326 -7 326 -7 278.5 10.5 c 128,-1,19
 231 28 231 28 190 57 c 0,20,21
 153 84 153 84 125 118.5 c 128,-1,22
 97 153 97 153 78 193 c 128,-1,23
 59 233 59 233 50 276.5 c 128,-1,24
 41 320 41 320 43 364 c 0,25,26
 45 414 45 414 59 461.5 c 128,-1,27
 73 509 73 509 98.5 550.5 c 128,-1,28
 124 592 124 592 161 626.5 c 128,-1,29
 198 661 198 661 246 684 c 0,30,31
 282 701 282 701 321.5 710.5 c 128,-1,32
 361 720 361 720 401.5 721 c 128,-1,33
 442 722 442 722 482 714 c 128,-1,34
 522 706 522 706 560 689 c 0,0,1
294 162 m 0,35,36
 340 136 340 136 390 140.5 c 128,-1,37
 440 145 440 145 491 167 c 1,38,39
 484 170 484 170 479 175 c 128,-1,40
 474 180 474 180 467 185 c 1,41,42
 440 177 440 177 411 175 c 128,-1,43
 382 173 382 173 352 179 c 0,44,45
 299 191 299 191 259.5 224.5 c 128,-1,46
 220 258 220 258 200 315 c 1,47,-1
 200 314 l 2,48,49
 201 311 201 311 201 308 c 128,-1,50
 201 305 201 305 202 302 c 0,51,52
 209 260 209 260 231 222 c 128,-1,53
 253 184 253 184 294 162 c 0,35,36
418 312 m 1,54,55
 418 318 418 318 418.5 327 c 128,-1,56
 419 336 419 336 419.5 346 c 128,-1,57
 420 356 420 356 420.5 366 c 128,-1,58
 421 376 421 376 422 382 c 1,59,60
 402 390 402 390 386 386 c 128,-1,61
 370 382 370 382 359.5 371.5 c 128,-1,62
 349 361 349 361 346 347.5 c 128,-1,63
 343 334 343 334 349 323.5 c 128,-1,64
 355 313 355 313 372 308.5 c 128,-1,65
 389 304 389 304 418 312 c 1,54,55
567 302 m 0,66,67
 594 343 594 343 599 390.5 c 128,-1,68
 604 438 604 438 587.5 479 c 128,-1,69
 571 520 571 520 534 548 c 128,-1,70
 497 576 497 576 440 578 c 0,71,72
 374 580 374 580 313.5 544 c 128,-1,73
 253 508 253 508 221 442 c 1,74,75
 235 470 235 470 261 486 c 128,-1,76
 287 502 287 502 318.5 509.5 c 128,-1,77
 350 517 350 517 383 517 c 128,-1,78
 416 517 416 517 445 513 c 1,79,80
 450 520 450 520 456 524.5 c 128,-1,81
 462 529 462 529 470 528 c 0,82,83
 484 526 484 526 501.5 524 c 128,-1,84
 519 522 519 522 534 513 c 0,85,86
 552 502 552 502 560 484 c 0,87,88
 565 475 565 475 566 462.5 c 128,-1,89
 567 450 567 450 566 433 c 0,90,91
 563 405 563 405 562 375 c 128,-1,92
 561 345 561 345 564 300 c 1,93,-1
 565 299 l 1,94,-1
 566 299 l 1,95,-1
 566 300 l 2,96,97
 566 301 566 301 566.5 301 c 128,-1,98
 567 301 567 301 567 302 c 0,66,67
EndSplineSet
Validated: 33
EndChar

StartChar: A
Encoding: 65 65 32
Width: 611
GlyphClass: 1
Flags: W
LayerCount: 2
Fore
SplineSet
416 727 m 0,0,1
 454 705 454 705 481 673 c 128,-1,2
 508 641 508 641 526.5 603 c 128,-1,3
 545 565 545 565 556 522.5 c 128,-1,4
 567 480 567 480 573 437 c 0,5,6
 587 352 587 352 589 265 c 128,-1,7
 591 178 591 178 586 90 c 0,8,9
 584 65 584 65 582 49 c 128,-1,10
 580 33 580 33 574.5 23 c 128,-1,11
 569 13 569 13 559 7 c 128,-1,12
 549 1 549 1 531 -4 c 0,13,14
 514 -6 514 -6 495.5 -7 c 128,-1,15
 477 -8 477 -8 461 3 c 0,16,17
 446 13 446 13 436 37 c 128,-1,18
 426 61 426 61 425 106 c 2,19,-1
 425 116 l 1,20,21
 400 119 400 119 365.5 121 c 128,-1,22
 331 123 331 123 295 123.5 c 128,-1,23
 259 124 259 124 225.5 124 c 128,-1,24
 192 124 192 124 169 124 c 1,25,26
 168 115 168 115 166.5 94 c 128,-1,27
 165 73 165 73 160 52 c 128,-1,28
 155 31 155 31 146.5 14 c 128,-1,29
 138 -3 138 -3 123 -4 c 0,30,31
 109 -5 109 -5 91 -6 c 128,-1,32
 73 -7 73 -7 56 -2 c 0,33,34
 39 2 39 2 27.5 14 c 128,-1,35
 16 26 16 26 15 52 c 0,36,37
 15 83 15 83 16 123 c 128,-1,38
 17 163 17 163 20 210 c 0,39,40
 22 249 22 249 26.5 295.5 c 128,-1,41
 31 342 31 342 39.5 391 c 128,-1,42
 48 440 48 440 61.5 489 c 128,-1,43
 75 538 75 538 95.5 582 c 128,-1,44
 116 626 116 626 144 663 c 128,-1,45
 172 700 172 700 211 725 c 0,46,47
 257 754 257 754 312 754 c 128,-1,48
 367 754 367 754 416 727 c 0,0,1
173 272 m 1,49,50
 236 277 236 277 298.5 279.5 c 128,-1,51
 361 282 361 282 424 280 c 1,52,53
 427 351 427 351 418 407 c 128,-1,54
 409 463 409 463 393 501.5 c 128,-1,55
 377 540 377 540 355 560.5 c 128,-1,56
 333 581 333 581 310 581 c 0,57,58
 290 581 290 581 268.5 560.5 c 128,-1,59
 247 540 247 540 228.5 500.5 c 128,-1,60
 210 461 210 461 195 403 c 128,-1,61
 180 345 180 345 173 272 c 1,49,50
EndSplineSet
Validated: 33
EndChar

StartChar: B
Encoding: 66 66 33
Width: 558
GlyphClass: 1
Flags: W
LayerCount: 2
Fore
SplineSet
446 385 m 1,0,1
 490 351 490 351 511.5 300.5 c 128,-1,2
 533 250 533 250 525 196 c 0,3,4
 516 135 516 135 477 93.5 c 128,-1,5
 438 52 438 52 385 28 c 128,-1,6
 332 4 332 4 270.5 -4 c 128,-1,7
 209 -12 209 -12 155 -6 c 0,8,9
 150 -8 150 -8 146 -8.5 c 128,-1,10
 142 -9 142 -9 137 -10 c 0,11,12
 119 -11 119 -11 100 -10 c 128,-1,13
 81 -9 81 -9 65.5 -3.5 c 128,-1,14
 50 2 50 2 39 14.5 c 128,-1,15
 28 27 28 27 26 50 c 0,16,17
 24 61 24 61 25 94.5 c 128,-1,18
 26 128 26 128 27 176 c 0,19,20
 29 225 29 225 30.5 282.5 c 128,-1,21
 32 340 32 340 33 398 c 0,22,23
 34 474 34 474 35 551 c 128,-1,24
 36 628 36 628 29 706 c 0,25,26
 27 715 27 715 31 722 c 0,27,28
 33 728 33 728 40 733.5 c 128,-1,29
 47 739 47 739 61 741 c 0,30,31
 71 742 71 742 83 744 c 128,-1,32
 95 746 95 746 108 747 c 128,-1,33
 121 748 121 748 133 747 c 128,-1,34
 145 746 145 746 154 743 c 1,35,36
 205 750 205 750 261 743.5 c 128,-1,37
 317 737 317 737 366.5 717 c 128,-1,38
 416 697 416 697 452.5 663.5 c 128,-1,39
 489 630 489 630 501 582 c 0,40,41
 506 561 506 561 507 538 c 128,-1,42
 508 515 508 515 502 490.5 c 128,-1,43
 496 466 496 466 482.5 439.5 c 128,-1,44
 469 413 469 413 446 385 c 1,0,1
187 444 m 1,45,46
 235 442 235 442 268 454 c 128,-1,47
 301 466 301 466 317.5 485.5 c 128,-1,48
 334 505 334 505 333.5 528 c 128,-1,49
 333 551 333 551 316 569 c 128,-1,50
 299 587 299 587 265 596.5 c 128,-1,51
 231 606 231 606 179 599 c 1,52,53
 182 560 182 560 183.5 522 c 128,-1,54
 185 484 185 484 187 444 c 1,45,46
190 154 m 1,55,56
 244 148 244 148 281 159 c 128,-1,57
 318 170 318 170 336.5 189 c 128,-1,58
 355 208 355 208 355.5 230 c 128,-1,59
 356 252 356 252 338 268 c 128,-1,60
 320 284 320 284 283 289.5 c 128,-1,61
 246 295 246 295 190 282 c 1,62,-1
 190 154 l 1,55,56
EndSplineSet
Validated: 33
EndChar

StartChar: C
Encoding: 67 67 34
Width: 554
GlyphClass: 1
Flags: W
LayerCount: 2
Fore
SplineSet
372 535 m 0,0,1
 373 564 373 564 362.5 578.5 c 128,-1,2
 352 593 352 593 336 596.5 c 128,-1,3
 320 600 320 600 301.5 593 c 128,-1,4
 283 586 283 586 268 573 c 0,5,6
 233 543 233 543 211.5 496.5 c 128,-1,7
 190 450 190 450 182.5 399 c 128,-1,8
 175 348 175 348 181.5 297.5 c 128,-1,9
 188 247 188 247 210 210 c 0,10,11
 224 186 224 186 243.5 174.5 c 128,-1,12
 263 163 263 163 285 161.5 c 128,-1,13
 307 160 307 160 328.5 168.5 c 128,-1,14
 350 177 350 177 367 194 c 0,15,16
 393 220 393 220 409 231 c 128,-1,17
 425 242 425 242 445 243 c 0,18,19
 502 243 502 243 520.5 211 c 128,-1,20
 539 179 539 179 523 133 c 0,21,22
 510 97 510 97 483.5 70 c 128,-1,23
 457 43 457 43 422 26.5 c 128,-1,24
 387 10 387 10 347 3.5 c 128,-1,25
 307 -3 307 -3 268 0 c 128,-1,26
 229 3 229 3 194 16.5 c 128,-1,27
 159 30 159 30 134 53 c 0,28,29
 106 79 106 79 85 112.5 c 128,-1,30
 64 146 64 146 50 183.5 c 128,-1,31
 36 221 36 221 29 261.5 c 128,-1,32
 22 302 22 302 22 343 c 0,33,34
 24 435 24 435 61 521 c 128,-1,35
 98 607 98 607 159 671 c 0,36,37
 187 700 187 700 225.5 720.5 c 128,-1,38
 264 741 264 741 304.5 747 c 128,-1,39
 345 753 345 753 384 743 c 128,-1,40
 423 733 423 733 453 701 c 0,41,42
 476 677 476 677 490 646 c 128,-1,43
 504 615 504 615 511 584 c 0,44,45
 515 564 515 564 514.5 546 c 128,-1,46
 514 528 514 528 506 512 c 0,47,48
 495 492 495 492 472 483.5 c 128,-1,49
 449 475 449 475 426.5 478 c 128,-1,50
 404 481 404 481 387.5 495.5 c 128,-1,51
 371 510 371 510 372 535 c 0,0,1
EndSplineSet
Validated: 33
EndChar

StartChar: D
Encoding: 68 68 35
Width: 538
GlyphClass: 1
Flags: W
LayerCount: 2
Fore
SplineSet
166 740 m 1,0,1
 243 738 243 738 303 711.5 c 128,-1,2
 363 685 363 685 406 642 c 128,-1,3
 449 599 449 599 474 543.5 c 128,-1,4
 499 488 499 488 506 427.5 c 128,-1,5
 513 367 513 367 501.5 305.5 c 128,-1,6
 490 244 490 244 460 188.5 c 128,-1,7
 430 133 430 133 380 87.5 c 128,-1,8
 330 42 330 42 261 14 c 0,9,10
 227 0 227 0 189 -7 c 128,-1,11
 151 -14 151 -14 113 -12 c 0,12,13
 84 -10 84 -10 59 2 c 128,-1,14
 34 14 34 14 30 47 c 0,15,16
 29 58 29 58 29 92.5 c 128,-1,17
 29 127 29 127 30 175 c 0,18,19
 30 307 30 307 32.5 439 c 128,-1,20
 35 571 35 571 34 711 c 0,21,22
 33 719 33 719 37 726 c 0,23,24
 40 732 40 732 46.5 737 c 128,-1,25
 53 742 53 742 67 744 c 0,26,27
 77 745 77 745 91 746.5 c 128,-1,28
 105 748 105 748 119 748 c 128,-1,29
 133 748 133 748 145.5 746.5 c 128,-1,30
 158 745 158 745 166 740 c 1,0,1
191 163 m 1,31,32
 244 183 244 183 280.5 219 c 128,-1,33
 317 255 317 255 336.5 298.5 c 128,-1,34
 356 342 356 342 357 388 c 128,-1,35
 358 434 358 434 339.5 475 c 128,-1,36
 321 516 321 516 282 547.5 c 128,-1,37
 243 579 243 579 182 592 c 1,38,39
 187 485 187 485 188.5 378 c 128,-1,40
 190 271 190 271 191 163 c 1,31,32
EndSplineSet
Validated: 33
EndChar

StartChar: E
Encoding: 69 69 36
Width: 513
GlyphClass: 1
Flags: W
LayerCount: 2
Fore
SplineSet
438 153 m 0,0,1
 467 153 467 153 475 142.5 c 128,-1,2
 483 132 483 132 481 100 c 0,3,4
 480 82 480 82 478.5 63.5 c 128,-1,5
 477 45 477 45 473 29.5 c 128,-1,6
 469 14 469 14 463 3 c 128,-1,7
 457 -8 457 -8 447 -11 c 0,8,9
 442 -13 442 -13 427 -11.5 c 128,-1,10
 412 -10 412 -10 391 -8 c 0,11,12
 332 -3 332 -3 272.5 -3 c 128,-1,13
 213 -3 213 -3 147 -8 c 0,14,15
 131 -10 131 -10 115 -10 c 128,-1,16
 99 -10 99 -10 84 -5.5 c 128,-1,17
 69 -1 69 -1 57 9 c 128,-1,18
 45 19 45 19 38 39 c 0,19,20
 34 51 34 51 31.5 87 c 128,-1,21
 29 123 29 123 29 173 c 0,22,23
 29 305 29 305 30 439 c 128,-1,24
 31 573 31 573 41 705 c 0,25,26
 41 730 41 730 61 739.5 c 128,-1,27
 81 749 81 749 106 749 c 0,28,29
 146 751 146 751 191 752.5 c 128,-1,30
 236 754 236 754 281.5 755 c 128,-1,31
 327 756 327 756 371 756 c 128,-1,32
 415 756 415 756 454 756 c 0,33,34
 457 755 457 755 460 753 c 0,35,36
 466 749 466 749 471 740 c 0,37,38
 477 729 477 729 479.5 707 c 128,-1,39
 482 685 482 685 480.5 661.5 c 128,-1,40
 479 638 479 638 472 618.5 c 128,-1,41
 465 599 465 599 453 593 c 0,42,43
 448 592 448 592 431.5 592 c 128,-1,44
 415 592 415 592 392.5 592.5 c 128,-1,45
 370 593 370 593 342.5 594.5 c 128,-1,46
 315 596 315 596 288.5 597.5 c 128,-1,47
 262 599 262 599 237.5 600 c 128,-1,48
 213 601 213 601 196 601 c 1,49,-1
 192 441 l 1,50,-1
 378 442 l 2,51,52
 397 439 397 439 404 417 c 128,-1,53
 411 395 411 395 410.5 368.5 c 128,-1,54
 410 342 410 342 402.5 319.5 c 128,-1,55
 395 297 395 297 385 293 c 0,56,57
 380 291 380 291 358.5 291.5 c 128,-1,58
 337 292 337 292 308 293 c 128,-1,59
 279 294 279 294 247 295.5 c 128,-1,60
 215 297 215 297 190 299 c 1,61,62
 189 260 189 260 189.5 222 c 128,-1,63
 190 184 190 184 192 146 c 1,64,65
 218 149 218 149 249 150.5 c 128,-1,66
 280 152 280 152 312.5 153 c 128,-1,67
 345 154 345 154 377.5 154 c 128,-1,68
 410 154 410 154 438 153 c 0,0,1
EndSplineSet
Validated: 33
EndChar

StartChar: F
Encoding: 70 70 37
Width: 484
GlyphClass: 1
Flags: W
LayerCount: 2
Fore
SplineSet
439 745 m 0,0,1
 446 743 446 743 450 737 c 0,2,3
 454 732 454 732 457 721.5 c 128,-1,4
 460 711 460 711 459 694 c 0,5,6
 458 676 458 676 456 657 c 128,-1,7
 454 638 454 638 450 622.5 c 128,-1,8
 446 607 446 607 439 596 c 128,-1,9
 432 585 432 585 421 583 c 0,10,11
 405 583 405 583 356 589 c 0,12,13
 333 591 333 591 303.5 594 c 128,-1,14
 274 597 274 597 243 600 c 0,15,16
 228 601 228 601 212.5 601.5 c 128,-1,17
 197 602 197 602 183 604 c 1,18,19
 182 563 182 563 182.5 523 c 128,-1,20
 183 483 183 483 184 442 c 1,21,22
 283 454 283 454 382 445 c 0,23,24
 383 445 383 445 385 444 c 256,25,26
 387 443 387 443 391 439 c 0,27,28
 394 433 394 433 396.5 423 c 128,-1,29
 399 413 399 413 398 396 c 0,30,31
 397 378 397 378 395 359 c 128,-1,32
 393 340 393 340 390 324.5 c 128,-1,33
 387 309 387 309 382 298 c 128,-1,34
 377 287 377 287 369 284 c 0,35,36
 364 284 364 284 352.5 284 c 128,-1,37
 341 284 341 284 324 286 c 0,38,39
 290 289 290 289 256.5 291.5 c 128,-1,40
 223 294 223 294 188 292 c 1,41,42
 191 230 191 230 194.5 168.5 c 128,-1,43
 198 107 198 107 203 46 c 0,44,45
 202 34 202 34 198 23 c 0,46,47
 193 14 193 14 184 6 c 128,-1,48
 175 -2 175 -2 158 -5 c 256,49,50
 141 -8 141 -8 122.5 -10.5 c 128,-1,51
 104 -13 104 -13 87.5 -10 c 128,-1,52
 71 -7 71 -7 58.5 4 c 128,-1,53
 46 15 46 15 41 38 c 0,54,55
 39 49 39 49 36.5 83.5 c 128,-1,56
 34 118 34 118 32 169 c 0,57,58
 28 306 28 306 31 442 c 128,-1,59
 34 578 34 578 41 716 c 0,60,61
 41 724 41 724 44 730 c 0,62,63
 46 735 46 735 52 740.5 c 128,-1,64
 58 746 58 746 69 748 c 2,65,-1
 70 748 l 1,66,67
 163 756 163 756 254.5 755.5 c 128,-1,68
 346 755 346 755 439 745 c 0,0,1
EndSplineSet
Validated: 33
EndChar

StartChar: G
Encoding: 71 71 38
Width: 613
GlyphClass: 1
Flags: W
LayerCount: 2
Fore
SplineSet
579 354 m 0,0,1
 581 331 581 331 582.5 307 c 128,-1,2
 584 283 584 283 583 259 c 0,3,4
 581 204 581 204 560.5 153 c 128,-1,5
 540 102 540 102 501 63 c 0,6,7
 466 28 466 28 423 12.5 c 128,-1,8
 380 -3 380 -3 334.5 -3 c 128,-1,9
 289 -3 289 -3 244 12.5 c 128,-1,10
 199 28 199 28 161 56 c 0,11,12
 118 89 118 89 88.5 133.5 c 128,-1,13
 59 178 59 178 44 229.5 c 128,-1,14
 29 281 29 281 27 336 c 128,-1,15
 25 391 25 391 35.5 445 c 128,-1,16
 46 499 46 499 69 548.5 c 128,-1,17
 92 598 92 598 126 639 c 0,18,19
 155 674 155 674 193 698 c 128,-1,20
 231 722 231 722 273 734.5 c 128,-1,21
 315 747 315 747 358 746.5 c 128,-1,22
 401 746 401 746 439.5 730 c 128,-1,23
 478 714 478 714 508.5 681.5 c 128,-1,24
 539 649 539 649 557 599 c 0,25,26
 565 574 565 574 568 547.5 c 128,-1,27
 571 521 571 521 571 493 c 0,28,29
 569 480 569 480 562.5 469.5 c 128,-1,30
 556 459 556 459 542 457 c 0,31,32
 535 457 535 457 524.5 456 c 128,-1,33
 514 455 514 455 502 454.5 c 128,-1,34
 490 454 490 454 479 454.5 c 128,-1,35
 468 455 468 455 460 457 c 0,36,37
 443 460 443 460 438 473 c 128,-1,38
 433 486 433 486 431 505 c 0,39,40
 431 550 431 550 408.5 575 c 128,-1,41
 386 600 386 600 354 603 c 0,42,43
 331 605 331 605 310.5 597 c 128,-1,44
 290 589 290 589 272.5 575 c 128,-1,45
 255 561 255 561 240.5 542 c 128,-1,46
 226 523 226 523 216 503 c 0,47,48
 202 477 202 477 195 447 c 128,-1,49
 188 417 188 417 186 386 c 0,50,51
 184 353 184 353 187 320 c 128,-1,52
 190 287 190 287 204 255 c 0,53,54
 212 237 212 237 223.5 219 c 128,-1,55
 235 201 235 201 250 186.5 c 128,-1,56
 265 172 265 172 283.5 163 c 128,-1,57
 302 154 302 154 325 153 c 0,58,59
 365 153 365 153 390.5 176.5 c 128,-1,60
 416 200 416 200 418 234 c 1,61,-1
 282 224 l 2,62,63
 277 225 277 225 272 230 c 256,64,65
 267 235 267 235 262.5 244 c 128,-1,66
 258 253 258 253 256 270 c 0,67,68
 253 287 253 287 250.5 305 c 128,-1,69
 248 323 248 323 248.5 338.5 c 128,-1,70
 249 354 249 354 253 365.5 c 128,-1,71
 257 377 257 377 267 381 c 0,72,73
 271 383 271 383 286.5 384 c 128,-1,74
 302 385 302 385 323.5 385.5 c 128,-1,75
 345 386 345 386 371.5 386 c 128,-1,76
 398 386 398 386 424 386 c 256,77,78
 450 386 450 386 475 385.5 c 128,-1,79
 500 385 500 385 520 385 c 2,80,-1
 562 385 l 2,81,82
 565 385 565 385 569 382 c 0,83,84
 572 379 572 379 574.5 373 c 128,-1,85
 577 367 577 367 579 354 c 0,0,1
EndSplineSet
Validated: 33
EndChar

StartChar: H
Encoding: 72 72 39
Width: 623
GlyphClass: 1
Flags: W
LayerCount: 2
Fore
SplineSet
491 750 m 0,0,1
 505 748 505 748 523.5 746 c 128,-1,2
 542 744 542 744 558.5 739.5 c 128,-1,3
 575 735 575 735 586 728 c 128,-1,4
 597 721 597 721 596 709 c 0,5,6
 579 544 579 544 577.5 380 c 128,-1,7
 576 216 576 216 589 50 c 0,8,9
 588 47 588 47 588 43 c 0,10,11
 587 40 587 40 587 36.5 c 128,-1,12
 587 33 587 33 585 28 c 0,13,14
 579 19 579 19 570 11 c 128,-1,15
 561 3 561 3 544 -2 c 0,16,17
 527 -5 527 -5 508 -7 c 128,-1,18
 489 -9 489 -9 472.5 -5.5 c 128,-1,19
 456 -2 456 -2 443.5 8.5 c 128,-1,20
 431 19 431 19 426 42 c 0,21,22
 423 58 423 58 421.5 75.5 c 128,-1,23
 420 93 420 93 419 116 c 128,-1,24
 418 139 418 139 417.5 169 c 128,-1,25
 417 199 417 199 417 241 c 1,26,27
 397 241 397 241 368.5 243 c 128,-1,28
 340 245 340 245 309 247.5 c 128,-1,29
 278 250 278 250 248 252.5 c 128,-1,30
 218 255 218 255 194 257 c 1,31,32
 193 203 193 203 192.5 149 c 128,-1,33
 192 95 192 95 192 41 c 0,34,35
 191 29 191 29 185 19 c 0,36,37
 180 11 180 11 169.5 3.5 c 128,-1,38
 159 -4 159 -4 142 -5 c 0,39,40
 124 -6 124 -6 105 -6 c 128,-1,41
 86 -6 86 -6 70 -0.5 c 128,-1,42
 54 5 54 5 43 16.5 c 128,-1,43
 32 28 32 28 30 51 c 0,44,45
 29 57 29 57 29.5 70 c 128,-1,46
 30 83 30 83 30 101 c 0,47,48
 30 173 30 173 32 245 c 128,-1,49
 34 317 34 317 36.5 392.5 c 128,-1,50
 39 468 39 468 41 548 c 128,-1,51
 43 628 43 628 44 715 c 0,52,53
 43 724 43 724 47 731 c 0,54,55
 50 737 50 737 56.5 742 c 128,-1,56
 63 747 63 747 77 748 c 0,57,58
 90 749 90 749 108.5 750 c 128,-1,59
 127 751 127 751 144 749.5 c 128,-1,60
 161 748 161 748 173 742.5 c 128,-1,61
 185 737 185 737 186 724 c 0,62,63
 190 643 190 643 191.5 564 c 128,-1,64
 193 485 193 485 194 405 c 1,65,-1
 423 404 l 1,66,-1
 423 407 l 1,67,68
 428 485 428 485 436 563 c 128,-1,69
 444 641 444 641 454 722 c 0,70,71
 455 731 455 731 459 737 c 0,72,73
 463 742 463 742 470 746.5 c 128,-1,74
 477 751 477 751 491 750 c 0,0,1
EndSplineSet
Validated: 33
EndChar

StartChar: I
Encoding: 73 73 40
Width: 221
GlyphClass: 1
Flags: W
LayerCount: 2
Fore
SplineSet
190 44 m 2,0,1
 188 32 188 32 183 22 c 0,2,3
 178 14 178 14 168 6.5 c 128,-1,4
 158 -1 158 -1 141 -3 c 0,5,6
 123 -5 123 -5 104.5 -6 c 128,-1,7
 86 -7 86 -7 70 -2.5 c 128,-1,8
 54 2 54 2 42.5 13.5 c 128,-1,9
 31 25 31 25 28 48 c 0,10,11
 26 59 26 59 26.5 94 c 128,-1,12
 27 129 27 129 28 178 c 128,-1,13
 29 227 29 227 31 286 c 128,-1,14
 33 345 33 345 35 405 c 0,15,16
 40 546 40 546 48 717 c 0,17,18
 46 726 46 726 50 733 c 0,19,20
 52 739 52 739 59 743.5 c 128,-1,21
 66 748 66 748 80 749 c 0,22,23
 94 749 94 749 112.5 749.5 c 128,-1,24
 131 750 131 750 148 748 c 128,-1,25
 165 746 165 746 177 740 c 128,-1,26
 189 734 189 734 189 722 c 2,27,-1
 190 44 l 2,0,1
EndSplineSet
Validated: 33
EndChar

StartChar: J
Encoding: 74 74 41
Width: 549
GlyphClass: 1
Flags: W
LayerCount: 2
Fore
SplineSet
476 718 m 0,0,1
 489 666 489 666 500.5 604 c 128,-1,2
 512 542 512 542 517.5 477.5 c 128,-1,3
 523 413 523 413 521.5 348 c 128,-1,4
 520 283 520 283 508 225 c 0,5,6
 498 179 498 179 478 138 c 128,-1,7
 458 97 458 97 428 65.5 c 128,-1,8
 398 34 398 34 359.5 15 c 128,-1,9
 321 -4 321 -4 274 -7 c 0,10,11
 229 -9 229 -9 190.5 4.5 c 128,-1,12
 152 18 152 18 121.5 43.5 c 128,-1,13
 91 69 91 69 70 103.5 c 128,-1,14
 49 138 49 138 39 178 c 0,15,16
 31 211 31 211 29 248.5 c 128,-1,17
 27 286 27 286 31 323.5 c 128,-1,18
 35 361 35 361 45 397 c 128,-1,19
 55 433 55 433 70 463 c 0,20,21
 79 481 79 481 95.5 488 c 128,-1,22
 112 495 112 495 130 494.5 c 128,-1,23
 148 494 148 494 165.5 487.5 c 128,-1,24
 183 481 183 481 195 471 c 0,25,26
 209 460 209 460 211 447 c 128,-1,27
 213 434 213 434 210 420 c 0,28,29
 207 405 207 405 203 384 c 128,-1,30
 199 363 199 363 196 340 c 128,-1,31
 193 317 193 317 191 293.5 c 128,-1,32
 189 270 189 270 190 248 c 0,33,34
 193 195 193 195 215.5 171.5 c 128,-1,35
 238 148 238 148 265.5 149.5 c 128,-1,36
 293 151 293 151 319 177 c 128,-1,37
 345 203 345 203 356 249 c 0,38,39
 369 305 369 305 371.5 360 c 128,-1,40
 374 415 374 415 370 468.5 c 128,-1,41
 366 522 366 522 357.5 574 c 128,-1,42
 349 626 349 626 340 677 c 0,43,44
 335 694 335 694 338 712 c 128,-1,45
 341 730 341 730 359 737 c 0,46,47
 372 741 372 741 389.5 746.5 c 128,-1,48
 407 752 407 752 424 753 c 0,49,50
 443 755 443 755 457 745.5 c 128,-1,51
 471 736 471 736 476 718 c 0,0,1
EndSplineSet
Validated: 33
EndChar

StartChar: K
Encoding: 75 75 42
Width: 577
GlyphClass: 1
Flags: W
LayerCount: 2
Fore
SplineSet
479 574 m 0,0,1
 443 540 443 540 405.5 507 c 128,-1,2
 368 474 368 474 328 440 c 1,3,4
 389 350 389 350 443 256.5 c 128,-1,5
 497 163 497 163 539 63 c 0,6,7
 543 48 543 48 530 35.5 c 128,-1,8
 517 23 517 23 505 16 c 0,9,10
 489 8 489 8 472 1 c 128,-1,11
 455 -6 455 -6 439 -9.5 c 128,-1,12
 423 -13 423 -13 409.5 -11 c 128,-1,13
 396 -9 396 -9 389 2 c 0,14,15
 385 8 385 8 379 22 c 0,16,17
 341 104 341 104 301.5 186.5 c 128,-1,18
 262 269 262 269 215 351 c 1,19,20
 212 348 212 348 208.5 345.5 c 128,-1,21
 205 343 205 343 201 340 c 0,22,23
 200 263 200 263 199.5 187 c 128,-1,24
 199 111 199 111 194 35 c 0,25,26
 192 22 192 22 186 12 c 0,27,28
 181 3 181 3 170.5 -4 c 128,-1,29
 160 -11 160 -11 143 -13 c 0,30,31
 126 -13 126 -13 107.5 -12.5 c 128,-1,32
 89 -12 89 -12 73 -7 c 128,-1,33
 57 -2 57 -2 46 10 c 128,-1,34
 35 22 35 22 32 45 c 0,35,36
 32 56 32 56 33.5 91 c 128,-1,37
 35 126 35 126 37 174 c 0,38,39
 42 280 42 280 46.5 388 c 128,-1,40
 51 496 51 496 51 617 c 2,41,-1
 51 714 l 2,42,43
 49 722 49 722 53 729 c 0,44,45
 55 735 55 735 62 740.5 c 128,-1,46
 69 746 69 746 83 748 c 0,47,48
 97 749 97 749 115.5 750 c 128,-1,49
 134 751 134 751 151 749.5 c 128,-1,50
 168 748 168 748 180 743 c 128,-1,51
 192 738 192 738 193 726 c 0,52,53
 195 676 195 676 197 627 c 128,-1,54
 199 578 199 578 200 529 c 1,55,56
 257 583 257 583 312.5 638 c 128,-1,57
 368 693 368 693 421 751 c 0,58,59
 427 755 427 755 436 757 c 0,60,61
 444 758 444 758 454.5 756 c 128,-1,62
 465 754 465 754 479 743 c 256,63,64
 493 732 493 732 507.5 720.5 c 128,-1,65
 522 709 522 709 532.5 696 c 128,-1,66
 543 683 543 683 546 669.5 c 128,-1,67
 549 656 549 656 541 643 c 0,68,69
 536 635 536 635 520 617 c 128,-1,70
 504 599 504 599 479 574 c 0,0,1
EndSplineSet
Validated: 33
EndChar

StartChar: L
Encoding: 76 76 43
Width: 463
GlyphClass: 1
Flags: W
LayerCount: 2
Fore
SplineSet
435 114 m 0,0,1
 436 97 436 97 436 78 c 128,-1,2
 436 59 436 59 434 42.5 c 128,-1,3
 432 26 432 26 427 14.5 c 128,-1,4
 422 3 422 3 412 0 c 0,5,6
 407 -2 407 -2 392.5 -2 c 128,-1,7
 378 -2 378 -2 358 -1 c 0,8,9
 304 1 304 1 246 -1.5 c 128,-1,10
 188 -4 188 -4 127 -4 c 0,11,12
 112 -4 112 -4 96.5 -3.5 c 128,-1,13
 81 -3 81 -3 68 2.5 c 128,-1,14
 55 8 55 8 45 19 c 128,-1,15
 35 30 35 30 31 50 c 0,16,17
 30 55 30 55 29.5 85.5 c 128,-1,18
 29 116 29 116 29 161.5 c 128,-1,19
 29 207 29 207 29 264 c 128,-1,20
 29 321 29 321 29.5 380.5 c 128,-1,21
 30 440 30 440 30.5 497.5 c 128,-1,22
 31 555 31 555 31 601 c 128,-1,23
 31 647 31 647 31.5 678 c 128,-1,24
 32 709 32 709 32 715 c 0,25,26
 31 724 31 724 34 731 c 0,27,28
 36 737 36 737 43 742 c 128,-1,29
 50 747 50 747 64 748 c 256,30,31
 78 749 78 749 99.5 749.5 c 128,-1,32
 121 750 121 750 141 748.5 c 128,-1,33
 161 747 161 747 176 741 c 128,-1,34
 191 735 191 735 192 723 c 0,35,36
 194 579 194 579 194.5 436.5 c 128,-1,37
 195 294 195 294 194 151 c 1,38,39
 245 156 245 156 297.5 159 c 128,-1,40
 350 162 350 162 413 163 c 0,41,42
 420 163 420 163 424.5 157.5 c 128,-1,43
 429 152 429 152 431 144 c 128,-1,44
 433 136 433 136 434 128 c 128,-1,45
 435 120 435 120 435 114 c 0,0,1
EndSplineSet
Validated: 33
EndChar

StartChar: M
Encoding: 77 77 44
Width: 761
GlyphClass: 1
Flags: W
LayerCount: 2
Fore
SplineSet
728 45 m 2,0,1
 726 33 726 33 721 23 c 0,2,3
 716 15 716 15 706 7 c 128,-1,4
 696 -1 696 -1 679 -3 c 256,5,6
 662 -5 662 -5 643.5 -6 c 128,-1,7
 625 -7 625 -7 609 -2.5 c 128,-1,8
 593 2 593 2 581 13.5 c 128,-1,9
 569 25 569 25 566 48 c 0,10,11
 565 58 565 58 565 89.5 c 128,-1,12
 565 121 565 121 565.5 165.5 c 128,-1,13
 566 210 566 210 567 264.5 c 128,-1,14
 568 319 568 319 570 375 c 1,15,16
 554 343 554 343 538.5 313 c 128,-1,17
 523 283 523 283 509 257 c 128,-1,18
 495 231 495 231 483 209.5 c 128,-1,19
 471 188 471 188 463 174 c 0,20,21
 457 164 457 164 452 155.5 c 128,-1,22
 447 147 447 147 436 141 c 0,23,24
 424 134 424 134 408.5 130.5 c 128,-1,25
 393 127 393 127 377.5 128.5 c 128,-1,26
 362 130 362 130 348 135.5 c 128,-1,27
 334 141 334 141 325 152 c 0,28,29
 319 159 319 159 305.5 182.5 c 128,-1,30
 292 206 292 206 274 239.5 c 128,-1,31
 256 273 256 273 234.5 314 c 128,-1,32
 213 355 213 355 192 398 c 1,33,-1
 195 45 l 2,34,35
 193 33 193 33 188 23 c 0,36,37
 183 15 183 15 173 7 c 128,-1,38
 163 -1 163 -1 146 -3 c 0,39,40
 128 -5 128 -5 109.5 -6 c 128,-1,41
 91 -7 91 -7 75 -2.5 c 128,-1,42
 59 2 59 2 47 13.5 c 128,-1,43
 35 25 35 25 32 48 c 0,44,45
 30 59 30 59 30 93.5 c 128,-1,46
 30 128 30 128 31 177 c 128,-1,47
 32 226 32 226 33.5 285 c 128,-1,48
 35 344 35 344 37 404 c 0,49,50
 41 545 41 545 49 716 c 0,51,52
 48 725 48 725 51 732 c 0,53,54
 53 738 53 738 60 743 c 128,-1,55
 67 748 67 748 81 749 c 0,56,57
 89 749 89 749 105 750 c 128,-1,58
 121 751 121 751 138 749.5 c 128,-1,59
 155 748 155 748 170 744 c 128,-1,60
 185 740 185 740 191 731 c 0,61,62
 239 640 239 640 287.5 550 c 128,-1,63
 336 460 336 460 387 370 c 1,64,65
 436 458 436 458 484 546 c 128,-1,66
 532 634 532 634 578 723 c 0,67,68
 581 732 581 732 592.5 740 c 128,-1,69
 604 748 604 748 615 749 c 0,70,71
 628 749 628 749 646.5 750 c 128,-1,72
 665 751 665 751 681.5 749 c 128,-1,73
 698 747 698 747 710 741 c 128,-1,74
 722 735 722 735 723 722 c 2,75,-1
 728 45 l 2,0,1
EndSplineSet
Validated: 33
EndChar

StartChar: N
Encoding: 78 78 45
Width: 643
GlyphClass: 1
Flags: W
LayerCount: 2
Fore
SplineSet
617 695 m 0,0,1
 618 684 618 684 618 649.5 c 128,-1,2
 618 615 618 615 617.5 566 c 128,-1,3
 617 517 617 517 615.5 458.5 c 128,-1,4
 614 400 614 400 612 341 c 0,5,6
 608 202 608 202 601 33 c 0,7,8
 602 24 602 24 598 17 c 0,9,10
 595 11 595 11 587.5 6 c 128,-1,11
 580 1 580 1 566 1 c 0,12,13
 551 1 551 1 531 -0.5 c 128,-1,14
 511 -2 511 -2 490.5 -1 c 128,-1,15
 470 0 470 0 452.5 6.5 c 128,-1,16
 435 13 435 13 424 29 c 0,17,18
 416 39 416 39 395.5 72.5 c 128,-1,19
 375 106 375 106 351 153 c 0,20,21
 311 230 311 230 270 306.5 c 128,-1,22
 229 383 229 383 187 465 c 1,23,-1
 194 46 l 2,24,25
 193 34 193 34 188 24 c 0,26,27
 183 15 183 15 173.5 7 c 128,-1,28
 164 -1 164 -1 147 -3 c 0,29,30
 129 -5 129 -5 110.5 -6 c 128,-1,31
 92 -7 92 -7 75.5 -3 c 128,-1,32
 59 1 59 1 47.5 12 c 128,-1,33
 36 23 36 23 33 46 c 0,34,35
 31 57 31 57 30.5 92 c 128,-1,36
 30 127 30 127 30 176 c 128,-1,37
 30 225 30 225 31 284 c 128,-1,38
 32 343 32 343 33 403 c 0,39,40
 36 544 36 544 40 715 c 0,41,42
 39 724 39 724 43 731 c 0,43,44
 46 737 46 737 52.5 742 c 128,-1,45
 59 747 59 747 73 748 c 0,46,47
 81 749 81 749 100.5 750 c 128,-1,48
 120 751 120 751 140.5 751 c 128,-1,49
 161 751 161 751 178 748 c 128,-1,50
 195 745 195 745 199 738 c 0,51,52
 264 631 264 631 326.5 524 c 128,-1,53
 389 417 389 417 450 308 c 1,54,-1
 455 700 l 2,55,56
 456 712 456 712 462 722 c 0,57,58
 467 730 467 730 477 738 c 128,-1,59
 487 746 487 746 505 748 c 0,60,61
 523 749 523 749 541.5 749.5 c 128,-1,62
 560 750 560 750 576 745.5 c 128,-1,63
 592 741 592 741 603 729.5 c 128,-1,64
 614 718 614 718 617 695 c 0,0,1
EndSplineSet
Validated: 33
EndChar

StartChar: O
Encoding: 79 79 46
Width: 675
GlyphClass: 1
Flags: W
LayerCount: 2
Fore
SplineSet
339 -6 m 0,0,1
 275 -6 275 -6 217.5 24 c 128,-1,2
 160 54 160 54 116 111 c 0,3,4
 74 165 74 165 52.5 232 c 128,-1,5
 31 299 31 299 31 371 c 0,6,7
 31 446 31 446 52.5 512.5 c 128,-1,8
 74 579 74 579 116 632 c 0,9,10
 160 689 160 689 217.5 719.5 c 128,-1,11
 275 750 275 750 339 750 c 0,12,13
 404 750 404 750 461 719.5 c 128,-1,14
 518 689 518 689 562 632 c 0,15,16
 604 579 604 579 625 512.5 c 128,-1,17
 646 446 646 446 646 371 c 0,18,19
 646 299 646 299 625 232 c 128,-1,20
 604 165 604 165 562 111 c 0,21,22
 518 54 518 54 461 24 c 128,-1,23
 404 -6 404 -6 339 -6 c 0,0,1
339 606 m 256,24,25
 306 606 306 606 276.5 587.5 c 128,-1,26
 247 569 247 569 224.5 536.5 c 128,-1,27
 202 504 202 504 189 461.5 c 128,-1,28
 176 419 176 419 176 371 c 0,29,30
 176 324 176 324 189 281.5 c 128,-1,31
 202 239 202 239 224.5 207 c 128,-1,32
 247 175 247 175 276.5 156.5 c 128,-1,33
 306 138 306 138 339 138 c 256,34,35
 372 138 372 138 402 156.5 c 128,-1,36
 432 175 432 175 454.5 207 c 128,-1,37
 477 239 477 239 490 281.5 c 128,-1,38
 503 324 503 324 503 371 c 0,39,40
 503 419 503 419 490 461.5 c 128,-1,41
 477 504 477 504 454.5 536.5 c 128,-1,42
 432 569 432 569 402 587.5 c 128,-1,43
 372 606 372 606 339 606 c 256,24,25
EndSplineSet
Validated: 1
EndChar

StartChar: P
Encoding: 80 80 47
Width: 545
GlyphClass: 1
Flags: W
LayerCount: 2
Fore
SplineSet
400 703 m 0,0,1
 465 666 465 666 493 607.5 c 128,-1,2
 521 549 521 549 518 485 c 128,-1,3
 515 421 515 421 482.5 359 c 128,-1,4
 450 297 450 297 394 254 c 0,5,6
 351 221 351 221 299.5 199.5 c 128,-1,7
 248 178 248 178 191 170 c 1,8,9
 190 138 190 138 190 106.5 c 128,-1,10
 190 75 190 75 190 43 c 0,11,12
 188 31 188 31 182 21 c 0,13,14
 177 13 177 13 167 5 c 128,-1,15
 157 -3 157 -3 140 -4 c 0,16,17
 122 -6 122 -6 103 -6 c 128,-1,18
 84 -6 84 -6 68 -1.5 c 128,-1,19
 52 3 52 3 41 15 c 128,-1,20
 30 27 30 27 27 50 c 0,21,22
 26 61 26 61 26.5 95.5 c 128,-1,23
 27 130 27 130 28.5 178.5 c 128,-1,24
 30 227 30 227 31.5 286 c 128,-1,25
 33 345 33 345 35 405 c 256,26,27
 37 465 37 465 38.5 520 c 128,-1,28
 40 575 40 575 42 619 c 0,29,30
 43 670 43 670 44 715 c 0,31,32
 43 724 43 724 47 731 c 0,33,34
 50 737 50 737 56.5 742 c 128,-1,35
 63 747 63 747 77 748 c 0,36,37
 91 750 91 750 110 750.5 c 128,-1,38
 129 751 129 751 146 749 c 0,39,40
 186 750 186 750 223 749 c 0,41,42
 272 747 272 747 317 736 c 128,-1,43
 362 725 362 725 400 703 c 0,0,1
190 344 m 1,44,45
 243 348 243 348 280 368.5 c 128,-1,46
 317 389 317 389 336.5 417 c 128,-1,47
 356 445 356 445 357 476.5 c 128,-1,48
 358 508 358 508 340 533.5 c 128,-1,49
 322 559 322 559 284.5 574 c 128,-1,50
 247 589 247 589 189 585 c 1,51,52
 190 528 190 528 190 464.5 c 128,-1,53
 190 401 190 401 190 344 c 1,44,45
EndSplineSet
Validated: 33
EndChar

StartChar: Q
Encoding: 81 81 48
Width: 686
GlyphClass: 1
Flags: W
LayerCount: 2
Fore
SplineSet
654 99 m 2,0,1
 657 94 657 94 656 87 c 0,2,3
 655 81 655 81 651 71.5 c 128,-1,4
 647 62 647 62 635 50 c 0,5,6
 623 37 623 37 609.5 23.5 c 128,-1,7
 596 10 596 10 583 0.5 c 128,-1,8
 570 -9 570 -9 558 -13 c 128,-1,9
 546 -17 546 -17 537 -11 c 0,10,11
 530 -6 530 -6 518 7.5 c 128,-1,12
 506 21 506 21 489 41 c 1,13,14
 421 -6 421 -6 339 -6 c 0,15,16
 273 -6 273 -6 216.5 24 c 128,-1,17
 160 54 160 54 116 111 c 0,18,19
 75 165 75 165 53.5 232 c 128,-1,20
 32 299 32 299 32 371 c 0,21,22
 32 446 32 446 53.5 512.5 c 128,-1,23
 75 579 75 579 116 632 c 0,24,25
 160 689 160 689 216.5 719.5 c 128,-1,26
 273 750 273 750 339 750 c 0,27,28
 403 750 403 750 460.5 719.5 c 128,-1,29
 518 689 518 689 562 632 c 0,30,31
 603 579 603 579 624.5 512.5 c 128,-1,32
 646 446 646 446 646 371 c 0,33,34
 646 315 646 315 633.5 262.5 c 128,-1,35
 621 210 621 210 595 163 c 1,36,-1
 654 99 l 2,0,1
339 138 m 0,37,38
 371 138 371 138 397 154 c 1,39,40
 368 190 368 190 349 216 c 0,41,42
 338 230 338 230 329 242 c 0,43,44
 326 246 326 246 326 250 c 256,45,46
 326 254 326 254 328.5 260 c 128,-1,47
 331 266 331 266 341 276 c 256,48,49
 351 286 351 286 365 299 c 128,-1,50
 379 312 379 312 391.5 322.5 c 128,-1,51
 404 333 404 333 414.5 339 c 128,-1,52
 425 345 425 345 430 341 c 2,53,-1
 488 279 l 1,54,55
 494 301 494 301 497.5 324.5 c 128,-1,56
 501 348 501 348 501 371 c 0,57,58
 501 419 501 419 488 461.5 c 128,-1,59
 475 504 475 504 452.5 536.5 c 128,-1,60
 430 569 430 569 401 587.5 c 128,-1,61
 372 606 372 606 339 606 c 256,62,63
 306 606 306 606 276 587.5 c 128,-1,64
 246 569 246 569 224 536.5 c 128,-1,65
 202 504 202 504 189 461.5 c 128,-1,66
 176 419 176 419 176 371 c 0,67,68
 176 324 176 324 189 281.5 c 128,-1,69
 202 239 202 239 224 207 c 128,-1,70
 246 175 246 175 276 156.5 c 128,-1,71
 306 138 306 138 339 138 c 0,37,38
EndSplineSet
Validated: 1
EndChar

StartChar: R
Encoding: 82 82 49
Width: 547
GlyphClass: 1
Flags: W
LayerCount: 2
Fore
SplineSet
512 549 m 0,0,1
 523 495 523 495 509.5 448 c 128,-1,2
 496 401 496 401 467 362.5 c 128,-1,3
 438 324 438 324 397 294.5 c 128,-1,4
 356 265 356 265 312 246 c 1,5,6
 328 226 328 226 349.5 206.5 c 128,-1,7
 371 187 371 187 394 171.5 c 128,-1,8
 417 156 417 156 440 144 c 128,-1,9
 463 132 463 132 481 127 c 0,10,11
 496 121 496 121 502 107 c 128,-1,12
 508 93 508 93 507 75.5 c 128,-1,13
 506 58 506 58 498.5 40 c 128,-1,14
 491 22 491 22 479.5 8 c 128,-1,15
 468 -6 468 -6 453 -13 c 128,-1,16
 438 -20 438 -20 422 -16 c 0,17,18
 419 -15 419 -15 411.5 -13.5 c 128,-1,19
 404 -12 404 -12 393 -8 c 0,20,21
 333 14 333 14 284.5 60 c 128,-1,22
 236 106 236 106 191 161 c 0,23,24
 191 162 191 162 188 165 c 1,25,26
 188 135 188 135 187.5 104.5 c 128,-1,27
 187 74 187 74 187 43 c 0,28,29
 186 31 186 31 180 21 c 0,30,31
 175 13 175 13 164.5 5 c 128,-1,32
 154 -3 154 -3 137 -4 c 0,33,34
 120 -6 120 -6 101.5 -6 c 128,-1,35
 83 -6 83 -6 67 -1.5 c 128,-1,36
 51 3 51 3 40 15 c 128,-1,37
 29 27 29 27 26 50 c 0,38,39
 24 61 24 61 24 95.5 c 128,-1,40
 24 130 24 130 25.5 178.5 c 128,-1,41
 27 227 27 227 29.5 286 c 128,-1,42
 32 345 32 345 34 405 c 256,43,44
 36 465 36 465 36.5 520 c 128,-1,45
 37 575 37 575 39 619 c 0,46,47
 40 670 40 670 42 715 c 0,48,49
 41 724 41 724 44 731 c 0,50,51
 46 737 46 737 53 742 c 128,-1,52
 60 747 60 747 74 748 c 0,53,54
 88 750 88 750 107.5 750.5 c 128,-1,55
 127 751 127 751 145 749 c 0,56,57
 182 750 182 750 222 749 c 0,58,59
 267 747 267 747 314 735 c 128,-1,60
 361 723 361 723 401.5 698.5 c 128,-1,61
 442 674 442 674 472 637 c 128,-1,62
 502 600 502 600 512 549 c 0,0,1
189 357 m 1,63,64
 239 360 239 360 275.5 379.5 c 128,-1,65
 312 399 312 399 331.5 426 c 128,-1,66
 351 453 351 453 353 483 c 128,-1,67
 355 513 355 513 338 537.5 c 128,-1,68
 321 562 321 562 283.5 576 c 128,-1,69
 246 590 246 590 186 585 c 1,70,71
 187 528 187 528 187.5 471 c 128,-1,72
 188 414 188 414 189 357 c 1,63,64
EndSplineSet
Validated: 33
EndChar

StartChar: S
Encoding: 83 83 50
Width: 561
GlyphClass: 1
Flags: W
LayerCount: 2
Fore
SplineSet
246 495 m 0,0,1
 276 470 276 470 311.5 451.5 c 128,-1,2
 347 433 347 433 382 414.5 c 128,-1,3
 417 396 417 396 448 373 c 128,-1,4
 479 350 479 350 500 317 c 0,5,6
 519 286 519 286 525.5 250.5 c 128,-1,7
 532 215 532 215 526.5 180 c 128,-1,8
 521 145 521 145 503.5 112 c 128,-1,9
 486 79 486 79 458 54 c 0,10,11
 416 20 416 20 364 6.5 c 128,-1,12
 312 -7 312 -7 257 -4 c 0,13,14
 218 -2 218 -2 180.5 10 c 128,-1,15
 143 22 143 22 111.5 43.5 c 128,-1,16
 80 65 80 65 58 96.5 c 128,-1,17
 36 128 36 128 27 169 c 0,18,19
 25 182 25 182 24 194.5 c 128,-1,20
 23 207 23 207 25 219 c 0,21,22
 30 239 30 239 43 255 c 128,-1,23
 56 271 56 271 72 283 c 128,-1,24
 88 295 88 295 103.5 301.5 c 128,-1,25
 119 308 119 308 129 310 c 0,26,27
 139 311 139 311 145.5 308.5 c 128,-1,28
 152 306 152 306 155 301.5 c 128,-1,29
 158 297 158 297 159 292.5 c 128,-1,30
 160 288 160 288 160 286 c 0,31,32
 161 266 161 266 168.5 244.5 c 128,-1,33
 176 223 176 223 188 204 c 128,-1,34
 200 185 200 185 217 170 c 128,-1,35
 234 155 234 155 255 149 c 0,36,37
 277 142 277 142 299 148 c 0,38,39
 328 156 328 156 341 174.5 c 128,-1,40
 354 193 354 193 353 211 c 0,41,42
 352 228 352 228 341.5 245.5 c 128,-1,43
 331 263 331 263 313 279 c 0,44,45
 280 307 280 307 240 330 c 128,-1,46
 200 353 200 353 162 378 c 128,-1,47
 124 403 124 403 92.5 434 c 128,-1,48
 61 465 61 465 45 510 c 0,49,50
 26 570 26 570 42.5 616 c 128,-1,51
 59 662 59 662 97 693 c 128,-1,52
 135 724 135 724 186.5 739.5 c 128,-1,53
 238 755 238 755 288 752 c 0,54,55
 331 750 331 750 371.5 736.5 c 128,-1,56
 412 723 412 723 445.5 700.5 c 128,-1,57
 479 678 479 678 502.5 647 c 128,-1,58
 526 616 526 616 534 579 c 0,59,60
 538 556 538 556 527 536.5 c 128,-1,61
 516 517 516 517 498.5 502.5 c 128,-1,62
 481 488 481 488 460.5 480.5 c 128,-1,63
 440 473 440 473 426 476 c 0,64,65
 407 483 407 483 397 507 c 0,66,67
 372 567 372 567 339.5 590.5 c 128,-1,68
 307 614 307 614 278.5 613 c 128,-1,69
 250 612 250 612 231 591.5 c 128,-1,70
 212 571 212 571 214 542 c 0,71,72
 215 531 215 531 223.5 518.5 c 128,-1,73
 232 506 232 506 246 495 c 0,0,1
EndSplineSet
Validated: 33
EndChar

StartChar: T
Encoding: 84 84 51
Width: 550
GlyphClass: 1
Flags: W
LayerCount: 2
Fore
SplineSet
521 712 m 256,0,1
 523 695 523 695 525 676 c 128,-1,2
 527 657 527 657 525 641 c 128,-1,3
 523 625 523 625 516 613 c 128,-1,4
 509 601 509 601 494 598 c 0,5,6
 483 595 483 595 442.5 594.5 c 128,-1,7
 402 594 402 594 348 595 c 1,8,9
 353 455 353 455 355.5 317 c 128,-1,10
 358 179 358 179 358 39 c 0,11,12
 356 28 356 28 351 19 c 0,13,14
 346 11 346 11 336 4.5 c 128,-1,15
 326 -2 326 -2 309 -3 c 0,16,17
 291 -5 291 -5 272.5 -5.5 c 128,-1,18
 254 -6 254 -6 238 -2.5 c 128,-1,19
 222 1 222 1 210.5 11.5 c 128,-1,20
 199 22 199 22 196 42 c 0,21,22
 194 52 194 52 194 83 c 128,-1,23
 194 114 194 114 194.5 157.5 c 128,-1,24
 195 201 195 201 196.5 253 c 128,-1,25
 198 305 198 305 200 358 c 0,26,27
 202 431 202 431 203 496 c 128,-1,28
 204 561 204 561 205 599 c 1,29,30
 173 600 173 600 145.5 600.5 c 128,-1,31
 118 601 118 601 97 602 c 0,32,33
 72 603 72 603 52 603 c 0,34,35
 46 602 46 602 42 606 c 0,36,37
 38 609 38 609 34.5 615 c 128,-1,38
 31 621 31 621 30 635 c 256,39,40
 29 649 29 649 27.5 667.5 c 128,-1,41
 26 686 26 686 26.5 703 c 128,-1,42
 27 720 27 720 30 732 c 128,-1,43
 33 744 33 744 41 744 c 2,44,-1
 488 759 l 2,45,46
 496 758 496 758 503 753 c 0,47,48
 509 748 509 748 514 738.5 c 128,-1,49
 519 729 519 729 521 712 c 256,0,1
EndSplineSet
Validated: 33
EndChar

StartChar: U
Encoding: 85 85 52
Width: 671
GlyphClass: 1
Flags: W
LayerCount: 2
Fore
SplineSet
184 499 m 2,0,1
 182 442 182 442 182 392.5 c 128,-1,2
 182 343 182 343 192 298 c 0,3,4
 202 249 202 249 223 218 c 128,-1,5
 244 187 244 187 270.5 172.5 c 128,-1,6
 297 158 297 158 325.5 160.5 c 128,-1,7
 354 163 354 163 380.5 179.5 c 128,-1,8
 407 196 407 196 428 226 c 128,-1,9
 449 256 449 256 459 299 c 0,10,11
 469 339 469 339 473 391.5 c 128,-1,12
 477 444 477 444 477 498 c 128,-1,13
 477 552 477 552 473 602.5 c 128,-1,14
 469 653 469 653 465 689 c 0,15,16
 462 715 462 715 481 731 c 128,-1,17
 500 747 500 747 525.5 750.5 c 128,-1,18
 551 754 551 754 575.5 743.5 c 128,-1,19
 600 733 600 733 608 706 c 0,20,21
 622 660 622 660 628.5 607 c 128,-1,22
 635 554 635 554 636 500.5 c 128,-1,23
 637 447 637 447 633 395.5 c 128,-1,24
 629 344 629 344 622 300 c 0,25,26
 611 241 611 241 587 186 c 128,-1,27
 563 131 563 131 525.5 89 c 128,-1,28
 488 47 488 47 436.5 22 c 128,-1,29
 385 -3 385 -3 320 -1 c 0,30,31
 279 0 279 0 243 13 c 128,-1,32
 207 26 207 26 176.5 47.5 c 128,-1,33
 146 69 146 69 122 98 c 128,-1,34
 98 127 98 127 81 160 c 0,35,36
 50 222 50 222 38.5 300 c 128,-1,37
 27 378 27 378 27 453.5 c 128,-1,38
 27 529 27 529 33.5 592.5 c 128,-1,39
 40 656 40 656 46 691 c 0,40,41
 48 710 48 710 61 722.5 c 128,-1,42
 74 735 74 735 91.5 741 c 128,-1,43
 109 747 109 747 129 747 c 128,-1,44
 149 747 149 747 165.5 740.5 c 128,-1,45
 182 734 182 734 192.5 720.5 c 128,-1,46
 203 707 203 707 202 688 c 2,47,-1
 184 499 l 2,0,1
EndSplineSet
Validated: 33
EndChar

StartChar: V
Encoding: 86 86 53
Width: 682
GlyphClass: 1
Flags: W
LayerCount: 2
Fore
SplineSet
581 744 m 0,0,1
 597 738 597 738 615.5 730.5 c 128,-1,2
 634 723 634 723 647.5 712 c 128,-1,3
 661 701 661 701 666.5 685.5 c 128,-1,4
 672 670 672 670 662 649 c 0,5,6
 645 613 645 613 623 564 c 128,-1,7
 601 515 601 515 577.5 461 c 128,-1,8
 554 407 554 407 531 352 c 128,-1,9
 508 297 508 297 490 250 c 0,10,11
 468 195 468 195 447 138 c 128,-1,12
 426 81 426 81 404 20 c 0,13,14
 403 16 403 16 401 12 c 0,15,16
 398 4 398 4 388 -1 c 0,17,18
 380 -5 380 -5 358 -6.5 c 128,-1,19
 336 -8 336 -8 311 -7.5 c 128,-1,20
 286 -7 286 -7 264.5 -4.5 c 128,-1,21
 243 -2 243 -2 236 2 c 0,22,23
 221 10 221 10 213 27 c 0,24,25
 208 38 208 38 196 71.5 c 128,-1,26
 184 105 184 105 168 153 c 0,27,28
 151 202 151 202 133.5 260 c 128,-1,29
 116 318 116 318 99 378 c 0,30,31
 78 456 78 456 57 534 c 128,-1,32
 36 612 36 612 20 692 c 0,33,34
 17 700 17 700 19 708 c 0,35,36
 21 715 21 715 25.5 721.5 c 128,-1,37
 30 728 30 728 44 732 c 0,38,39
 57 736 57 736 75 741.5 c 128,-1,40
 93 747 93 747 109.5 749 c 128,-1,41
 126 751 126 751 139 748.5 c 128,-1,42
 152 746 152 746 156 734 c 0,43,44
 191 602 191 602 231.5 473 c 128,-1,45
 272 344 272 344 317 215 c 1,46,47
 359 340 359 340 406 461 c 128,-1,48
 453 582 453 582 507 702 c 0,49,50
 512 713 512 713 519 723 c 128,-1,51
 526 733 526 733 535 739.5 c 128,-1,52
 544 746 544 746 555.5 747.5 c 128,-1,53
 567 749 567 749 581 744 c 0,0,1
EndSplineSet
Validated: 33
EndChar

StartChar: W
Encoding: 87 87 54
Width: 896
GlyphClass: 1
Flags: W
LayerCount: 2
Fore
SplineSet
827 658 m 0,0,1
 842 608 842 608 854 545.5 c 128,-1,2
 866 483 866 483 870 417 c 128,-1,3
 874 351 874 351 868 285.5 c 128,-1,4
 862 220 862 220 841 163 c 0,5,6
 825 118 825 118 796 84 c 128,-1,7
 767 50 767 50 730.5 29.5 c 128,-1,8
 694 9 694 9 653.5 2 c 128,-1,9
 613 -5 613 -5 574 5 c 128,-1,10
 535 15 535 15 500.5 42.5 c 128,-1,11
 466 70 466 70 443 117 c 1,12,13
 422 81 422 81 392 54 c 128,-1,14
 362 27 362 27 327.5 12 c 128,-1,15
 293 -3 293 -3 256 -4 c 128,-1,16
 219 -5 219 -5 185 12 c 0,17,18
 139 33 139 33 110 70 c 128,-1,19
 81 107 81 107 64 153 c 128,-1,20
 47 199 47 199 39.5 251 c 128,-1,21
 32 303 32 303 29 353 c 0,22,23
 26 400 26 400 29 452.5 c 128,-1,24
 32 505 32 505 40.5 555.5 c 128,-1,25
 49 606 49 606 63 650 c 128,-1,26
 77 694 77 694 98 724 c 0,27,28
 111 745 111 745 138 738 c 0,29,30
 151 734 151 734 168.5 729 c 128,-1,31
 186 724 186 724 201 714 c 0,32,33
 215 705 215 705 222.5 691.5 c 128,-1,34
 230 678 230 678 225 657 c 0,35,36
 198 567 198 567 188 469.5 c 128,-1,37
 178 372 178 372 192 275 c 0,38,39
 202 210 202 210 222.5 186.5 c 128,-1,40
 243 163 243 163 266 176 c 128,-1,41
 289 189 289 189 311 236 c 128,-1,42
 333 283 333 283 345 358 c 0,43,44
 356 418 356 418 362.5 476 c 128,-1,45
 369 534 369 534 379 593 c 0,46,47
 385 620 385 620 409 632 c 128,-1,48
 433 644 433 644 459.5 643 c 128,-1,49
 486 642 486 642 507.5 628 c 128,-1,50
 529 614 529 614 531 589 c 0,51,52
 533 547 533 547 531.5 506 c 128,-1,53
 530 465 530 465 530.5 424.5 c 128,-1,54
 531 384 531 384 536 343 c 128,-1,55
 541 302 541 302 558 260 c 0,56,57
 578 207 578 207 605.5 187 c 128,-1,58
 633 167 633 167 657 182.5 c 128,-1,59
 681 198 681 198 696 249 c 128,-1,60
 711 300 711 300 706 388 c 0,61,62
 701 451 701 451 690 515 c 128,-1,63
 679 579 679 579 667 629 c 0,64,65
 665 639 665 639 664 652.5 c 128,-1,66
 663 666 663 666 665.5 679.5 c 128,-1,67
 668 693 668 693 675 704.5 c 128,-1,68
 682 716 682 716 694 722 c 0,69,70
 711 730 711 730 728.5 736 c 128,-1,71
 746 742 746 742 764 738 c 0,72,73
 781 734 781 734 797.5 717 c 128,-1,74
 814 700 814 700 827 658 c 0,0,1
EndSplineSet
Validated: 33
EndChar

StartChar: X
Encoding: 88 88 55
Width: 647
GlyphClass: 1
Flags: W
LayerCount: 2
Fore
SplineSet
608 97 m 0,0,1
 617 80 617 80 614.5 60 c 128,-1,2
 612 40 612 40 596 23 c 0,3,4
 582 12 582 12 566 2 c 128,-1,5
 550 -8 550 -8 533.5 -11.5 c 128,-1,6
 517 -15 517 -15 500 -9.5 c 128,-1,7
 483 -4 483 -4 467 16 c 0,8,9
 455 31 455 31 435.5 63 c 128,-1,10
 416 95 416 95 394 131.5 c 128,-1,11
 372 168 372 168 349.5 204.5 c 128,-1,12
 327 241 327 241 311 265 c 1,13,14
 275 210 275 210 238.5 155 c 128,-1,15
 202 100 202 100 167 41 c 0,16,17
 162 35 162 35 159.5 30.5 c 128,-1,18
 157 26 157 26 155 23 c 0,19,20
 153 21 153 21 153 20 c 128,-1,21
 153 19 153 19 152 18 c 2,22,-1
 151 17 l 2,23,24
 146 8 146 8 140 3 c 0,25,26
 135 -2 135 -2 126 -3.5 c 128,-1,27
 117 -5 117 -5 105 1 c 256,28,29
 93 7 93 7 76.5 15.5 c 128,-1,30
 60 24 60 24 46.5 34.5 c 128,-1,31
 33 45 33 45 25.5 56.5 c 128,-1,32
 18 68 18 68 24 80 c 0,33,34
 71 164 71 164 120 244.5 c 128,-1,35
 169 325 169 325 221 405 c 1,36,37
 183 462 183 462 145 517.5 c 128,-1,38
 107 573 107 573 69 631 c 0,39,40
 64 637 64 637 61 641.5 c 128,-1,41
 58 646 58 646 56 649 c 0,42,43
 53 653 53 653 52 656 c 0,44,45
 45 664 45 664 43 672 c 0,46,47
 41 679 41 679 43 687.5 c 128,-1,48
 45 696 45 696 56 705 c 256,49,50
 67 714 67 714 81.5 725 c 128,-1,51
 96 736 96 736 111 744 c 128,-1,52
 126 752 126 752 139.5 753.5 c 128,-1,53
 153 755 153 755 162 744 c 0,54,55
 200 693 200 693 237 643 c 128,-1,56
 274 593 274 593 311 542 c 1,57,58
 343 589 343 589 376 635 c 128,-1,59
 409 681 409 681 444 727 c 0,60,61
 464 748 464 748 486 747.5 c 128,-1,62
 508 747 508 747 532 733 c 0,63,64
 545 725 545 725 557 714.5 c 128,-1,65
 569 704 569 704 576 691.5 c 128,-1,66
 583 679 583 679 582.5 663.5 c 128,-1,67
 582 648 582 648 571 629 c 0,68,69
 566 618 566 618 543 588 c 128,-1,70
 520 558 520 558 487 513 c 0,71,72
 470 488 470 488 450 460 c 128,-1,73
 430 432 430 432 408 402 c 1,74,75
 460 327 460 327 509.5 251 c 128,-1,76
 559 175 559 175 608 97 c 0,0,1
EndSplineSet
Validated: 33
EndChar

StartChar: Y
Encoding: 89 89 56
Width: 563
GlyphClass: 1
Flags: W
LayerCount: 2
Fore
SplineSet
422 748 m 0,0,1
 436 748 436 748 454.5 748 c 128,-1,2
 473 748 473 748 490 745 c 128,-1,3
 507 742 507 742 519 735 c 128,-1,4
 531 728 531 728 531 713 c 0,5,6
 530 623 530 623 529.5 568.5 c 128,-1,7
 529 514 529 514 528 482.5 c 128,-1,8
 527 451 527 451 526 434.5 c 128,-1,9
 525 418 525 418 524 405 c 0,10,11
 518 339 518 339 503 279 c 128,-1,12
 488 219 488 219 458 167.5 c 128,-1,13
 428 116 428 116 381.5 75 c 128,-1,14
 335 34 335 34 266 7 c 0,15,16
 251 2 251 2 225 -3 c 128,-1,17
 199 -8 199 -8 171.5 -8.5 c 128,-1,18
 144 -9 144 -9 119 -2 c 128,-1,19
 94 5 94 5 81 25 c 0,20,21
 72 39 72 39 67.5 64 c 128,-1,22
 63 89 63 89 65 113 c 128,-1,23
 67 137 67 137 77 153.5 c 128,-1,24
 87 170 87 170 105 167 c 0,25,26
 133 162 133 162 170 163.5 c 128,-1,27
 207 165 207 165 242 176.5 c 128,-1,28
 277 188 277 188 305.5 210.5 c 128,-1,29
 334 233 334 233 345 271 c 1,30,31
 278 248 278 248 226 252.5 c 128,-1,32
 174 257 174 257 136.5 284 c 128,-1,33
 99 311 99 311 74.5 356 c 128,-1,34
 50 401 50 401 37.5 458.5 c 128,-1,35
 25 516 25 516 25 581.5 c 128,-1,36
 25 647 25 647 35 715 c 0,37,38
 37 731 37 731 48 742 c 128,-1,39
 59 753 59 753 76 750 c 0,40,41
 89 749 89 749 108 748 c 128,-1,42
 127 747 127 747 143.5 743.5 c 128,-1,43
 160 740 160 740 171.5 733.5 c 128,-1,44
 183 727 183 727 183 717 c 0,45,46
 182 709 182 709 181.5 702.5 c 128,-1,47
 181 696 181 696 180 688 c 0,48,49
 178 664 178 664 176 626 c 128,-1,50
 174 588 174 588 177.5 549 c 128,-1,51
 181 510 181 510 193.5 475 c 128,-1,52
 206 440 206 440 232 421 c 0,53,54
 252 407 252 407 275.5 405 c 128,-1,55
 299 403 299 403 321 415 c 128,-1,56
 343 427 343 427 361.5 454 c 128,-1,57
 380 481 380 481 389 525 c 0,58,59
 394 548 394 548 394.5 573 c 128,-1,60
 395 598 395 598 394 622.5 c 128,-1,61
 393 647 393 647 391 669.5 c 128,-1,62
 389 692 389 692 389 710 c 0,63,64
 388 721 388 721 392 729 c 0,65,66
 395 736 395 736 401.5 741.5 c 128,-1,67
 408 747 408 747 422 748 c 0,0,1
EndSplineSet
Validated: 33
EndChar

StartChar: Z
Encoding: 90 90 57
Width: 574
GlyphClass: 1
Flags: W
LayerCount: 2
Fore
SplineSet
443 503 m 256,0,1
 420 466 420 466 397 430 c 128,-1,2
 374 394 374 394 352 356 c 0,3,4
 322 305 322 305 292 254 c 128,-1,5
 262 203 262 203 233 151 c 1,6,7
 297 153 297 153 370.5 152 c 128,-1,8
 444 151 444 151 508 146 c 0,9,10
 516 146 516 146 521.5 140.5 c 128,-1,11
 527 135 527 135 530 126.5 c 128,-1,12
 533 118 533 118 534 109.5 c 128,-1,13
 535 101 535 101 535 95 c 0,14,15
 534 78 534 78 532.5 59.5 c 128,-1,16
 531 41 531 41 526.5 25.5 c 128,-1,17
 522 10 522 10 513.5 -0.5 c 128,-1,18
 505 -11 505 -11 492 -12 c 0,19,20
 484 -14 484 -14 463 -12 c 128,-1,21
 442 -10 442 -10 412 -8 c 0,22,23
 330 3 330 3 238 3 c 128,-1,24
 146 3 146 3 60 -2 c 0,25,26
 55 -3 55 -3 51 0 c 0,27,28
 47 2 47 2 42.5 8 c 128,-1,29
 38 14 38 14 36 28 c 0,30,31
 32 50 32 50 30.5 66.5 c 128,-1,32
 29 83 29 83 29 95 c 128,-1,33
 29 107 29 107 31 116.5 c 128,-1,34
 33 126 33 126 37 134 c 0,35,36
 65 195 65 195 98.5 253 c 128,-1,37
 132 311 132 311 169.5 367.5 c 128,-1,38
 207 424 207 424 246 480 c 128,-1,39
 285 536 285 536 324 592 c 1,40,41
 261 591 261 591 199 591 c 128,-1,42
 137 591 137 591 74 593 c 0,43,44
 66 595 66 595 60 600 c 0,45,46
 55 605 55 605 50 614.5 c 128,-1,47
 45 624 45 624 45 642 c 0,48,49
 44 659 44 659 44 677.5 c 128,-1,50
 44 696 44 696 47 712 c 128,-1,51
 50 728 50 728 57 739 c 128,-1,52
 64 750 64 750 78 752 c 0,53,54
 86 754 86 754 107.5 753 c 128,-1,55
 129 752 129 752 159 750 c 0,56,57
 247 744 247 744 333 744.5 c 128,-1,58
 419 745 419 745 508 744 c 0,59,60
 519 744 519 744 525 744 c 128,-1,61
 531 744 531 744 534 742.5 c 128,-1,62
 537 741 537 741 537.5 736.5 c 128,-1,63
 538 732 538 732 540 722 c 0,64,65
 541 711 541 711 542 696.5 c 128,-1,66
 543 682 543 682 543 668.5 c 128,-1,67
 543 655 543 655 541.5 645 c 128,-1,68
 540 635 540 635 537 632 c 0,69,70
 512 605 512 605 489 572.5 c 128,-1,71
 466 540 466 540 443 503 c 256,0,1
EndSplineSet
Validated: 33
EndChar

StartChar: a
Encoding: 97 97 58
Width: 580
GlyphClass: 1
Flags: W
LayerCount: 2
Fore
SplineSet
544 516 m 0,0,1
 534 395 534 395 531.5 275.5 c 128,-1,2
 529 156 529 156 537 35 c 0,3,4
 536 27 536 27 531 19 c 0,5,6
 526 12 526 12 516.5 5.5 c 128,-1,7
 507 -1 507 -1 490 -3 c 0,8,9
 475 -5 475 -5 458 -7 c 128,-1,10
 441 -9 441 -9 426 -7.5 c 128,-1,11
 411 -6 411 -6 399 -1 c 128,-1,12
 387 4 387 4 381 15 c 1,13,14
 359 10 359 10 337 5.5 c 128,-1,15
 315 1 315 1 292 -1 c 0,16,17
 225 -7 225 -7 174.5 17 c 128,-1,18
 124 41 124 41 92 84 c 128,-1,19
 60 127 60 127 47 183 c 128,-1,20
 34 239 34 239 41.5 297 c 128,-1,21
 49 355 49 355 77.5 409 c 128,-1,22
 106 463 106 463 157 502 c 0,23,24
 212 540 212 540 278.5 549 c 128,-1,25
 345 558 345 558 412 540 c 1,26,27
 420 546 420 546 438 545 c 0,28,29
 452 544 452 544 470.5 543 c 128,-1,30
 489 542 489 542 505.5 539 c 128,-1,31
 522 536 522 536 533 530.5 c 128,-1,32
 544 525 544 525 544 516 c 0,0,1
388 395 m 1,33,34
 343 413 343 413 308 406 c 128,-1,35
 273 399 273 399 249 376.5 c 128,-1,36
 225 354 225 354 212 321.5 c 128,-1,37
 199 289 199 289 197 256.5 c 128,-1,38
 195 224 195 224 204.5 196 c 128,-1,39
 214 168 214 168 236 154.5 c 128,-1,40
 258 141 258 141 291.5 147.5 c 128,-1,41
 325 154 325 154 372 190 c 1,42,43
 374 216 374 216 375 241.5 c 128,-1,44
 376 267 376 267 378 293 c 0,45,46
 380 320 380 320 382 346 c 128,-1,47
 384 372 384 372 388 395 c 1,33,34
EndSplineSet
Validated: 33
EndChar

StartChar: b
Encoding: 98 98 59
Width: 517
GlyphClass: 1
Flags: W
LayerCount: 2
Fore
SplineSet
192 499 m 1,0,1
 231 499 231 499 273 488.5 c 128,-1,2
 315 478 315 478 353 457.5 c 128,-1,3
 391 437 391 437 421.5 407 c 128,-1,4
 452 377 452 377 470 337 c 0,5,6
 493 281 493 281 481.5 222.5 c 128,-1,7
 470 164 470 164 432 116 c 0,8,9
 404 82 404 82 366 58.5 c 128,-1,10
 328 35 328 35 284.5 20 c 128,-1,11
 241 5 241 5 193.5 -1.5 c 128,-1,12
 146 -8 146 -8 98 -6 c 0,13,14
 75 -4 75 -4 58 7 c 128,-1,15
 41 18 41 18 37 47 c 0,16,17
 35 53 35 53 33.5 83.5 c 128,-1,18
 32 114 32 114 31.5 160 c 128,-1,19
 31 206 31 206 31 263 c 128,-1,20
 31 320 31 320 31.5 379.5 c 128,-1,21
 32 439 32 439 33 496.5 c 128,-1,22
 34 554 34 554 35 600 c 128,-1,23
 36 646 36 646 36.5 677 c 128,-1,24
 37 708 37 708 38 714 c 0,25,26
 37 722 37 722 41 729 c 0,27,28
 44 735 44 735 50.5 739.5 c 128,-1,29
 57 744 57 744 71 745 c 0,30,31
 84 746 84 746 104.5 746 c 128,-1,32
 125 746 125 746 144 743.5 c 128,-1,33
 163 741 163 741 176.5 734.5 c 128,-1,34
 190 728 190 728 191 716 c 0,35,36
 191 662 191 662 191 607.5 c 128,-1,37
 191 553 191 553 192 499 c 1,0,1
194 164 m 1,38,39
 234 167 234 167 262.5 182 c 128,-1,40
 291 197 291 197 306.5 218 c 128,-1,41
 322 239 322 239 323.5 262.5 c 128,-1,42
 325 286 325 286 311 306 c 128,-1,43
 297 326 297 326 268 339.5 c 128,-1,44
 239 353 239 353 193 354 c 1,45,46
 193 306 193 306 193.5 259 c 128,-1,47
 194 212 194 212 194 164 c 1,38,39
EndSplineSet
Validated: 33
EndChar

StartChar: c
Encoding: 99 99 60
Width: 535
GlyphClass: 1
Flags: W
LayerCount: 2
Fore
SplineSet
404 236 m 0,0,1
 420 233 420 233 437.5 229.5 c 128,-1,2
 455 226 455 226 469 220 c 128,-1,3
 483 214 483 214 491 203.5 c 128,-1,4
 499 193 499 193 497 177 c 0,5,6
 492 136 492 136 473 103.5 c 128,-1,7
 454 71 454 71 426 47 c 0,8,9
 381 7 381 7 326.5 -3.5 c 128,-1,10
 272 -14 272 -14 218 2 c 0,11,12
 191 10 191 10 167.5 24 c 128,-1,13
 144 38 144 38 123 56 c 0,14,15
 81 94 81 94 58 147 c 128,-1,16
 35 200 35 200 32.5 257 c 128,-1,17
 30 314 30 314 47.5 370.5 c 128,-1,18
 65 427 65 427 103 473 c 0,19,20
 134 511 134 511 179 534.5 c 128,-1,21
 224 558 224 558 273 562.5 c 128,-1,22
 322 567 322 567 369 550.5 c 128,-1,23
 416 534 416 534 451 492 c 0,24,25
 462 478 462 478 473.5 456 c 128,-1,26
 485 434 485 434 485 413 c 0,27,28
 485 399 485 399 477.5 387.5 c 128,-1,29
 470 376 470 376 458 367.5 c 128,-1,30
 446 359 446 359 432 353.5 c 128,-1,31
 418 348 418 348 406 346 c 0,32,33
 380 343 380 343 369.5 346 c 128,-1,34
 359 349 359 349 357 361 c 0,35,36
 353 388 353 388 341 404 c 128,-1,37
 329 420 329 420 313 425.5 c 128,-1,38
 297 431 297 431 279 427 c 128,-1,39
 261 423 261 423 245 411 c 0,40,41
 220 394 220 394 205.5 363.5 c 128,-1,42
 191 333 191 333 188 297.5 c 128,-1,43
 185 262 185 262 192.5 227.5 c 128,-1,44
 200 193 200 193 219 169 c 0,45,46
 237 146 237 146 259 141.5 c 128,-1,47
 281 137 281 137 301.5 146 c 128,-1,48
 322 155 322 155 338.5 174.5 c 128,-1,49
 355 194 355 194 364 218 c 0,50,51
 369 232 369 232 380 235 c 128,-1,52
 391 238 391 238 404 236 c 0,0,1
EndSplineSet
Validated: 33
EndChar

StartChar: d
Encoding: 100 100 61
Width: 554
GlyphClass: 1
Flags: W
LayerCount: 2
Fore
SplineSet
518 716 m 0,0,1
 507 383 507 383 518 48 c 0,2,3
 517 36 517 36 512 25 c 0,4,5
 507 16 507 16 497.5 8 c 128,-1,6
 488 0 488 0 471 -2 c 0,7,8
 448 -5 448 -5 423.5 -5.5 c 128,-1,9
 399 -6 399 -6 383 4 c 1,10,11
 320 -9 320 -9 254.5 -3 c 128,-1,12
 189 3 189 3 136 38 c 0,13,14
 90 68 90 68 65 112.5 c 128,-1,15
 40 157 40 157 34 207 c 128,-1,16
 28 257 28 257 39.5 309 c 128,-1,17
 51 361 51 361 78 405 c 0,18,19
 100 440 100 440 132 466 c 128,-1,20
 164 492 164 492 201.5 508 c 128,-1,21
 239 524 239 524 281 528.5 c 128,-1,22
 323 533 323 533 364 524 c 1,23,24
 366 565 366 565 368.5 599.5 c 128,-1,25
 371 634 371 634 373 660 c 0,26,27
 375 690 375 690 377 715 c 0,28,29
 376 724 376 724 380 731 c 0,30,31
 383 737 383 737 390 742.5 c 128,-1,32
 397 748 397 748 411 748 c 0,33,34
 424 748 424 748 442.5 747.5 c 128,-1,35
 461 747 461 747 477.5 744 c 128,-1,36
 494 741 494 741 506 734.5 c 128,-1,37
 518 728 518 728 518 716 c 0,0,1
358 376 m 1,38,39
 320 390 320 390 290 385 c 128,-1,40
 260 380 260 380 239 363.5 c 128,-1,41
 218 347 218 347 206.5 322 c 128,-1,42
 195 297 195 297 193.5 270.5 c 128,-1,43
 192 244 192 244 201 219 c 128,-1,44
 210 194 210 194 229.5 177 c 128,-1,45
 249 160 249 160 279.5 155 c 128,-1,46
 310 150 310 150 353 164 c 1,47,48
 353 213 353 213 354.5 264 c 128,-1,49
 356 315 356 315 358 376 c 1,38,39
EndSplineSet
Validated: 33
EndChar

StartChar: e
Encoding: 101 101 62
Width: 533
GlyphClass: 1
Flags: W
LayerCount: 2
Fore
SplineSet
205 533 m 0,0,1
 266 551 266 551 321.5 541.5 c 128,-1,2
 377 532 377 532 417.5 500.5 c 128,-1,3
 458 469 458 469 480 416.5 c 128,-1,4
 502 364 502 364 495 297 c 0,5,6
 493 284 493 284 488 275 c 128,-1,7
 483 266 483 266 472 264 c 0,8,9
 467 262 467 262 451 261 c 128,-1,10
 435 260 435 260 412.5 260 c 128,-1,11
 390 260 390 260 363 260.5 c 128,-1,12
 336 261 336 261 309 262 c 0,13,14
 272 264 272 264 240 265 c 128,-1,15
 208 266 208 266 188 268 c 1,16,17
 187 244 187 244 191.5 221 c 128,-1,18
 196 198 196 198 207 179.5 c 128,-1,19
 218 161 218 161 236 149 c 128,-1,20
 254 137 254 137 281 135 c 0,21,22
 302 133 302 133 323 143 c 128,-1,23
 344 153 344 153 361 177 c 0,24,25
 374 197 374 197 394 201 c 128,-1,26
 414 205 414 205 433 197.5 c 128,-1,27
 452 190 452 190 465 173 c 128,-1,28
 478 156 478 156 478 134 c 0,29,30
 478 107 478 107 463.5 84.5 c 128,-1,31
 449 62 449 62 427 44.5 c 128,-1,32
 405 27 405 27 378.5 15 c 128,-1,33
 352 3 352 3 328 -1 c 0,34,35
 298 -7 298 -7 267 -5.5 c 128,-1,36
 236 -4 236 -4 207 4 c 0,37,38
 143 24 143 24 101 74.5 c 128,-1,39
 59 125 59 125 42 187 c 0,40,41
 26 245 26 245 33 310 c 128,-1,42
 40 375 40 375 73 429 c 0,43,44
 96 464 96 464 128 491.5 c 128,-1,45
 160 519 160 519 205 533 c 0,0,1
208 366 m 1,46,47
 279 366 279 366 351 369 c 1,48,49
 346 402 346 402 327.5 416.5 c 128,-1,50
 309 431 309 431 286.5 429 c 128,-1,51
 264 427 264 427 242 410.5 c 128,-1,52
 220 394 220 394 208 366 c 1,46,47
EndSplineSet
Validated: 33
EndChar

StartChar: f
Encoding: 102 102 63
Width: 473
GlyphClass: 1
Flags: W
LayerCount: 2
Fore
SplineSet
433 666 m 0,0,1
 449 658 449 658 451.5 642.5 c 128,-1,2
 454 627 454 627 450 609.5 c 128,-1,3
 446 592 446 592 437.5 575.5 c 128,-1,4
 429 559 429 559 422 549 c 0,5,6
 416 541 416 541 408.5 535.5 c 128,-1,7
 401 530 401 530 390 534 c 0,8,9
 348 555 348 555 319.5 563.5 c 128,-1,10
 291 572 291 572 274 564 c 128,-1,11
 257 556 257 556 249.5 530.5 c 128,-1,12
 242 505 242 505 241 459 c 0,13,14
 240 433 240 433 240 408 c 128,-1,15
 240 383 240 383 240 357 c 1,16,17
 279 359 279 359 324.5 360 c 128,-1,18
 370 361 370 361 409 361 c 1,19,20
 422 355 422 355 429 330.5 c 128,-1,21
 436 306 436 306 436.5 278 c 128,-1,22
 437 250 437 250 430 226.5 c 128,-1,23
 423 203 423 203 409 200 c 0,24,25
 403 198 403 198 380 198 c 128,-1,26
 357 198 357 198 331 199 c 0,27,28
 312 199 312 199 291.5 199.5 c 128,-1,29
 271 200 271 200 248 201 c 1,30,31
 252 139 252 139 254.5 91 c 128,-1,32
 257 43 257 43 258 4.5 c 128,-1,33
 259 -34 259 -34 259 -66 c 128,-1,34
 259 -98 259 -98 258 -128 c 0,35,36
 258 -141 258 -141 256 -157.5 c 128,-1,37
 254 -174 254 -174 248 -188.5 c 128,-1,38
 242 -203 242 -203 230.5 -213 c 128,-1,39
 219 -223 219 -223 201 -223 c 0,40,41
 186 -223 186 -223 168 -221 c 128,-1,42
 150 -219 150 -219 134 -212 c 128,-1,43
 118 -205 118 -205 107 -193 c 128,-1,44
 96 -181 96 -181 96 -161 c 0,45,46
 96 -80 96 -80 95.5 14 c 128,-1,47
 95 108 95 108 90 203 c 1,48,-1
 57 203 l 2,49,50
 53 201 53 201 49 204 c 0,51,52
 46 206 46 206 42.5 212.5 c 128,-1,53
 39 219 39 219 37 233 c 0,54,55
 35 246 35 246 32.5 264.5 c 128,-1,56
 30 283 30 283 29.5 300 c 128,-1,57
 29 317 29 317 31 329 c 128,-1,58
 33 341 33 341 39 342 c 0,59,60
 51 344 51 344 62.5 345 c 128,-1,61
 74 346 74 346 86 347 c 1,62,63
 86 377 86 377 86 413 c 128,-1,64
 86 449 86 449 90 485 c 128,-1,65
 94 521 94 521 103 555.5 c 128,-1,66
 112 590 112 590 129.5 618.5 c 128,-1,67
 147 647 147 647 175 666.5 c 128,-1,68
 203 686 203 686 245 692 c 0,69,70
 267 695 267 695 292.5 695 c 128,-1,71
 318 695 318 695 343 691.5 c 128,-1,72
 368 688 368 688 391.5 681.5 c 128,-1,73
 415 675 415 675 433 666 c 0,0,1
EndSplineSet
Validated: 33
EndChar

StartChar: g
Encoding: 103 103 64
Width: 570
GlyphClass: 1
Flags: W
LayerCount: 2
Fore
SplineSet
518 531 m 0,0,1
 521 450 521 450 526 364.5 c 128,-1,2
 531 279 531 279 532 191 c 0,3,4
 532 156 532 156 532.5 108.5 c 128,-1,5
 533 61 533 61 528 12 c 128,-1,6
 523 -37 523 -37 511 -82 c 128,-1,7
 499 -127 499 -127 475 -158 c 0,8,9
 432 -216 432 -216 361.5 -242.5 c 128,-1,10
 291 -269 291 -269 208 -262 c 0,11,12
 171 -260 171 -260 137 -248.5 c 128,-1,13
 103 -237 103 -237 93 -207 c 0,14,15
 84 -184 84 -184 87.5 -156.5 c 128,-1,16
 91 -129 91 -129 105 -109 c 0,17,18
 116 -96 116 -96 131.5 -96.5 c 128,-1,19
 147 -97 147 -97 165 -99 c 0,20,21
 191 -101 191 -101 219.5 -103.5 c 128,-1,22
 248 -106 248 -106 277 -99 c 0,23,24
 298 -94 298 -94 315.5 -86.5 c 128,-1,25
 333 -79 333 -79 346.5 -62.5 c 128,-1,26
 360 -46 360 -46 367.5 -17 c 128,-1,27
 375 12 375 12 377 61 c 1,28,29
 315 37 315 37 254.5 42 c 128,-1,30
 194 47 194 47 146 75 c 128,-1,31
 98 103 98 103 68 151.5 c 128,-1,32
 38 200 38 200 37 263 c 0,33,34
 36 299 36 299 46.5 335 c 128,-1,35
 57 371 57 371 80 404 c 0,36,37
 103 438 103 438 134.5 462.5 c 128,-1,38
 166 487 166 487 203 501.5 c 128,-1,39
 240 516 240 516 281.5 520 c 128,-1,40
 323 524 323 524 365 516 c 1,41,42
 365 530 365 530 371 538.5 c 128,-1,43
 377 547 377 547 393 553 c 0,44,45
 406 556 406 556 426.5 559 c 128,-1,46
 447 562 447 562 466 561.5 c 128,-1,47
 485 561 485 561 500 554.5 c 128,-1,48
 515 548 515 548 518 531 c 0,0,1
375 360 m 1,49,50
 317 385 317 385 278.5 374 c 128,-1,51
 240 363 240 363 221.5 336 c 128,-1,52
 203 309 203 309 204 274.5 c 128,-1,53
 205 240 205 240 225 217.5 c 128,-1,54
 245 195 245 195 283 194 c 128,-1,55
 321 193 321 193 378 232 c 1,56,57
 378 261 378 261 377.5 292 c 128,-1,58
 377 323 377 323 375 360 c 1,49,50
EndSplineSet
Validated: 33
EndChar

StartChar: h
Encoding: 104 104 65
Width: 550
GlyphClass: 1
Flags: W
LayerCount: 2
Fore
SplineSet
192 496 m 1,0,1
 232 518 232 518 273 525.5 c 128,-1,2
 314 533 314 533 352 525.5 c 128,-1,3
 390 518 390 518 422.5 495.5 c 128,-1,4
 455 473 455 473 477.5 436.5 c 128,-1,5
 500 400 500 400 510.5 348 c 128,-1,6
 521 296 521 296 515 230 c 2,7,-1
 506 42 l 2,8,9
 504 29 504 29 498 19 c 0,10,11
 493 11 493 11 482.5 3.5 c 128,-1,12
 472 -4 472 -4 455 -4 c 0,13,14
 437 -5 437 -5 418 -5 c 128,-1,15
 399 -5 399 -5 383.5 0 c 128,-1,16
 368 5 368 5 357 17.5 c 128,-1,17
 346 30 346 30 344 54 c 0,18,19
 344 101 344 101 348.5 146.5 c 128,-1,20
 353 192 353 192 356 240 c 0,21,22
 361 291 361 291 350 322.5 c 128,-1,23
 339 354 339 354 320.5 368 c 128,-1,24
 302 382 302 382 279.5 380 c 128,-1,25
 257 378 257 378 237 361 c 128,-1,26
 217 344 217 344 204 313.5 c 128,-1,27
 191 283 191 283 193 241 c 0,28,29
 196 144 196 144 202 52 c 0,30,31
 202 33 202 33 189.5 18.5 c 128,-1,32
 177 4 177 4 157 1 c 0,33,34
 139 -2 139 -2 120.5 -4.5 c 128,-1,35
 102 -7 102 -7 86 -3.5 c 128,-1,36
 70 0 70 0 57.5 10.5 c 128,-1,37
 45 21 45 21 41 44 c 0,38,39
 30 202 30 202 31 364.5 c 128,-1,40
 32 527 32 527 44 692 c 0,41,42
 45 703 45 703 47.5 713 c 128,-1,43
 50 723 50 723 55.5 731 c 128,-1,44
 61 739 61 739 70.5 743.5 c 128,-1,45
 80 748 80 748 95 748 c 0,46,47
 108 747 108 747 126.5 746 c 128,-1,48
 145 745 145 745 161.5 742 c 128,-1,49
 178 739 178 739 189.5 732.5 c 128,-1,50
 201 726 201 726 201 714 c 0,51,52
 194 605 194 605 192 496 c 1,0,1
EndSplineSet
Validated: 33
EndChar

StartChar: i
Encoding: 105 105 66
Width: 239
GlyphClass: 1
Flags: W
LayerCount: 2
Fore
SplineSet
198 451 m 0,0,1
 196 345 196 345 196 240.5 c 128,-1,2
 196 136 196 136 199 31 c 0,3,4
 197 24 197 24 192 17 c 0,5,6
 187 11 187 11 177.5 5 c 128,-1,7
 168 -1 168 -1 151 -3 c 256,8,9
 134 -5 134 -5 115.5 -5.5 c 128,-1,10
 97 -6 97 -6 81 -4 c 128,-1,11
 65 -2 65 -2 53.5 5 c 128,-1,12
 42 12 42 12 39 26 c 0,13,14
 37 33 37 33 36.5 55 c 128,-1,15
 36 77 36 77 36.5 108 c 128,-1,16
 37 139 37 139 38.5 176.5 c 128,-1,17
 40 214 40 214 43 252 c 0,18,19
 45 290 45 290 47.5 326 c 128,-1,20
 50 362 50 362 52 390 c 0,21,22
 55 423 55 423 58 451 c 0,23,24
 57 457 57 457 61 461 c 0,25,26
 64 465 64 465 70.5 467.5 c 128,-1,27
 77 470 77 470 91 470 c 256,28,29
 105 470 105 470 123 470 c 128,-1,30
 141 470 141 470 157.5 468.5 c 128,-1,31
 174 467 174 467 186 463 c 128,-1,32
 198 459 198 459 198 451 c 0,0,1
208 583 m 0,33,34
 208 557 208 557 186.5 538.5 c 128,-1,35
 165 520 165 520 135 520 c 256,36,37
 105 520 105 520 83.5 538.5 c 128,-1,38
 62 557 62 557 62 583 c 0,39,40
 62 610 62 610 83.5 629 c 128,-1,41
 105 648 105 648 135 648 c 256,42,43
 165 648 165 648 186.5 629 c 128,-1,44
 208 610 208 610 208 583 c 0,33,34
EndSplineSet
Validated: 33
EndChar

StartChar: j
Encoding: 106 106 67
Width: 504
GlyphClass: 1
Flags: W
LayerCount: 2
Fore
SplineSet
461 459 m 0,0,1
 462 445 462 445 462.5 431.5 c 128,-1,2
 463 418 463 418 464 404 c 0,3,4
 465 362 465 362 469 305.5 c 128,-1,5
 473 249 473 249 474 188 c 128,-1,6
 475 127 475 127 470.5 65 c 128,-1,7
 466 3 466 3 452 -50.5 c 128,-1,8
 438 -104 438 -104 410.5 -145 c 128,-1,9
 383 -186 383 -186 338 -206 c 0,10,11
 302 -221 302 -221 262 -221.5 c 128,-1,12
 222 -222 222 -222 184.5 -208.5 c 128,-1,13
 147 -195 147 -195 115 -167.5 c 128,-1,14
 83 -140 83 -140 65 -99 c 0,15,16
 40 -45 40 -45 35.5 16.5 c 128,-1,17
 31 78 31 78 44 129 c 0,18,19
 49 152 49 152 62 164.5 c 128,-1,20
 75 177 75 177 92.5 182 c 128,-1,21
 110 187 110 187 130 186 c 128,-1,22
 150 185 150 185 169 181 c 0,23,24
 195 174 195 174 203 156.5 c 128,-1,25
 211 139 211 139 208 116 c 0,26,27
 206 98 206 98 203.5 77 c 128,-1,28
 201 56 201 56 201 45 c 0,29,30
 201 -8 201 -8 216 -33.5 c 128,-1,31
 231 -59 231 -59 250.5 -57.5 c 128,-1,32
 270 -56 270 -56 288.5 -29 c 128,-1,33
 307 -2 307 -2 314 49 c 0,34,35
 319 100 319 100 319 152 c 128,-1,36
 319 204 319 204 316.5 255 c 128,-1,37
 314 306 314 306 310.5 356 c 128,-1,38
 307 406 307 406 307 454 c 0,39,40
 305 470 305 470 314.5 482.5 c 128,-1,41
 324 495 324 495 342 497 c 0,42,43
 356 499 356 499 375.5 500 c 128,-1,44
 395 501 395 501 413.5 498 c 128,-1,45
 432 495 432 495 445.5 486 c 128,-1,46
 459 477 459 477 461 459 c 0,0,1
453 596 m 256,47,48
 453 570 453 570 431.5 551 c 128,-1,49
 410 532 410 532 379 532 c 0,50,51
 349 532 349 532 327.5 551 c 128,-1,52
 306 570 306 570 306 596 c 256,53,54
 306 622 306 622 327.5 641 c 128,-1,55
 349 660 349 660 379 660 c 0,56,57
 410 660 410 660 431.5 641 c 128,-1,58
 453 622 453 622 453 596 c 256,47,48
EndSplineSet
Validated: 33
EndChar

StartChar: k
Encoding: 107 107 68
Width: 552
GlyphClass: 1
Flags: W
LayerCount: 2
Fore
SplineSet
513 456 m 0,0,1
 500 432 500 432 479.5 412.5 c 128,-1,2
 459 393 459 393 435.5 376 c 128,-1,3
 412 359 412 359 387 343 c 128,-1,4
 362 327 362 327 339 310 c 1,5,6
 378 256 378 256 424.5 199.5 c 128,-1,7
 471 143 471 143 519 98 c 0,8,9
 522 93 522 93 522 86 c 0,10,11
 522 80 522 80 518.5 70.5 c 128,-1,12
 515 61 515 61 504 47 c 0,13,14
 493 34 493 34 481 20 c 128,-1,15
 469 6 469 6 456.5 -4.5 c 128,-1,16
 444 -15 444 -15 432.5 -19.5 c 128,-1,17
 421 -24 421 -24 411 -19 c 0,18,19
 399 -13 399 -13 382 5 c 128,-1,20
 365 23 365 23 345.5 47 c 128,-1,21
 326 71 326 71 305.5 100 c 128,-1,22
 285 129 285 129 266.5 156 c 128,-1,23
 248 183 248 183 232.5 207 c 128,-1,24
 217 231 217 231 208 246 c 0,25,26
 205 245 205 245 202.5 244 c 128,-1,27
 200 243 200 243 198 242 c 2,28,-1
 198 40 l 2,29,30
 196 28 196 28 191 18 c 0,31,32
 186 9 186 9 176 1 c 128,-1,33
 166 -7 166 -7 149 -9 c 0,34,35
 131 -10 131 -10 112.5 -10.5 c 128,-1,36
 94 -11 94 -11 78 -6.5 c 128,-1,37
 62 -2 62 -2 50.5 9.5 c 128,-1,38
 39 21 39 21 36 44 c 0,39,40
 35 50 35 50 35 62 c 128,-1,41
 35 74 35 74 35 91 c 0,42,43
 35 247 35 247 38.5 402 c 128,-1,44
 42 557 42 557 47 715 c 0,45,46
 48 723 48 723 52 729 c 0,47,48
 56 734 56 734 63.5 739 c 128,-1,49
 71 744 71 744 85 746 c 0,50,51
 99 747 99 747 117.5 747.5 c 128,-1,52
 136 748 136 748 152.5 746 c 128,-1,53
 169 744 169 744 181 738 c 128,-1,54
 193 732 193 732 194 720 c 0,55,56
 195 640 195 640 196 560.5 c 128,-1,57
 197 481 197 481 197 401 c 1,58,59
 248 432 248 432 294 468.5 c 128,-1,60
 340 505 340 505 382 551 c 0,61,62
 396 565 396 565 410 567.5 c 128,-1,63
 424 570 424 570 444 556 c 0,64,65
 452 551 452 551 466.5 539.5 c 128,-1,66
 481 528 481 528 493.5 513.5 c 128,-1,67
 506 499 506 499 513 484 c 128,-1,68
 520 469 520 469 513 456 c 0,0,1
EndSplineSet
Validated: 33
EndChar

StartChar: l
Encoding: 108 108 69
Width: 237
GlyphClass: 1
Flags: W
LayerCount: 2
Fore
SplineSet
197 44 m 2,0,1
 195 32 195 32 190 22 c 0,2,3
 185 14 185 14 175.5 6.5 c 128,-1,4
 166 -1 166 -1 149 -3 c 256,5,6
 132 -5 132 -5 113 -6 c 128,-1,7
 94 -7 94 -7 78 -3 c 128,-1,8
 62 1 62 1 50.5 12.5 c 128,-1,9
 39 24 39 24 36 46 c 0,10,11
 34 57 34 57 34 91.5 c 128,-1,12
 34 126 34 126 35 174.5 c 128,-1,13
 36 223 36 223 37.5 281.5 c 128,-1,14
 39 340 39 340 41 400 c 0,15,16
 45 539 45 539 51 710 c 0,17,18
 50 719 50 719 54 726 c 0,19,20
 57 732 57 732 63.5 736.5 c 128,-1,21
 70 741 70 741 84 742 c 0,22,23
 98 742 98 742 116.5 743 c 128,-1,24
 135 744 135 744 151.5 742 c 128,-1,25
 168 740 168 740 180 734 c 128,-1,26
 192 728 192 728 193 715 c 2,27,-1
 197 44 l 2,0,1
EndSplineSet
Validated: 33
EndChar

StartChar: m
Encoding: 109 109 70
Width: 907
GlyphClass: 1
Flags: W
LayerCount: 2
Fore
SplineSet
480 469 m 1,0,1
 520 521 520 521 575 545.5 c 128,-1,2
 630 570 630 570 684 564.5 c 128,-1,3
 738 559 738 559 782.5 521.5 c 128,-1,4
 827 484 827 484 845 411 c 0,5,6
 866 329 866 329 865 233.5 c 128,-1,7
 864 138 864 138 858 44 c 0,8,9
 856 12 856 12 839 2 c 128,-1,10
 822 -8 822 -8 795 -9 c 0,11,12
 777 -9 777 -9 758.5 -8.5 c 128,-1,13
 740 -8 740 -8 724.5 -1.5 c 128,-1,14
 709 5 709 5 698.5 18.5 c 128,-1,15
 688 32 688 32 687 57 c 0,16,17
 685 91 685 91 687.5 125 c 128,-1,18
 690 159 690 159 693 193.5 c 128,-1,19
 696 228 696 228 697 263 c 128,-1,20
 698 298 698 298 692 334 c 0,21,22
 683 391 683 391 657.5 411.5 c 128,-1,23
 632 432 632 432 603 419 c 128,-1,24
 574 406 574 406 549 360 c 128,-1,25
 524 314 524 314 517 238 c 0,26,27
 513 196 513 196 512 152.5 c 128,-1,28
 511 109 511 109 514 64 c 0,29,30
 517 44 517 44 509.5 32 c 128,-1,31
 502 20 502 20 488.5 13 c 128,-1,32
 475 6 475 6 459 3.5 c 128,-1,33
 443 1 443 1 429 1 c 0,34,35
 391 1 391 1 372 24 c 128,-1,36
 353 47 353 47 349 86 c 0,37,38
 346 121 346 121 350 157.5 c 128,-1,39
 354 194 354 194 356 230 c 0,40,41
 361 279 361 279 352 315 c 128,-1,42
 343 351 343 351 326.5 370 c 128,-1,43
 310 389 310 389 289 389.5 c 128,-1,44
 268 390 268 390 249 368 c 128,-1,45
 230 346 230 346 215.5 300 c 128,-1,46
 201 254 201 254 197 180 c 1,47,-1
 200 35 l 2,48,49
 198 26 198 26 193 18 c 0,50,51
 188 11 188 11 179 5 c 128,-1,52
 170 -1 170 -1 153 -3 c 0,53,54
 135 -5 135 -5 116.5 -5.5 c 128,-1,55
 98 -6 98 -6 82 -3 c 128,-1,56
 66 0 66 0 54 8.5 c 128,-1,57
 42 17 42 17 39 34 c 0,58,59
 38 40 38 40 38 78 c 128,-1,60
 38 116 38 116 38.5 169.5 c 128,-1,61
 39 223 39 223 40 285 c 128,-1,62
 41 347 41 347 42.5 401 c 128,-1,63
 44 455 44 455 45.5 493 c 128,-1,64
 47 531 47 531 48 538 c 0,65,66
 46 545 46 545 50 550 c 0,67,68
 52 555 52 555 59 558.5 c 128,-1,69
 66 562 66 562 80 563 c 0,70,71
 93 564 93 564 111.5 564.5 c 128,-1,72
 130 565 130 565 147 564 c 128,-1,73
 164 563 164 563 176 559 c 128,-1,74
 188 555 188 555 189 546 c 2,75,-1
 190 481 l 1,76,77
 223 510 223 510 261 526 c 128,-1,78
 299 542 299 542 337.5 542 c 128,-1,79
 376 542 376 542 412.5 524.5 c 128,-1,80
 449 507 449 507 480 469 c 1,0,1
EndSplineSet
Validated: 33
EndChar

StartChar: n
Encoding: 110 110 71
Width: 601
GlyphClass: 1
Flags: W
LayerCount: 2
Fore
SplineSet
186 507 m 1,0,1
 224 523 224 523 270.5 530.5 c 128,-1,2
 317 538 317 538 363 532.5 c 128,-1,3
 409 527 409 527 449.5 506 c 128,-1,4
 490 485 490 485 516 444 c 0,5,6
 538 409 538 409 549 357.5 c 128,-1,7
 560 306 560 306 560 231 c 2,8,-1
 558 68 l 2,9,10
 558 60 558 60 557 49 c 128,-1,11
 556 38 556 38 551 27 c 128,-1,12
 546 16 546 16 536 7.5 c 128,-1,13
 526 -1 526 -1 509 -3 c 0,14,15
 482 -7 482 -7 452 -5.5 c 128,-1,16
 422 -4 422 -4 406 17 c 0,17,18
 397 29 397 29 393.5 48 c 128,-1,19
 390 67 390 67 389.5 89 c 128,-1,20
 389 111 389 111 390.5 132.5 c 128,-1,21
 392 154 392 154 394 170 c 0,22,23
 398 205 398 205 401 238 c 128,-1,24
 404 271 404 271 399 302 c 0,25,26
 393 335 393 335 376 358.5 c 128,-1,27
 359 382 359 382 336.5 392.5 c 128,-1,28
 314 403 314 403 289.5 400.5 c 128,-1,29
 265 398 265 398 243.5 380.5 c 128,-1,30
 222 363 222 363 207 329 c 128,-1,31
 192 295 192 295 189 244 c 2,32,-1
 192 34 l 2,33,34
 190 25 190 25 185 17 c 0,35,36
 180 10 180 10 170.5 4.5 c 128,-1,37
 161 -1 161 -1 144 -3 c 0,38,39
 126 -5 126 -5 107.5 -5.5 c 128,-1,40
 89 -6 89 -6 72.5 -2.5 c 128,-1,41
 56 1 56 1 45 9.5 c 128,-1,42
 34 18 34 18 31 34 c 0,43,44
 29 40 29 40 29 77.5 c 128,-1,45
 29 115 29 115 30.5 168.5 c 128,-1,46
 32 222 32 222 34 283 c 128,-1,47
 36 344 36 344 38 397.5 c 128,-1,48
 40 451 40 451 42 488.5 c 128,-1,49
 44 526 44 526 44 533 c 0,50,51
 43 539 43 539 47 544 c 0,52,53
 50 549 50 549 57 552.5 c 128,-1,54
 64 556 64 556 78 557 c 0,55,56
 91 558 91 558 109.5 558.5 c 128,-1,57
 128 559 128 559 145 558 c 128,-1,58
 162 557 162 557 174 553 c 128,-1,59
 186 549 186 549 186 540 c 2,60,-1
 186 507 l 1,61,-1
 186 507 l 1,0,1
EndSplineSet
Validated: 37
EndChar

StartChar: o
Encoding: 111 111 72
Width: 548
GlyphClass: 1
Flags: W
LayerCount: 2
Fore
SplineSet
273 -7 m 256,0,1
 221 -7 221 -7 175.5 15 c 128,-1,2
 130 37 130 37 96 74.5 c 128,-1,3
 62 112 62 112 42 162 c 128,-1,4
 22 212 22 212 22 269 c 256,5,6
 22 326 22 326 42 376 c 128,-1,7
 62 426 62 426 96 463.5 c 128,-1,8
 130 501 130 501 175.5 522.5 c 128,-1,9
 221 544 221 544 273 544 c 256,10,11
 325 544 325 544 370.5 522.5 c 128,-1,12
 416 501 416 501 450 463.5 c 128,-1,13
 484 426 484 426 504 376 c 128,-1,14
 524 326 524 326 524 269 c 256,15,16
 524 212 524 212 504 162 c 128,-1,17
 484 112 484 112 450 74.5 c 128,-1,18
 416 37 416 37 370.5 15 c 128,-1,19
 325 -7 325 -7 273 -7 c 256,0,1
273 396 m 0,20,21
 250 396 250 396 230.5 386 c 128,-1,22
 211 376 211 376 197 358.5 c 128,-1,23
 183 341 183 341 174.5 318 c 128,-1,24
 166 295 166 295 166 269 c 256,25,26
 166 243 166 243 174.5 219.5 c 128,-1,27
 183 196 183 196 197 179 c 128,-1,28
 211 162 211 162 230.5 152 c 128,-1,29
 250 142 250 142 273 142 c 0,30,31
 295 142 295 142 315 152 c 128,-1,32
 335 162 335 162 349.5 179 c 128,-1,33
 364 196 364 196 372.5 219.5 c 128,-1,34
 381 243 381 243 381 269 c 256,35,36
 381 295 381 295 372.5 318 c 128,-1,37
 364 341 364 341 349.5 358.5 c 128,-1,38
 335 376 335 376 315 386 c 128,-1,39
 295 396 295 396 273 396 c 0,20,21
EndSplineSet
Validated: 1
EndChar

StartChar: p
Encoding: 112 112 73
Width: 511
GlyphClass: 1
Flags: W
LayerCount: 2
Fore
SplineSet
345 504 m 0,0,1
 394 480 394 480 425.5 442.5 c 128,-1,2
 457 405 457 405 470.5 361 c 128,-1,3
 484 317 484 317 480.5 270.5 c 128,-1,4
 477 224 477 224 457.5 181 c 128,-1,5
 438 138 438 138 401.5 102 c 128,-1,6
 365 66 365 66 314 44 c 0,7,8
 261 22 261 22 196 11 c 1,9,10
 195 5 195 5 194 -16 c 0,11,12
 193 -34 193 -34 193 -70.5 c 128,-1,13
 193 -107 193 -107 193 -171 c 0,14,15
 192 -184 192 -184 187 -195 c 0,16,17
 182 -204 182 -204 172 -212 c 128,-1,18
 162 -220 162 -220 145 -222 c 0,19,20
 127 -224 127 -224 107.5 -224.5 c 128,-1,21
 88 -225 88 -225 71.5 -220.5 c 128,-1,22
 55 -216 55 -216 44 -204 c 128,-1,23
 33 -192 33 -192 32 -168 c 0,24,25
 31 -140 31 -140 31 -89.5 c 128,-1,26
 31 -39 31 -39 31.5 23.5 c 128,-1,27
 32 86 32 86 32 157 c 128,-1,28
 32 228 32 228 31.5 295.5 c 128,-1,29
 31 363 31 363 30 423.5 c 128,-1,30
 29 484 29 484 27 527 c 0,31,32
 27 543 27 543 38 553.5 c 128,-1,33
 49 564 49 564 69 568 c 0,34,35
 83 570 83 570 101 573 c 128,-1,36
 119 576 119 576 136 576 c 128,-1,37
 153 576 153 576 165 571 c 128,-1,38
 177 566 177 566 179 553 c 0,39,40
 180 548 180 548 180 544.5 c 128,-1,41
 180 541 180 541 181 538 c 0,42,43
 219 541 219 541 261 533 c 128,-1,44
 303 525 303 525 345 504 c 0,0,1
192 156 m 1,45,46
 231 160 231 160 259.5 179 c 128,-1,47
 288 198 288 198 303.5 224.5 c 128,-1,48
 319 251 319 251 321 280.5 c 128,-1,49
 323 310 323 310 309.5 335.5 c 128,-1,50
 296 361 296 361 266.5 377.5 c 128,-1,51
 237 394 237 394 190 395 c 1,52,53
 190 339 190 339 190.5 282.5 c 128,-1,54
 191 226 191 226 192 162 c 2,55,-1
 192 159 l 1,56,-1
 192 156 l 1,45,46
EndSplineSet
Validated: 33
EndChar

StartChar: q
Encoding: 113 113 74
Width: 511
GlyphClass: 1
Flags: W
LayerCount: 2
Fore
SplineSet
373 544 m 0,0,1
 387 544 387 544 405.5 543.5 c 128,-1,2
 424 543 424 543 440.5 540 c 128,-1,3
 457 537 457 537 468.5 530 c 128,-1,4
 480 523 480 523 480 510 c 0,5,6
 470 327 470 327 469 146.5 c 128,-1,7
 468 -34 468 -34 465 -217 c 0,8,9
 463 -230 463 -230 458 -241 c 0,10,11
 453 -250 453 -250 443 -257.5 c 128,-1,12
 433 -265 433 -265 416 -267 c 0,13,14
 398 -269 398 -269 378 -269 c 128,-1,15
 358 -269 358 -269 340.5 -264 c 128,-1,16
 323 -259 323 -259 310.5 -246.5 c 128,-1,17
 298 -234 298 -234 295 -210 c 0,18,19
 294 -201 294 -201 294.5 -180 c 128,-1,20
 295 -159 295 -159 295.5 -128 c 128,-1,21
 296 -97 296 -97 298 -58.5 c 128,-1,22
 300 -20 300 -20 302 23 c 1,23,24
 273 23 273 23 243 27 c 128,-1,25
 213 31 213 31 184 41 c 0,26,27
 131 59 131 59 95 99 c 128,-1,28
 59 139 59 139 43 190 c 128,-1,29
 27 241 27 241 32.5 296.5 c 128,-1,30
 38 352 38 352 70 402 c 0,31,32
 109 462 109 462 179.5 492.5 c 128,-1,33
 250 523 250 523 342 528 c 1,34,35
 346 535 346 535 352.5 540 c 128,-1,36
 359 545 359 545 373 544 c 0,0,1
327 386 m 1,37,38
 282 392 282 392 251 377 c 128,-1,39
 220 362 220 362 203.5 337 c 128,-1,40
 187 312 187 312 185.5 282.5 c 128,-1,41
 184 253 184 253 197.5 229 c 128,-1,42
 211 205 211 205 239.5 191 c 128,-1,43
 268 177 268 177 313 184 c 1,44,45
 316 241 316 241 320 292.5 c 128,-1,46
 324 344 324 344 327 386 c 1,37,38
EndSplineSet
Validated: 33
EndChar

StartChar: r
Encoding: 114 114 75
Width: 499
GlyphClass: 1
Flags: W
LayerCount: 2
Fore
SplineSet
460 410 m 0,0,1
 464 381 464 381 458.5 354.5 c 128,-1,2
 453 328 453 328 438.5 308.5 c 128,-1,3
 424 289 424 289 399.5 278 c 128,-1,4
 375 267 375 267 341 270 c 0,5,6
 312 274 312 274 305.5 295.5 c 128,-1,7
 299 317 299 317 303 344 c 0,8,9
 307 378 307 378 306 401 c 0,10,11
 304 432 304 432 286.5 437.5 c 128,-1,12
 269 443 269 443 248 425 c 128,-1,13
 227 407 227 407 210 364.5 c 128,-1,14
 193 322 193 322 193 257 c 2,15,-1
 196 31 l 2,16,17
 194 21 194 21 189 14 c 256,18,19
 184 7 184 7 174.5 2 c 128,-1,20
 165 -3 165 -3 148 -5 c 0,21,22
 130 -7 130 -7 111.5 -7.5 c 128,-1,23
 93 -8 93 -8 77 -5 c 128,-1,24
 61 -2 61 -2 49.5 6 c 128,-1,25
 38 14 38 14 34 31 c 0,26,27
 32 39 32 39 32 64 c 128,-1,28
 32 89 32 89 32.5 125 c 128,-1,29
 33 161 33 161 34 204.5 c 128,-1,30
 35 248 35 248 37 292 c 0,31,32
 41 395 41 395 47 520 c 0,33,34
 46 526 46 526 50 531 c 0,35,36
 53 535 53 535 59.5 538.5 c 128,-1,37
 66 542 66 542 80 543 c 0,38,39
 93 544 93 544 111.5 544.5 c 128,-1,40
 130 545 130 545 146.5 544 c 128,-1,41
 163 543 163 543 175 539 c 128,-1,42
 187 535 187 535 188 526 c 2,43,-1
 189 507 l 1,44,45
 222 530 222 530 264 540 c 128,-1,46
 306 550 306 550 349 539 c 0,47,48
 400 525 400 525 427 491.5 c 128,-1,49
 454 458 454 458 460 410 c 0,0,1
EndSplineSet
Validated: 33
EndChar

StartChar: s
Encoding: 115 115 76
Width: 486
GlyphClass: 1
Flags: W
LayerCount: 2
Fore
SplineSet
325 401 m 0,0,1
 325 426 325 426 312.5 441.5 c 128,-1,2
 300 457 300 457 282.5 464.5 c 128,-1,3
 265 472 265 472 245.5 472.5 c 128,-1,4
 226 473 226 473 213 468 c 0,5,6
 196 462 196 462 191 453 c 128,-1,7
 186 444 186 444 189 434.5 c 128,-1,8
 192 425 192 425 200 416.5 c 128,-1,9
 208 408 208 408 218 403 c 0,10,11
 230 397 230 397 245 390.5 c 128,-1,12
 260 384 260 384 274 379 c 128,-1,13
 288 374 288 374 299 369.5 c 128,-1,14
 310 365 310 365 316 362 c 0,15,16
 356 344 356 344 386.5 316.5 c 128,-1,17
 417 289 417 289 434 253 c 0,18,19
 450 218 450 218 450.5 184 c 128,-1,20
 451 150 451 150 439.5 119.5 c 128,-1,21
 428 89 428 89 406 63.5 c 128,-1,22
 384 38 384 38 356 20 c 0,23,24
 321 -2 321 -2 282.5 -9.5 c 128,-1,25
 244 -17 244 -17 207 -11.5 c 128,-1,26
 170 -6 170 -6 135.5 11.5 c 128,-1,27
 101 29 101 29 73 57 c 0,28,29
 55 75 55 75 44.5 97.5 c 128,-1,30
 34 120 34 120 32 143.5 c 128,-1,31
 30 167 30 167 36 190 c 128,-1,32
 42 213 42 213 59 231 c 0,33,34
 62 236 62 236 67 239 c 0,35,36
 81 251 81 251 96.5 248 c 128,-1,37
 112 245 112 245 119 223 c 0,38,39
 134 181 134 181 164.5 154 c 128,-1,40
 195 127 195 127 238 125 c 0,41,42
 252 124 252 124 265 128.5 c 128,-1,43
 278 133 278 133 287 141.5 c 128,-1,44
 296 150 296 150 299.5 163 c 128,-1,45
 303 176 303 176 297 193 c 0,46,47
 291 211 291 211 270.5 224 c 128,-1,48
 250 237 250 237 225 246.5 c 128,-1,49
 200 256 200 256 175 264 c 128,-1,50
 150 272 150 272 135 279 c 0,51,52
 97 297 97 297 67.5 323.5 c 128,-1,53
 38 350 38 350 30 394 c 0,54,55
 24 429 24 429 34.5 464.5 c 128,-1,56
 45 500 45 500 70 526 c 0,57,58
 89 545 89 545 112.5 558 c 128,-1,59
 136 571 136 571 160.5 578.5 c 128,-1,60
 185 586 185 586 209 588.5 c 128,-1,61
 233 591 233 591 253 591 c 0,62,63
 290 591 290 591 324.5 580.5 c 128,-1,64
 359 570 359 570 385.5 550.5 c 128,-1,65
 412 531 412 531 427.5 503 c 128,-1,66
 443 475 443 475 442 439 c 0,67,68
 442 425 442 425 434 413.5 c 128,-1,69
 426 402 426 402 413 393.5 c 128,-1,70
 400 385 400 385 384 381 c 128,-1,71
 368 377 368 377 350 377 c 0,72,73
 339 377 339 377 332 382 c 128,-1,74
 325 387 325 387 325 401 c 0,0,1
EndSplineSet
Validated: 33
EndChar

StartChar: t
Encoding: 116 116 77
Width: 434
GlyphClass: 1
Flags: W
LayerCount: 2
Fore
SplineSet
243 149 m 0,0,1
 250 132 250 132 261 124 c 128,-1,2
 272 116 272 116 285.5 115 c 128,-1,3
 299 114 299 114 314 117.5 c 128,-1,4
 329 121 329 121 345 127 c 0,5,6
 397 146 397 146 404 92 c 0,7,8
 408 66 408 66 401.5 40 c 128,-1,9
 395 14 395 14 381 0 c 0,10,11
 355 -26 355 -26 321 -33 c 128,-1,12
 287 -40 287 -40 255 -35 c 0,13,14
 212 -29 212 -29 180.5 -8 c 128,-1,15
 149 13 149 13 128 44.5 c 128,-1,16
 107 76 107 76 95 114.5 c 128,-1,17
 83 153 83 153 79 193 c 0,18,19
 75 232 75 232 76 272.5 c 128,-1,20
 77 313 77 313 79 361 c 1,21,22
 74 361 74 361 70.5 361.5 c 128,-1,23
 67 362 67 362 63 362 c 0,24,25
 42 364 42 364 35 372.5 c 128,-1,26
 28 381 28 381 24 404 c 0,27,28
 22 420 22 420 21.5 438 c 128,-1,29
 21 456 21 456 22 471 c 128,-1,30
 23 486 23 486 25.5 495.5 c 128,-1,31
 28 505 28 505 32 505 c 0,32,33
 47 506 47 506 62.5 506 c 128,-1,34
 78 506 78 506 94 506 c 1,35,36
 96 563 96 563 98.5 613 c 128,-1,37
 101 663 101 663 105 714 c 0,38,39
 106 728 106 728 117 736 c 128,-1,40
 128 744 128 744 144 746 c 0,41,42
 157 747 157 747 175.5 747.5 c 128,-1,43
 194 748 194 748 210.5 746 c 128,-1,44
 227 744 227 744 239 736.5 c 128,-1,45
 251 729 251 729 252 714 c 0,46,47
 253 659 253 659 249.5 606.5 c 128,-1,48
 246 554 246 554 243 503 c 1,49,50
 275 502 275 502 307.5 501.5 c 128,-1,51
 340 501 340 501 373 500 c 0,52,53
 379 498 379 498 384 492 c 0,54,55
 389 487 389 487 392 476.5 c 128,-1,56
 395 466 395 466 396 449 c 256,57,58
 397 432 397 432 397 413.5 c 128,-1,59
 397 395 397 395 394.5 379 c 128,-1,60
 392 363 392 363 386 352 c 128,-1,61
 380 341 380 341 369 338 c 0,62,63
 359 336 359 336 320.5 339 c 128,-1,64
 282 342 282 342 233 347 c 1,65,66
 233 328 233 328 231.5 302 c 128,-1,67
 230 276 230 276 230 248 c 128,-1,68
 230 220 230 220 232.5 194 c 128,-1,69
 235 168 235 168 243 149 c 0,0,1
EndSplineSet
Validated: 33
EndChar

StartChar: u
Encoding: 117 117 78
Width: 561
GlyphClass: 1
Flags: W
LayerCount: 2
Fore
SplineSet
529 521 m 0,0,1
 519 399 519 399 516 278 c 128,-1,2
 513 157 513 157 516 34 c 0,3,4
 515 25 515 25 510 18 c 0,5,6
 505 12 505 12 495 5.5 c 128,-1,7
 485 -1 485 -1 468 -3 c 0,8,9
 452 -5 452 -5 434.5 -6 c 128,-1,10
 417 -7 417 -7 401.5 -4.5 c 128,-1,11
 386 -2 386 -2 374 5 c 128,-1,12
 362 12 362 12 358 26 c 1,13,14
 281 -13 281 -13 221.5 -3 c 128,-1,15
 162 7 162 7 121 48 c 128,-1,16
 80 89 80 89 58.5 151 c 128,-1,17
 37 213 37 213 36 279 c 0,18,19
 35 337 35 337 40 396 c 128,-1,20
 45 455 45 455 59 514 c 0,21,22
 62 529 62 529 72 539 c 128,-1,23
 82 549 82 549 99 548 c 0,24,25
 113 547 113 547 131.5 545 c 128,-1,26
 150 543 150 543 166 538.5 c 128,-1,27
 182 534 182 534 193 526 c 128,-1,28
 204 518 204 518 203 504 c 0,29,30
 195 460 195 460 190.5 415 c 128,-1,31
 186 370 186 370 186 321 c 0,32,33
 186 255 186 255 201.5 213.5 c 128,-1,34
 217 172 217 172 239.5 156 c 128,-1,35
 262 140 262 140 287 151.5 c 128,-1,36
 312 163 312 163 332 203 c 0,37,38
 351 241 351 241 359.5 280.5 c 128,-1,39
 368 320 368 320 371.5 361 c 128,-1,40
 375 402 375 402 376 443.5 c 128,-1,41
 377 485 377 485 382 527 c 0,42,43
 383 534 383 534 388 539 c 0,44,45
 397 550 397 550 423 549 c 0,46,47
 436 548 436 548 454.5 547 c 128,-1,48
 473 546 473 546 489.5 543 c 128,-1,49
 506 540 506 540 517.5 535 c 128,-1,50
 529 530 529 530 529 521 c 0,0,1
EndSplineSet
Validated: 33
EndChar

StartChar: v
Encoding: 118 118 79
Width: 576
GlyphClass: 1
Flags: W
LayerCount: 2
Fore
SplineSet
449 549 m 0,0,1
 494 551 494 551 519.5 535 c 128,-1,2
 545 519 545 519 548 484 c 0,3,4
 549 476 549 476 548.5 467.5 c 128,-1,5
 548 459 548 459 547 450 c 0,6,7
 544 420 544 420 534 374 c 128,-1,8
 524 328 524 328 507.5 277 c 128,-1,9
 491 226 491 226 468 175 c 128,-1,10
 445 124 445 124 414.5 83 c 128,-1,11
 384 42 384 42 346.5 16.5 c 128,-1,12
 309 -9 309 -9 264 -9 c 0,13,14
 223 -9 223 -9 191 10.5 c 128,-1,15
 159 30 159 30 135 63 c 0,16,17
 101 109 101 109 79.5 161.5 c 128,-1,18
 58 214 58 214 45.5 270 c 128,-1,19
 33 326 33 326 28 384.5 c 128,-1,20
 23 443 23 443 22 500 c 0,21,22
 21 507 21 507 24 515 c 128,-1,23
 27 523 27 523 32.5 530 c 128,-1,24
 38 537 38 537 45.5 542 c 128,-1,25
 53 547 53 547 62 547 c 0,26,27
 76 548 76 548 94.5 549.5 c 128,-1,28
 113 551 113 551 130 548.5 c 128,-1,29
 147 546 147 546 159 538 c 128,-1,30
 171 530 171 530 173 512 c 0,31,32
 175 439 175 439 184 364 c 128,-1,33
 193 289 193 289 222 210 c 0,34,35
 233 180 233 180 244.5 161 c 128,-1,36
 256 142 256 142 265 143 c 0,37,38
 273 144 273 144 282 156 c 128,-1,39
 291 168 291 168 300.5 188 c 128,-1,40
 310 208 310 208 319.5 233.5 c 128,-1,41
 329 259 329 259 338 288 c 0,42,43
 355 343 355 343 366.5 398.5 c 128,-1,44
 378 454 378 454 389 494 c 0,45,46
 397 519 397 519 407.5 534 c 128,-1,47
 418 549 418 549 449 549 c 0,0,1
EndSplineSet
Validated: 33
EndChar

StartChar: w
Encoding: 119 119 80
Width: 857
GlyphClass: 1
Flags: W
LayerCount: 2
Fore
SplineSet
816 523 m 0,0,1
 824 463 824 463 829 402.5 c 128,-1,2
 834 342 834 342 829 277 c 0,3,4
 827 239 827 239 818 201 c 128,-1,5
 809 163 809 163 792 128.5 c 128,-1,6
 775 94 775 94 749 65 c 128,-1,7
 723 36 723 36 686 17 c 0,8,9
 652 -1 652 -1 614.5 -6.5 c 128,-1,10
 577 -12 577 -12 540.5 -4.5 c 128,-1,11
 504 3 504 3 472.5 23 c 128,-1,12
 441 43 441 43 419 76 c 1,13,14
 389 46 389 46 354 25 c 128,-1,15
 319 4 319 4 280.5 -2.5 c 128,-1,16
 242 -9 242 -9 202 1 c 128,-1,17
 162 11 162 11 123 43 c 0,18,19
 79 79 79 79 57 134 c 128,-1,20
 35 189 35 189 28 251.5 c 128,-1,21
 21 314 21 314 26.5 378.5 c 128,-1,22
 32 443 32 443 43 497 c 0,23,24
 45 507 45 507 48 516.5 c 128,-1,25
 51 526 51 526 54 535 c 0,26,27
 59 543 59 543 67 549 c 128,-1,28
 75 555 75 555 89 553 c 0,29,30
 102 551 102 551 120 548.5 c 128,-1,31
 138 546 138 546 154 541 c 128,-1,32
 170 536 170 536 180.5 526.5 c 128,-1,33
 191 517 191 517 189 501 c 0,34,35
 181 444 181 444 176 391.5 c 128,-1,36
 171 339 171 339 174 289 c 0,37,38
 181 214 181 214 204 183 c 128,-1,39
 227 152 227 152 253 157 c 128,-1,40
 279 162 279 162 300.5 198.5 c 128,-1,41
 322 235 322 235 326 294 c 0,42,43
 329 319 329 319 330 344.5 c 128,-1,44
 331 370 331 370 332 396 c 0,45,46
 332 416 332 416 341.5 429.5 c 128,-1,47
 351 443 351 443 365.5 450.5 c 128,-1,48
 380 458 380 458 398 460.5 c 128,-1,49
 416 463 416 463 433 462 c 0,50,51
 442 461 442 461 451 460 c 128,-1,52
 460 459 460 459 468 456 c 0,53,54
 484 449 484 449 495 434.5 c 128,-1,55
 506 420 506 420 510 391 c 0,56,57
 512 370 512 370 512.5 348 c 128,-1,58
 513 326 513 326 514 303 c 0,59,60
 517 236 517 236 535 198 c 128,-1,61
 553 160 553 160 577 150 c 128,-1,62
 601 140 601 140 627 157.5 c 128,-1,63
 653 175 653 175 671 219 c 0,64,65
 685 251 685 251 689 286 c 128,-1,66
 693 321 693 321 691.5 357 c 128,-1,67
 690 393 690 393 685 429 c 128,-1,68
 680 465 680 465 675 499 c 0,69,70
 672 513 672 513 678.5 527.5 c 128,-1,71
 685 542 685 542 702 545 c 0,72,73
 715 548 715 548 733.5 551.5 c 128,-1,74
 752 555 752 555 769 554 c 128,-1,75
 786 553 786 553 799.5 546.5 c 128,-1,76
 813 540 813 540 816 523 c 0,0,1
EndSplineSet
Validated: 33
EndChar

StartChar: x
Encoding: 120 120 81
Width: 578
GlyphClass: 1
Flags: W
LayerCount: 2
Fore
SplineSet
546 99 m 0,0,1
 552 91 552 91 553 81 c 0,2,3
 554 73 554 73 550.5 61.5 c 128,-1,4
 547 50 547 50 535 38 c 256,5,6
 523 26 523 26 509 14.5 c 128,-1,7
 495 3 495 3 480 -4 c 128,-1,8
 465 -11 465 -11 450 -10 c 128,-1,9
 435 -9 435 -9 420 4 c 0,10,11
 412 10 412 10 392.5 33 c 128,-1,12
 373 56 373 56 347 91 c 0,13,14
 334 108 334 108 319.5 127.5 c 128,-1,15
 305 147 305 147 289 167 c 1,16,17
 259 134 259 134 232.5 104.5 c 128,-1,18
 206 75 206 75 186 53 c 0,19,20
 162 27 162 27 142 5 c 0,21,22
 137 0 137 0 130 -3 c 0,23,24
 124 -5 124 -5 116 -4.5 c 128,-1,25
 108 -4 108 -4 97 4 c 0,26,27
 86 11 86 11 71.5 22 c 128,-1,28
 57 33 57 33 45 44.5 c 128,-1,29
 33 56 33 56 27.5 67 c 128,-1,30
 22 78 22 78 28 87 c 2,31,-1
 198 293 l 1,32,33
 172 329 172 329 150 361.5 c 128,-1,34
 128 394 128 394 111 419 c 0,35,36
 92 448 92 448 76 473 c 0,37,38
 71 479 71 479 70 486 c 0,39,40
 69 492 69 492 72 499 c 128,-1,41
 75 506 75 506 86 514 c 256,42,43
 97 522 97 522 112 532.5 c 128,-1,44
 127 543 127 543 141.5 551 c 128,-1,45
 156 559 156 559 168.5 561.5 c 128,-1,46
 181 564 181 564 188 556 c 0,47,48
 215 519 215 519 242 483.5 c 128,-1,49
 269 448 269 448 296 412 c 1,50,-1
 405 542 l 2,51,52
 412 548 412 548 422 552 c 0,53,54
 430 555 430 555 442 554.5 c 128,-1,55
 454 554 454 554 468 545 c 0,56,57
 483 536 483 536 498 525 c 128,-1,58
 513 514 513 514 523 501.5 c 128,-1,59
 533 489 533 489 535.5 474 c 128,-1,60
 538 459 538 459 528 442 c 0,61,62
 524 436 524 436 512.5 421 c 128,-1,63
 501 406 501 406 483 385.5 c 128,-1,64
 465 365 465 365 442.5 339.5 c 128,-1,65
 420 314 420 314 395 286 c 1,66,67
 433 239 433 239 470.5 192.5 c 128,-1,68
 508 146 508 146 546 99 c 0,0,1
EndSplineSet
Validated: 33
EndChar

StartChar: y
Encoding: 121 121 82
Width: 563
GlyphClass: 1
Flags: W
LayerCount: 2
Fore
SplineSet
418 553 m 0,0,1
 432 554 432 554 450.5 554.5 c 128,-1,2
 469 555 469 555 485.5 552 c 128,-1,3
 502 549 502 549 514 541 c 128,-1,4
 526 533 526 533 527 516 c 0,5,6
 528 390 528 390 528.5 300 c 128,-1,7
 529 210 529 210 528.5 148.5 c 128,-1,8
 528 87 528 87 527.5 48.5 c 128,-1,9
 527 10 527 10 525 -13 c 128,-1,10
 523 -36 523 -36 520.5 -49 c 128,-1,11
 518 -62 518 -62 515 -73 c 0,12,13
 505 -105 505 -105 488 -134 c 128,-1,14
 471 -163 471 -163 447 -186 c 128,-1,15
 423 -209 423 -209 391.5 -225.5 c 128,-1,16
 360 -242 360 -242 322 -249 c 0,17,18
 273 -257 273 -257 217.5 -251.5 c 128,-1,19
 162 -246 162 -246 113 -218 c 0,20,21
 93 -207 93 -207 87.5 -181.5 c 128,-1,22
 82 -156 82 -156 88 -131 c 128,-1,23
 94 -106 94 -106 110.5 -88.5 c 128,-1,24
 127 -71 127 -71 151 -75 c 1,25,26
 173 -83 173 -83 207.5 -90.5 c 128,-1,27
 242 -98 242 -98 276 -95.5 c 128,-1,28
 310 -93 310 -93 337.5 -75 c 128,-1,29
 365 -57 365 -57 374 -14 c 0,30,31
 377 3 377 3 378 22.5 c 128,-1,32
 379 42 379 42 378.5 62.5 c 128,-1,33
 378 83 378 83 377.5 104 c 128,-1,34
 377 125 377 125 378 144 c 1,35,36
 343 105 343 105 300 93 c 128,-1,37
 257 81 257 81 214 90 c 0,38,39
 155 103 155 103 117.5 136 c 128,-1,40
 80 169 80 169 60 214.5 c 128,-1,41
 40 260 40 260 34 314 c 128,-1,42
 28 368 28 368 33 423 c 0,43,44
 35 449 35 449 38 474 c 128,-1,45
 41 499 41 499 44 523 c 0,46,47
 47 531 47 531 53 537 c 0,48,49
 58 542 58 542 67 546.5 c 128,-1,50
 76 551 76 551 90 550 c 0,51,52
 103 549 103 549 121.5 548.5 c 128,-1,53
 140 548 140 548 156.5 545 c 128,-1,54
 173 542 173 542 184.5 536 c 128,-1,55
 196 530 196 530 196 519 c 0,56,57
 194 495 194 495 191 470 c 128,-1,58
 188 445 188 445 185.5 419.5 c 128,-1,59
 183 394 183 394 182.5 368.5 c 128,-1,60
 182 343 182 343 186 318 c 0,61,62
 191 275 191 275 207 252.5 c 128,-1,63
 223 230 223 230 244.5 224 c 128,-1,64
 266 218 266 218 289.5 227 c 128,-1,65
 313 236 313 236 333 256 c 128,-1,66
 353 276 353 276 366.5 305 c 128,-1,67
 380 334 380 334 382 369 c 0,68,69
 383 400 383 400 383.5 425.5 c 128,-1,70
 384 451 384 451 385 469 c 0,71,72
 386 490 386 490 386 507 c 0,73,74
 384 519 384 519 388 529 c 0,75,76
 390 537 390 537 397 544 c 128,-1,77
 404 551 404 551 418 553 c 0,0,1
EndSplineSet
Validated: 33
EndChar

StartChar: z
Encoding: 122 122 83
Width: 475
GlyphClass: 1
Flags: W
LayerCount: 2
Fore
SplineSet
430 541 m 0,0,1
 436 540 436 540 440.5 530 c 128,-1,2
 445 520 445 520 447 504.5 c 128,-1,3
 449 489 449 489 449 471.5 c 128,-1,4
 449 454 449 454 448 438.5 c 128,-1,5
 447 423 447 423 444.5 411 c 128,-1,6
 442 399 442 399 439 396 c 0,7,8
 383 336 383 336 334 273.5 c 128,-1,9
 285 211 285 211 236 145 c 1,10,-1
 406 146 l 2,11,12
 413 144 413 144 418 139 c 256,13,14
 423 134 423 134 427 124.5 c 128,-1,15
 431 115 431 115 433 98 c 0,16,17
 434 81 434 81 434.5 64.5 c 128,-1,18
 435 48 435 48 433 34.5 c 128,-1,19
 431 21 431 21 424.5 12 c 128,-1,20
 418 3 418 3 406 0 c 0,21,22
 400 -2 400 -2 381 -2.5 c 128,-1,23
 362 -3 362 -3 335.5 -3 c 128,-1,24
 309 -3 309 -3 277 -2.5 c 128,-1,25
 245 -2 245 -2 212 -1 c 0,26,27
 135 1 135 1 43 5 c 0,28,29
 39 4 39 4 35 8 c 0,30,31
 32 11 32 11 29 17.5 c 128,-1,32
 26 24 26 24 26 38 c 0,33,34
 25 58 25 58 24 86 c 128,-1,35
 23 114 23 114 28 131 c 1,36,37
 73 204 73 204 130 269.5 c 128,-1,38
 187 335 187 335 251 401 c 1,39,40
 206 401 206 401 162.5 400.5 c 128,-1,41
 119 400 119 400 75 399 c 0,42,43
 67 401 67 401 62 406 c 256,44,45
 57 411 57 411 53 420.5 c 128,-1,46
 49 430 49 430 47 447 c 0,47,48
 45 465 45 465 44.5 483 c 128,-1,49
 44 501 44 501 45.5 517 c 128,-1,50
 47 533 47 533 53 544.5 c 128,-1,51
 59 556 59 556 71 559 c 0,52,53
 76 560 76 560 103 559.5 c 128,-1,54
 130 559 130 559 168 557.5 c 128,-1,55
 206 556 206 556 250 554 c 128,-1,56
 294 552 294 552 332.5 549.5 c 128,-1,57
 371 547 371 547 398 545 c 128,-1,58
 425 543 425 543 430 541 c 0,0,1
EndSplineSet
Validated: 33
EndChar

StartChar: Agrave
Encoding: 192 192 84
Width: 611
GlyphClass: 1
Flags: W
LayerCount: 2
Fore
SplineSet
231 970 m 0,0,1
 257 952 257 952 279.5 936.5 c 128,-1,2
 302 921 302 921 324 906 c 128,-1,3
 346 891 346 891 368 875 c 128,-1,4
 390 859 390 859 415 840 c 0,5,6
 417 836 417 836 419 832 c 0,7,8
 420 828 420 828 420 822.5 c 128,-1,9
 420 817 420 817 415 809 c 0,10,11
 406 794 406 794 394 781 c 128,-1,12
 382 768 382 768 366 775 c 0,13,14
 340 793 340 793 319 809.5 c 128,-1,15
 298 826 298 826 277.5 842.5 c 128,-1,16
 257 859 257 859 236.5 876.5 c 128,-1,17
 216 894 216 894 192 912 c 0,18,19
 190 913 190 913 189 916 c 0,20,21
 188 918 188 918 188 922 c 128,-1,22
 188 926 188 926 192 932 c 256,23,24
 196 938 196 938 201.5 945.5 c 128,-1,25
 207 953 207 953 212.5 959.5 c 128,-1,26
 218 966 218 966 223 969.5 c 128,-1,27
 228 973 228 973 231 970 c 0,0,1
416 727 m 0,28,29
 454 705 454 705 481 673 c 128,-1,30
 508 641 508 641 526.5 603 c 128,-1,31
 545 565 545 565 556 522.5 c 128,-1,32
 567 480 567 480 573 437 c 0,33,34
 587 352 587 352 589 265 c 128,-1,35
 591 178 591 178 586 90 c 0,36,37
 584 65 584 65 582 49 c 128,-1,38
 580 33 580 33 574.5 23 c 128,-1,39
 569 13 569 13 559 7 c 128,-1,40
 549 1 549 1 531 -4 c 0,41,42
 514 -6 514 -6 495.5 -7 c 128,-1,43
 477 -8 477 -8 461 3 c 0,44,45
 446 13 446 13 436 37 c 128,-1,46
 426 61 426 61 425 106 c 2,47,-1
 425 116 l 1,48,49
 400 119 400 119 365.5 121 c 128,-1,50
 331 123 331 123 295 123.5 c 128,-1,51
 259 124 259 124 225.5 124 c 128,-1,52
 192 124 192 124 169 124 c 1,53,54
 168 115 168 115 166.5 94 c 128,-1,55
 165 73 165 73 160 52 c 128,-1,56
 155 31 155 31 146.5 14 c 128,-1,57
 138 -3 138 -3 123 -4 c 0,58,59
 109 -5 109 -5 91 -6 c 128,-1,60
 73 -7 73 -7 56 -2 c 0,61,62
 39 2 39 2 27.5 14 c 128,-1,63
 16 26 16 26 15 52 c 0,64,65
 15 83 15 83 16 123 c 128,-1,66
 17 163 17 163 20 210 c 0,67,68
 22 249 22 249 26.5 295.5 c 128,-1,69
 31 342 31 342 39.5 391 c 128,-1,70
 48 440 48 440 61.5 489 c 128,-1,71
 75 538 75 538 95.5 582 c 128,-1,72
 116 626 116 626 144 663 c 128,-1,73
 172 700 172 700 211 725 c 0,74,75
 257 754 257 754 312 754 c 128,-1,76
 367 754 367 754 416 727 c 0,28,29
173 272 m 1,77,78
 236 277 236 277 298.5 279.5 c 128,-1,79
 361 282 361 282 424 280 c 1,80,81
 427 351 427 351 418 407 c 128,-1,82
 409 463 409 463 393 501.5 c 128,-1,83
 377 540 377 540 355 560.5 c 128,-1,84
 333 581 333 581 310 581 c 0,85,86
 290 581 290 581 268.5 560.5 c 128,-1,87
 247 540 247 540 228.5 500.5 c 128,-1,88
 210 461 210 461 195 403 c 128,-1,89
 180 345 180 345 173 272 c 1,77,78
EndSplineSet
Validated: 33
EndChar

StartChar: Aacute
Encoding: 193 193 85
Width: 611
GlyphClass: 1
Flags: W
LayerCount: 2
Fore
SplineSet
378 970 m 0,0,1
 382 973 382 973 387 969.5 c 128,-1,2
 392 966 392 966 397.5 959.5 c 128,-1,3
 403 953 403 953 408.5 945.5 c 128,-1,4
 414 938 414 938 418 932 c 0,5,6
 423 922 423 922 421 916 c 0,7,8
 420 913 420 913 418 912 c 0,9,10
 394 894 394 894 373.5 877 c 128,-1,11
 353 860 353 860 332.5 843.5 c 128,-1,12
 312 827 312 827 291 810 c 128,-1,13
 270 793 270 793 245 775 c 0,14,15
 229 768 229 768 217 781 c 128,-1,16
 205 794 205 794 195 809 c 0,17,18
 186 823 186 823 190 832 c 0,19,20
 191 836 191 836 195 840 c 0,21,22
 220 859 220 859 242 875 c 128,-1,23
 264 891 264 891 286 906 c 128,-1,24
 308 921 308 921 330 936.5 c 128,-1,25
 352 952 352 952 378 970 c 0,0,1
416 727 m 0,26,27
 454 705 454 705 481 673 c 128,-1,28
 508 641 508 641 526.5 603 c 128,-1,29
 545 565 545 565 556 522.5 c 128,-1,30
 567 480 567 480 573 437 c 0,31,32
 587 352 587 352 589 265 c 128,-1,33
 591 178 591 178 586 90 c 0,34,35
 584 65 584 65 582 49 c 128,-1,36
 580 33 580 33 574.5 23 c 128,-1,37
 569 13 569 13 559 7 c 128,-1,38
 549 1 549 1 531 -4 c 0,39,40
 514 -6 514 -6 495.5 -7 c 128,-1,41
 477 -8 477 -8 461 3 c 0,42,43
 446 13 446 13 436 37 c 128,-1,44
 426 61 426 61 425 106 c 2,45,-1
 425 116 l 1,46,47
 400 119 400 119 365.5 121 c 128,-1,48
 331 123 331 123 295 123.5 c 128,-1,49
 259 124 259 124 225.5 124 c 128,-1,50
 192 124 192 124 169 124 c 1,51,52
 168 115 168 115 166.5 94 c 128,-1,53
 165 73 165 73 160 52 c 128,-1,54
 155 31 155 31 146.5 14 c 128,-1,55
 138 -3 138 -3 123 -4 c 0,56,57
 109 -5 109 -5 91 -6 c 128,-1,58
 73 -7 73 -7 56 -2 c 0,59,60
 39 2 39 2 27.5 14 c 128,-1,61
 16 26 16 26 15 52 c 0,62,63
 15 83 15 83 16 123 c 128,-1,64
 17 163 17 163 20 210 c 0,65,66
 22 249 22 249 26.5 295.5 c 128,-1,67
 31 342 31 342 39.5 391 c 128,-1,68
 48 440 48 440 61.5 489 c 128,-1,69
 75 538 75 538 95.5 582 c 128,-1,70
 116 626 116 626 144 663 c 128,-1,71
 172 700 172 700 211 725 c 0,72,73
 257 754 257 754 312 754 c 128,-1,74
 367 754 367 754 416 727 c 0,26,27
173 272 m 1,75,76
 236 277 236 277 298.5 279.5 c 128,-1,77
 361 282 361 282 424 280 c 1,78,79
 427 351 427 351 418 407 c 128,-1,80
 409 463 409 463 393 501.5 c 128,-1,81
 377 540 377 540 355 560.5 c 128,-1,82
 333 581 333 581 310 581 c 0,83,84
 290 581 290 581 268.5 560.5 c 128,-1,85
 247 540 247 540 228.5 500.5 c 128,-1,86
 210 461 210 461 195 403 c 128,-1,87
 180 345 180 345 173 272 c 1,75,76
EndSplineSet
Validated: 33
EndChar

StartChar: Acircumflex
Encoding: 194 194 86
Width: 611
GlyphClass: 1
Flags: W
LayerCount: 2
Fore
SplineSet
451 829 m 2,0,1
 451 825 451 825 450 821 c 0,2,3
 448 817 448 817 445.5 812.5 c 128,-1,4
 443 808 443 808 435 803 c 0,5,6
 420 793 420 793 404 785 c 128,-1,7
 388 777 388 777 379 786 c 0,8,9
 377 789 377 789 373 798 c 128,-1,10
 369 807 369 807 363 820.5 c 128,-1,11
 357 834 357 834 350.5 850.5 c 128,-1,12
 344 867 344 867 337 883 c 1,13,14
 325 866 325 866 311.5 848.5 c 128,-1,15
 298 831 298 831 287 817 c 0,16,17
 274 800 274 800 262 785 c 0,18,19
 254 778 254 778 236.5 782 c 128,-1,20
 219 786 219 786 202 795 c 128,-1,21
 185 804 185 804 174.5 816 c 128,-1,22
 164 828 164 828 169 838 c 2,23,-1
 269 999 l 1,24,25
 295 1000 295 1000 317 1000 c 0,26,27
 335 1000 335 1000 351 998.5 c 128,-1,28
 367 997 367 997 369 995 c 2,29,-1
 451 829 l 2,0,1
416 727 m 0,30,31
 454 705 454 705 481 673 c 128,-1,32
 508 641 508 641 526.5 603 c 128,-1,33
 545 565 545 565 556 522.5 c 128,-1,34
 567 480 567 480 573 437 c 0,35,36
 587 352 587 352 589 265 c 128,-1,37
 591 178 591 178 586 90 c 0,38,39
 584 65 584 65 582 49 c 128,-1,40
 580 33 580 33 574.5 23 c 128,-1,41
 569 13 569 13 559 7 c 128,-1,42
 549 1 549 1 531 -4 c 0,43,44
 514 -6 514 -6 495.5 -7 c 128,-1,45
 477 -8 477 -8 461 3 c 0,46,47
 446 13 446 13 436 37 c 128,-1,48
 426 61 426 61 425 106 c 2,49,-1
 425 116 l 1,50,51
 400 119 400 119 365.5 121 c 128,-1,52
 331 123 331 123 295 123.5 c 128,-1,53
 259 124 259 124 225.5 124 c 128,-1,54
 192 124 192 124 169 124 c 1,55,56
 168 115 168 115 166.5 94 c 128,-1,57
 165 73 165 73 160 52 c 128,-1,58
 155 31 155 31 146.5 14 c 128,-1,59
 138 -3 138 -3 123 -4 c 0,60,61
 109 -5 109 -5 91 -6 c 128,-1,62
 73 -7 73 -7 56 -2 c 0,63,64
 39 2 39 2 27.5 14 c 128,-1,65
 16 26 16 26 15 52 c 0,66,67
 15 83 15 83 16 123 c 128,-1,68
 17 163 17 163 20 210 c 0,69,70
 22 249 22 249 26.5 295.5 c 128,-1,71
 31 342 31 342 39.5 391 c 128,-1,72
 48 440 48 440 61.5 489 c 128,-1,73
 75 538 75 538 95.5 582 c 128,-1,74
 116 626 116 626 144 663 c 128,-1,75
 172 700 172 700 211 725 c 0,76,77
 257 754 257 754 312 754 c 128,-1,78
 367 754 367 754 416 727 c 0,30,31
173 272 m 1,79,80
 236 277 236 277 298.5 279.5 c 128,-1,81
 361 282 361 282 424 280 c 1,82,83
 427 351 427 351 418 407 c 128,-1,84
 409 463 409 463 393 501.5 c 128,-1,85
 377 540 377 540 355 560.5 c 128,-1,86
 333 581 333 581 310 581 c 0,87,88
 290 581 290 581 268.5 560.5 c 128,-1,89
 247 540 247 540 228.5 500.5 c 128,-1,90
 210 461 210 461 195 403 c 128,-1,91
 180 345 180 345 173 272 c 1,79,80
EndSplineSet
Validated: 33
EndChar

StartChar: Atilde
Encoding: 195 195 87
Width: 611
GlyphClass: 1
Flags: W
LayerCount: 2
Fore
SplineSet
159 832 m 0,0,1
 166 866 166 866 180.5 899 c 128,-1,2
 195 932 195 932 221 952 c 0,3,4
 244 969 244 969 271.5 968 c 128,-1,5
 299 967 299 967 318 939 c 0,6,7
 326 926 326 926 330 913 c 128,-1,8
 334 900 334 900 342 886 c 0,9,10
 349 873 349 873 358.5 880 c 128,-1,11
 368 887 368 887 370 912 c 0,12,13
 370 924 370 924 379.5 929.5 c 128,-1,14
 389 935 389 935 399 935 c 0,15,16
 425 935 425 935 440 927 c 128,-1,17
 455 919 455 919 454 894 c 0,18,19
 453 864 453 864 442 837.5 c 128,-1,20
 431 811 431 811 409 798 c 0,21,22
 385 784 385 784 355.5 786 c 128,-1,23
 326 788 326 788 309 807 c 0,24,25
 298 819 298 819 289.5 832.5 c 128,-1,26
 281 846 281 846 270 857 c 0,27,28
 263 864 263 864 257.5 862.5 c 128,-1,29
 252 861 252 861 247.5 855 c 128,-1,30
 243 849 243 849 240 839.5 c 128,-1,31
 237 830 237 830 234 821 c 0,32,33
 232 815 232 815 229 811 c 128,-1,34
 226 807 226 807 223 805 c 0,35,36
 218 802 218 802 207 802.5 c 128,-1,37
 196 803 196 803 185 807 c 128,-1,38
 174 811 174 811 165.5 817.5 c 128,-1,39
 157 824 157 824 159 832 c 0,0,1
416 727 m 0,40,41
 454 705 454 705 481 673 c 128,-1,42
 508 641 508 641 526.5 603 c 128,-1,43
 545 565 545 565 556 522.5 c 128,-1,44
 567 480 567 480 573 437 c 0,45,46
 587 352 587 352 589 265 c 128,-1,47
 591 178 591 178 586 90 c 0,48,49
 584 65 584 65 582 49 c 128,-1,50
 580 33 580 33 574.5 23 c 128,-1,51
 569 13 569 13 559 7 c 128,-1,52
 549 1 549 1 531 -4 c 0,53,54
 514 -6 514 -6 495.5 -7 c 128,-1,55
 477 -8 477 -8 461 3 c 0,56,57
 446 13 446 13 436 37 c 128,-1,58
 426 61 426 61 425 106 c 2,59,-1
 425 116 l 1,60,61
 400 119 400 119 365.5 121 c 128,-1,62
 331 123 331 123 295 123.5 c 128,-1,63
 259 124 259 124 225.5 124 c 128,-1,64
 192 124 192 124 169 124 c 1,65,66
 168 115 168 115 166.5 94 c 128,-1,67
 165 73 165 73 160 52 c 128,-1,68
 155 31 155 31 146.5 14 c 128,-1,69
 138 -3 138 -3 123 -4 c 0,70,71
 109 -5 109 -5 91 -6 c 128,-1,72
 73 -7 73 -7 56 -2 c 0,73,74
 39 2 39 2 27.5 14 c 128,-1,75
 16 26 16 26 15 52 c 0,76,77
 15 83 15 83 16 123 c 128,-1,78
 17 163 17 163 20 210 c 0,79,80
 22 249 22 249 26.5 295.5 c 128,-1,81
 31 342 31 342 39.5 391 c 128,-1,82
 48 440 48 440 61.5 489 c 128,-1,83
 75 538 75 538 95.5 582 c 128,-1,84
 116 626 116 626 144 663 c 128,-1,85
 172 700 172 700 211 725 c 0,86,87
 257 754 257 754 312 754 c 128,-1,88
 367 754 367 754 416 727 c 0,40,41
173 272 m 1,89,90
 236 277 236 277 298.5 279.5 c 128,-1,91
 361 282 361 282 424 280 c 1,92,93
 427 351 427 351 418 407 c 128,-1,94
 409 463 409 463 393 501.5 c 128,-1,95
 377 540 377 540 355 560.5 c 128,-1,96
 333 581 333 581 310 581 c 0,97,98
 290 581 290 581 268.5 560.5 c 128,-1,99
 247 540 247 540 228.5 500.5 c 128,-1,100
 210 461 210 461 195 403 c 128,-1,101
 180 345 180 345 173 272 c 1,89,90
EndSplineSet
Validated: 33
EndChar

StartChar: Adieresis
Encoding: 196 196 88
Width: 611
GlyphClass: 1
Flags: W
LayerCount: 2
Fore
SplineSet
294 864 m 0,0,1
 294 838 294 838 275 819 c 128,-1,2
 256 800 256 800 229 800 c 256,3,4
 202 800 202 800 183 819 c 128,-1,5
 164 838 164 838 164 864 c 0,6,7
 164 891 164 891 183 910.5 c 128,-1,8
 202 930 202 930 229 930 c 256,9,10
 256 930 256 930 275 910.5 c 128,-1,11
 294 891 294 891 294 864 c 0,0,1
447 864 m 0,12,13
 447 838 447 838 428 819 c 128,-1,14
 409 800 409 800 382 800 c 256,15,16
 355 800 355 800 336 819 c 128,-1,17
 317 838 317 838 317 864 c 0,18,19
 317 891 317 891 336 910.5 c 128,-1,20
 355 930 355 930 382 930 c 256,21,22
 409 930 409 930 428 910.5 c 128,-1,23
 447 891 447 891 447 864 c 0,12,13
416 727 m 0,24,25
 454 705 454 705 481 673 c 128,-1,26
 508 641 508 641 526.5 603 c 128,-1,27
 545 565 545 565 556 522.5 c 128,-1,28
 567 480 567 480 573 437 c 0,29,30
 587 352 587 352 589 265 c 128,-1,31
 591 178 591 178 586 90 c 0,32,33
 584 65 584 65 582 49 c 128,-1,34
 580 33 580 33 574.5 23 c 128,-1,35
 569 13 569 13 559 7 c 128,-1,36
 549 1 549 1 531 -4 c 0,37,38
 514 -6 514 -6 495.5 -7 c 128,-1,39
 477 -8 477 -8 461 3 c 0,40,41
 446 13 446 13 436 37 c 128,-1,42
 426 61 426 61 425 106 c 2,43,-1
 425 116 l 1,44,45
 400 119 400 119 365.5 121 c 128,-1,46
 331 123 331 123 295 123.5 c 128,-1,47
 259 124 259 124 225.5 124 c 128,-1,48
 192 124 192 124 169 124 c 1,49,50
 168 115 168 115 166.5 94 c 128,-1,51
 165 73 165 73 160 52 c 128,-1,52
 155 31 155 31 146.5 14 c 128,-1,53
 138 -3 138 -3 123 -4 c 0,54,55
 109 -5 109 -5 91 -6 c 128,-1,56
 73 -7 73 -7 56 -2 c 0,57,58
 39 2 39 2 27.5 14 c 128,-1,59
 16 26 16 26 15 52 c 0,60,61
 15 83 15 83 16 123 c 128,-1,62
 17 163 17 163 20 210 c 0,63,64
 22 249 22 249 26.5 295.5 c 128,-1,65
 31 342 31 342 39.5 391 c 128,-1,66
 48 440 48 440 61.5 489 c 128,-1,67
 75 538 75 538 95.5 582 c 128,-1,68
 116 626 116 626 144 663 c 128,-1,69
 172 700 172 700 211 725 c 0,70,71
 257 754 257 754 312 754 c 128,-1,72
 367 754 367 754 416 727 c 0,24,25
173 272 m 1,73,74
 236 277 236 277 298.5 279.5 c 128,-1,75
 361 282 361 282 424 280 c 1,76,77
 427 351 427 351 418 407 c 128,-1,78
 409 463 409 463 393 501.5 c 128,-1,79
 377 540 377 540 355 560.5 c 128,-1,80
 333 581 333 581 310 581 c 0,81,82
 290 581 290 581 268.5 560.5 c 128,-1,83
 247 540 247 540 228.5 500.5 c 128,-1,84
 210 461 210 461 195 403 c 128,-1,85
 180 345 180 345 173 272 c 1,73,74
EndSplineSet
Validated: 33
EndChar

StartChar: Aring
Encoding: 197 197 89
Width: 611
GlyphClass: 1
Flags: W
LayerCount: 2
Fore
SplineSet
305 785 m 0,0,1
 285 785 285 785 267 793 c 128,-1,2
 249 801 249 801 235.5 814.5 c 128,-1,3
 222 828 222 828 214.5 846 c 128,-1,4
 207 864 207 864 207 884 c 0,5,6
 207 925 207 925 235.5 953.5 c 128,-1,7
 264 982 264 982 305 982 c 0,8,9
 347 982 347 982 375.5 953.5 c 128,-1,10
 404 925 404 925 404 884 c 0,11,12
 404 864 404 864 396.5 846 c 128,-1,13
 389 828 389 828 375.5 814.5 c 128,-1,14
 362 801 362 801 344 793 c 128,-1,15
 326 785 326 785 305 785 c 0,0,1
305 914 m 0,16,17
 293 914 293 914 284 905.5 c 128,-1,18
 275 897 275 897 275 884 c 256,19,20
 275 871 275 871 284 862 c 128,-1,21
 293 853 293 853 305 853 c 0,22,23
 318 853 318 853 327 862 c 128,-1,24
 336 871 336 871 336 884 c 256,25,26
 336 897 336 897 327 905.5 c 128,-1,27
 318 914 318 914 305 914 c 0,16,17
416 727 m 0,28,29
 454 705 454 705 481 673 c 128,-1,30
 508 641 508 641 526.5 603 c 128,-1,31
 545 565 545 565 556 522.5 c 128,-1,32
 567 480 567 480 573 437 c 0,33,34
 587 352 587 352 589 265 c 128,-1,35
 591 178 591 178 586 90 c 0,36,37
 584 65 584 65 582 49 c 128,-1,38
 580 33 580 33 574.5 23 c 128,-1,39
 569 13 569 13 559 7 c 128,-1,40
 549 1 549 1 531 -4 c 0,41,42
 514 -6 514 -6 495.5 -7 c 128,-1,43
 477 -8 477 -8 461 3 c 0,44,45
 446 13 446 13 436 37 c 128,-1,46
 426 61 426 61 425 106 c 2,47,-1
 425 116 l 1,48,49
 400 119 400 119 365.5 121 c 128,-1,50
 331 123 331 123 295 123.5 c 128,-1,51
 259 124 259 124 225.5 124 c 128,-1,52
 192 124 192 124 169 124 c 1,53,54
 168 115 168 115 166.5 94 c 128,-1,55
 165 73 165 73 160 52 c 128,-1,56
 155 31 155 31 146.5 14 c 128,-1,57
 138 -3 138 -3 123 -4 c 0,58,59
 109 -5 109 -5 91 -6 c 128,-1,60
 73 -7 73 -7 56 -2 c 0,61,62
 39 2 39 2 27.5 14 c 128,-1,63
 16 26 16 26 15 52 c 0,64,65
 15 83 15 83 16 123 c 128,-1,66
 17 163 17 163 20 210 c 0,67,68
 22 249 22 249 26.5 295.5 c 128,-1,69
 31 342 31 342 39.5 391 c 128,-1,70
 48 440 48 440 61.5 489 c 128,-1,71
 75 538 75 538 95.5 582 c 128,-1,72
 116 626 116 626 144 663 c 128,-1,73
 172 700 172 700 211 725 c 0,74,75
 257 754 257 754 312 754 c 128,-1,76
 367 754 367 754 416 727 c 0,28,29
173 272 m 1,77,78
 236 277 236 277 298.5 279.5 c 128,-1,79
 361 282 361 282 424 280 c 1,80,81
 427 351 427 351 418 407 c 128,-1,82
 409 463 409 463 393 501.5 c 128,-1,83
 377 540 377 540 355 560.5 c 128,-1,84
 333 581 333 581 310 581 c 0,85,86
 290 581 290 581 268.5 560.5 c 128,-1,87
 247 540 247 540 228.5 500.5 c 128,-1,88
 210 461 210 461 195 403 c 128,-1,89
 180 345 180 345 173 272 c 1,77,78
EndSplineSet
Validated: 33
EndChar

StartChar: AE
Encoding: 198 198 90
Width: 801
GlyphClass: 1
Flags: W
LayerCount: 2
Fore
SplineSet
726 153 m 0,0,1
 755 153 755 153 763 142.5 c 128,-1,2
 771 132 771 132 769 100 c 0,3,4
 768 82 768 82 766.5 63.5 c 128,-1,5
 765 45 765 45 761 29.5 c 128,-1,6
 757 14 757 14 751 3 c 128,-1,7
 745 -8 745 -8 735 -11 c 0,8,9
 730 -13 730 -13 715 -11.5 c 128,-1,10
 700 -10 700 -10 679 -8 c 0,11,12
 620 -3 620 -3 560.5 -3 c 128,-1,13
 501 -3 501 -3 435 -8 c 0,14,15
 419 -10 419 -10 403 -10 c 128,-1,16
 387 -10 387 -10 372 -5.5 c 128,-1,17
 357 -1 357 -1 345 9 c 128,-1,18
 333 19 333 19 326 39 c 0,19,20
 323 47 323 47 321 69.5 c 128,-1,21
 319 92 319 92 317 123 c 1,22,23
 276 125 276 125 237 124.5 c 128,-1,24
 198 124 198 124 172 124 c 1,25,26
 171 115 171 115 169.5 94 c 128,-1,27
 168 73 168 73 163 52 c 128,-1,28
 158 31 158 31 149.5 14 c 128,-1,29
 141 -3 141 -3 126 -4 c 0,30,31
 112 -5 112 -5 94 -6 c 128,-1,32
 76 -7 76 -7 59 -2 c 0,33,34
 42 2 42 2 30.5 14 c 128,-1,35
 19 26 19 26 18 52 c 0,36,37
 18 83 18 83 19 123 c 128,-1,38
 20 163 20 163 23 210 c 0,39,40
 25 249 25 249 29.5 295.5 c 128,-1,41
 34 342 34 342 42.5 391 c 128,-1,42
 51 440 51 440 64.5 489 c 128,-1,43
 78 538 78 538 98.5 582 c 128,-1,44
 119 626 119 626 147 663 c 128,-1,45
 175 700 175 700 214 725 c 0,46,47
 249 746 249 746 289 752 c 128,-1,48
 329 758 329 758 369 747 c 0,49,50
 375 748 375 748 381 748.5 c 128,-1,51
 387 749 387 749 394 749 c 0,52,53
 434 751 434 751 479 752.5 c 128,-1,54
 524 754 524 754 569.5 755 c 128,-1,55
 615 756 615 756 659 756 c 128,-1,56
 703 756 703 756 742 756 c 0,57,58
 745 755 745 755 748 753 c 0,59,60
 754 749 754 749 759 740 c 0,61,62
 765 729 765 729 767.5 707 c 128,-1,63
 770 685 770 685 768.5 661.5 c 128,-1,64
 767 638 767 638 760 618.5 c 128,-1,65
 753 599 753 599 741 593 c 0,66,67
 736 592 736 592 719.5 592 c 128,-1,68
 703 592 703 592 680.5 592.5 c 128,-1,69
 658 593 658 593 630.5 594.5 c 128,-1,70
 603 596 603 596 576.5 597.5 c 128,-1,71
 550 599 550 599 525.5 600 c 128,-1,72
 501 601 501 601 484 601 c 1,73,-1
 480 441 l 1,74,-1
 666 442 l 2,75,76
 685 439 685 439 692 417 c 128,-1,77
 699 395 699 395 698.5 368.5 c 128,-1,78
 698 342 698 342 690.5 319.5 c 128,-1,79
 683 297 683 297 673 293 c 0,80,81
 668 291 668 291 646.5 291.5 c 128,-1,82
 625 292 625 292 596 293 c 128,-1,83
 567 294 567 294 535 295.5 c 128,-1,84
 503 297 503 297 478 299 c 1,85,86
 477 260 477 260 477.5 222 c 128,-1,87
 478 184 478 184 480 146 c 1,88,89
 506 149 506 149 537 150.5 c 128,-1,90
 568 152 568 152 600.5 153 c 128,-1,91
 633 154 633 154 665.5 154 c 128,-1,92
 698 154 698 154 726 153 c 0,0,1
317 280 m 1,93,94
 317 355 317 355 318 430 c 128,-1,95
 319 505 319 505 322 580 c 1,96,97
 320 580 320 580 317.5 580.5 c 128,-1,98
 315 581 315 581 313 581 c 0,99,100
 293 581 293 581 271.5 560.5 c 128,-1,101
 250 540 250 540 231.5 500.5 c 128,-1,102
 213 461 213 461 198 403 c 128,-1,103
 183 345 183 345 176 272 c 1,104,105
 211 275 211 275 246.5 277 c 128,-1,106
 282 279 282 279 317 280 c 1,93,94
EndSplineSet
Validated: 33
EndChar

StartChar: Ccedilla
Encoding: 199 199 91
Width: 554
GlyphClass: 1
Flags: W
LayerCount: 2
Fore
SplineSet
372 535 m 0,0,1
 373 564 373 564 362.5 578.5 c 128,-1,2
 352 593 352 593 336 596.5 c 128,-1,3
 320 600 320 600 301.5 593 c 128,-1,4
 283 586 283 586 268 573 c 0,5,6
 233 543 233 543 211.5 496.5 c 128,-1,7
 190 450 190 450 182.5 399 c 128,-1,8
 175 348 175 348 181.5 297.5 c 128,-1,9
 188 247 188 247 210 210 c 0,10,11
 224 186 224 186 243.5 174.5 c 128,-1,12
 263 163 263 163 285 161.5 c 128,-1,13
 307 160 307 160 328.5 168.5 c 128,-1,14
 350 177 350 177 367 194 c 0,15,16
 393 220 393 220 409 231 c 128,-1,17
 425 242 425 242 445 243 c 0,18,19
 502 243 502 243 520.5 211 c 128,-1,20
 539 179 539 179 523 133 c 0,21,22
 510 96 510 96 482.5 69 c 128,-1,23
 455 42 455 42 420 25.5 c 128,-1,24
 385 9 385 9 344.5 3 c 128,-1,25
 304 -3 304 -3 265 0 c 1,26,27
 262 -7 262 -7 259.5 -15.5 c 128,-1,28
 257 -24 257 -24 255 -35 c 1,29,30
 280 -31 280 -31 303 -35 c 128,-1,31
 326 -39 326 -39 343.5 -49.5 c 128,-1,32
 361 -60 361 -60 371.5 -77.5 c 128,-1,33
 382 -95 382 -95 384 -118 c 0,34,35
 387 -154 387 -154 369.5 -184 c 128,-1,36
 352 -214 352 -214 323 -229 c 0,37,38
 302 -240 302 -240 274 -243 c 128,-1,39
 246 -246 246 -246 220 -234 c 0,40,41
 203 -226 203 -226 193.5 -209 c 128,-1,42
 184 -192 184 -192 191 -167 c 0,43,44
 196 -151 196 -151 209 -148 c 128,-1,45
 222 -145 222 -145 235 -150 c 0,46,47
 249 -156 249 -156 262 -152.5 c 128,-1,48
 275 -149 275 -149 282.5 -141 c 128,-1,49
 290 -133 290 -133 289.5 -123.5 c 128,-1,50
 289 -114 289 -114 277 -108 c 0,51,52
 270 -105 270 -105 258.5 -105 c 128,-1,53
 247 -105 247 -105 233.5 -106 c 128,-1,54
 220 -107 220 -107 206.5 -108 c 128,-1,55
 193 -109 193 -109 184 -109 c 0,56,57
 173 -109 173 -109 167.5 -99 c 128,-1,58
 162 -89 162 -89 160 -75.5 c 128,-1,59
 158 -62 158 -62 159 -48.5 c 128,-1,60
 160 -35 160 -35 162 -28 c 0,61,62
 167 -17 167 -17 170 -3 c 128,-1,63
 173 11 173 11 176 24 c 1,64,65
 153 35 153 35 134 53 c 0,66,67
 106 79 106 79 85 112.5 c 128,-1,68
 64 146 64 146 50 183.5 c 128,-1,69
 36 221 36 221 29 261.5 c 128,-1,70
 22 302 22 302 22 343 c 0,71,72
 24 435 24 435 61 521 c 128,-1,73
 98 607 98 607 159 671 c 0,74,75
 187 700 187 700 225.5 720.5 c 128,-1,76
 264 741 264 741 304.5 747 c 128,-1,77
 345 753 345 753 384 743 c 128,-1,78
 423 733 423 733 453 701 c 0,79,80
 476 677 476 677 490 646 c 128,-1,81
 504 615 504 615 511 584 c 0,82,83
 515 564 515 564 514.5 546 c 128,-1,84
 514 528 514 528 506 512 c 0,85,86
 495 492 495 492 472 483.5 c 128,-1,87
 449 475 449 475 426.5 478 c 128,-1,88
 404 481 404 481 387.5 495.5 c 128,-1,89
 371 510 371 510 372 535 c 0,0,1
EndSplineSet
Validated: 33
EndChar

StartChar: Egrave
Encoding: 200 200 92
Width: 513
GlyphClass: 1
Flags: W
LayerCount: 2
Fore
SplineSet
182 990 m 0,0,1
 208 972 208 972 230.5 956.5 c 128,-1,2
 253 941 253 941 275 926 c 128,-1,3
 297 911 297 911 319 895 c 128,-1,4
 341 879 341 879 366 860 c 0,5,6
 368 856 368 856 370 852 c 0,7,8
 371 848 371 848 371 842.5 c 128,-1,9
 371 837 371 837 366 829 c 0,10,11
 357 814 357 814 345 801 c 128,-1,12
 333 788 333 788 317 795 c 0,13,14
 291 813 291 813 270 829.5 c 128,-1,15
 249 846 249 846 228.5 862.5 c 128,-1,16
 208 879 208 879 187.5 896.5 c 128,-1,17
 167 914 167 914 143 932 c 0,18,19
 141 933 141 933 140 936 c 0,20,21
 139 938 139 938 139 942 c 128,-1,22
 139 946 139 946 143 952 c 256,23,24
 147 958 147 958 152.5 965.5 c 128,-1,25
 158 973 158 973 163.5 979.5 c 128,-1,26
 169 986 169 986 174 989.5 c 128,-1,27
 179 993 179 993 182 990 c 0,0,1
438 153 m 0,28,29
 467 153 467 153 475 142.5 c 128,-1,30
 483 132 483 132 481 100 c 0,31,32
 480 82 480 82 478.5 63.5 c 128,-1,33
 477 45 477 45 473 29.5 c 128,-1,34
 469 14 469 14 463 3 c 128,-1,35
 457 -8 457 -8 447 -11 c 0,36,37
 442 -13 442 -13 427 -11.5 c 128,-1,38
 412 -10 412 -10 391 -8 c 0,39,40
 332 -3 332 -3 272.5 -3 c 128,-1,41
 213 -3 213 -3 147 -8 c 0,42,43
 131 -10 131 -10 115 -10 c 128,-1,44
 99 -10 99 -10 84 -5.5 c 128,-1,45
 69 -1 69 -1 57 9 c 128,-1,46
 45 19 45 19 38 39 c 0,47,48
 34 51 34 51 31.5 87 c 128,-1,49
 29 123 29 123 29 173 c 0,50,51
 29 305 29 305 30 439 c 128,-1,52
 31 573 31 573 41 705 c 0,53,54
 41 730 41 730 61 739.5 c 128,-1,55
 81 749 81 749 106 749 c 0,56,57
 146 751 146 751 191 752.5 c 128,-1,58
 236 754 236 754 281.5 755 c 128,-1,59
 327 756 327 756 371 756 c 128,-1,60
 415 756 415 756 454 756 c 0,61,62
 457 755 457 755 460 753 c 0,63,64
 466 749 466 749 471 740 c 0,65,66
 477 729 477 729 479.5 707 c 128,-1,67
 482 685 482 685 480.5 661.5 c 128,-1,68
 479 638 479 638 472 618.5 c 128,-1,69
 465 599 465 599 453 593 c 0,70,71
 448 592 448 592 431.5 592 c 128,-1,72
 415 592 415 592 392.5 592.5 c 128,-1,73
 370 593 370 593 342.5 594.5 c 128,-1,74
 315 596 315 596 288.5 597.5 c 128,-1,75
 262 599 262 599 237.5 600 c 128,-1,76
 213 601 213 601 196 601 c 1,77,-1
 192 441 l 1,78,-1
 378 442 l 2,79,80
 397 439 397 439 404 417 c 128,-1,81
 411 395 411 395 410.5 368.5 c 128,-1,82
 410 342 410 342 402.5 319.5 c 128,-1,83
 395 297 395 297 385 293 c 0,84,85
 380 291 380 291 358.5 291.5 c 128,-1,86
 337 292 337 292 308 293 c 128,-1,87
 279 294 279 294 247 295.5 c 128,-1,88
 215 297 215 297 190 299 c 1,89,90
 189 260 189 260 189.5 222 c 128,-1,91
 190 184 190 184 192 146 c 1,92,93
 218 149 218 149 249 150.5 c 128,-1,94
 280 152 280 152 312.5 153 c 128,-1,95
 345 154 345 154 377.5 154 c 128,-1,96
 410 154 410 154 438 153 c 0,28,29
EndSplineSet
Validated: 33
EndChar

StartChar: Eacute
Encoding: 201 201 93
Width: 513
GlyphClass: 1
Flags: W
LayerCount: 2
Fore
SplineSet
329 983 m 0,0,1
 333 986 333 986 338 982.5 c 128,-1,2
 343 979 343 979 348.5 972.5 c 128,-1,3
 354 966 354 966 359.5 958.5 c 128,-1,4
 365 951 365 951 369 945 c 0,5,6
 374 935 374 935 372 929 c 0,7,8
 371 926 371 926 369 925 c 0,9,10
 345 907 345 907 324.5 890 c 128,-1,11
 304 873 304 873 283.5 856.5 c 128,-1,12
 263 840 263 840 242 823 c 128,-1,13
 221 806 221 806 196 788 c 0,14,15
 180 781 180 781 168 794 c 128,-1,16
 156 807 156 807 146 822 c 0,17,18
 137 836 137 836 141 845 c 0,19,20
 142 849 142 849 146 853 c 0,21,22
 171 872 171 872 193 888 c 128,-1,23
 215 904 215 904 237 919 c 128,-1,24
 259 934 259 934 281 949.5 c 128,-1,25
 303 965 303 965 329 983 c 0,0,1
438 153 m 0,26,27
 467 153 467 153 475 142.5 c 128,-1,28
 483 132 483 132 481 100 c 0,29,30
 480 82 480 82 478.5 63.5 c 128,-1,31
 477 45 477 45 473 29.5 c 128,-1,32
 469 14 469 14 463 3 c 128,-1,33
 457 -8 457 -8 447 -11 c 0,34,35
 442 -13 442 -13 427 -11.5 c 128,-1,36
 412 -10 412 -10 391 -8 c 0,37,38
 332 -3 332 -3 272.5 -3 c 128,-1,39
 213 -3 213 -3 147 -8 c 0,40,41
 131 -10 131 -10 115 -10 c 128,-1,42
 99 -10 99 -10 84 -5.5 c 128,-1,43
 69 -1 69 -1 57 9 c 128,-1,44
 45 19 45 19 38 39 c 0,45,46
 34 51 34 51 31.5 87 c 128,-1,47
 29 123 29 123 29 173 c 0,48,49
 29 305 29 305 30 439 c 128,-1,50
 31 573 31 573 41 705 c 0,51,52
 41 730 41 730 61 739.5 c 128,-1,53
 81 749 81 749 106 749 c 0,54,55
 146 751 146 751 191 752.5 c 128,-1,56
 236 754 236 754 281.5 755 c 128,-1,57
 327 756 327 756 371 756 c 128,-1,58
 415 756 415 756 454 756 c 0,59,60
 457 755 457 755 460 753 c 0,61,62
 466 749 466 749 471 740 c 0,63,64
 477 729 477 729 479.5 707 c 128,-1,65
 482 685 482 685 480.5 661.5 c 128,-1,66
 479 638 479 638 472 618.5 c 128,-1,67
 465 599 465 599 453 593 c 0,68,69
 448 592 448 592 431.5 592 c 128,-1,70
 415 592 415 592 392.5 592.5 c 128,-1,71
 370 593 370 593 342.5 594.5 c 128,-1,72
 315 596 315 596 288.5 597.5 c 128,-1,73
 262 599 262 599 237.5 600 c 128,-1,74
 213 601 213 601 196 601 c 1,75,-1
 192 441 l 1,76,-1
 378 442 l 2,77,78
 397 439 397 439 404 417 c 128,-1,79
 411 395 411 395 410.5 368.5 c 128,-1,80
 410 342 410 342 402.5 319.5 c 128,-1,81
 395 297 395 297 385 293 c 0,82,83
 380 291 380 291 358.5 291.5 c 128,-1,84
 337 292 337 292 308 293 c 128,-1,85
 279 294 279 294 247 295.5 c 128,-1,86
 215 297 215 297 190 299 c 1,87,88
 189 260 189 260 189.5 222 c 128,-1,89
 190 184 190 184 192 146 c 1,90,91
 218 149 218 149 249 150.5 c 128,-1,92
 280 152 280 152 312.5 153 c 128,-1,93
 345 154 345 154 377.5 154 c 128,-1,94
 410 154 410 154 438 153 c 0,26,27
EndSplineSet
Validated: 33
EndChar

StartChar: Ecircumflex
Encoding: 202 202 94
Width: 513
GlyphClass: 1
Flags: W
LayerCount: 2
Fore
SplineSet
402 831 m 2,0,1
 402 827 402 827 401 823 c 0,2,3
 399 819 399 819 396.5 814.5 c 128,-1,4
 394 810 394 810 386 805 c 0,5,6
 371 795 371 795 355 787 c 128,-1,7
 339 779 339 779 330 788 c 0,8,9
 328 791 328 791 324 800 c 128,-1,10
 320 809 320 809 314 822.5 c 128,-1,11
 308 836 308 836 301.5 852.5 c 128,-1,12
 295 869 295 869 288 885 c 1,13,14
 276 868 276 868 262.5 850.5 c 128,-1,15
 249 833 249 833 238 819 c 0,16,17
 225 802 225 802 213 787 c 0,18,19
 205 780 205 780 187.5 784 c 128,-1,20
 170 788 170 788 153 797 c 128,-1,21
 136 806 136 806 125.5 818 c 128,-1,22
 115 830 115 830 120 840 c 2,23,-1
 220 1001 l 1,24,25
 246 1002 246 1002 268 1002 c 0,26,27
 286 1002 286 1002 302 1000.5 c 128,-1,28
 318 999 318 999 320 997 c 2,29,-1
 402 831 l 2,0,1
438 153 m 0,30,31
 467 153 467 153 475 142.5 c 128,-1,32
 483 132 483 132 481 100 c 0,33,34
 480 82 480 82 478.5 63.5 c 128,-1,35
 477 45 477 45 473 29.5 c 128,-1,36
 469 14 469 14 463 3 c 128,-1,37
 457 -8 457 -8 447 -11 c 0,38,39
 442 -13 442 -13 427 -11.5 c 128,-1,40
 412 -10 412 -10 391 -8 c 0,41,42
 332 -3 332 -3 272.5 -3 c 128,-1,43
 213 -3 213 -3 147 -8 c 0,44,45
 131 -10 131 -10 115 -10 c 128,-1,46
 99 -10 99 -10 84 -5.5 c 128,-1,47
 69 -1 69 -1 57 9 c 128,-1,48
 45 19 45 19 38 39 c 0,49,50
 34 51 34 51 31.5 87 c 128,-1,51
 29 123 29 123 29 173 c 0,52,53
 29 305 29 305 30 439 c 128,-1,54
 31 573 31 573 41 705 c 0,55,56
 41 730 41 730 61 739.5 c 128,-1,57
 81 749 81 749 106 749 c 0,58,59
 146 751 146 751 191 752.5 c 128,-1,60
 236 754 236 754 281.5 755 c 128,-1,61
 327 756 327 756 371 756 c 128,-1,62
 415 756 415 756 454 756 c 0,63,64
 457 755 457 755 460 753 c 0,65,66
 466 749 466 749 471 740 c 0,67,68
 477 729 477 729 479.5 707 c 128,-1,69
 482 685 482 685 480.5 661.5 c 128,-1,70
 479 638 479 638 472 618.5 c 128,-1,71
 465 599 465 599 453 593 c 0,72,73
 448 592 448 592 431.5 592 c 128,-1,74
 415 592 415 592 392.5 592.5 c 128,-1,75
 370 593 370 593 342.5 594.5 c 128,-1,76
 315 596 315 596 288.5 597.5 c 128,-1,77
 262 599 262 599 237.5 600 c 128,-1,78
 213 601 213 601 196 601 c 1,79,-1
 192 441 l 1,80,-1
 378 442 l 2,81,82
 397 439 397 439 404 417 c 128,-1,83
 411 395 411 395 410.5 368.5 c 128,-1,84
 410 342 410 342 402.5 319.5 c 128,-1,85
 395 297 395 297 385 293 c 0,86,87
 380 291 380 291 358.5 291.5 c 128,-1,88
 337 292 337 292 308 293 c 128,-1,89
 279 294 279 294 247 295.5 c 128,-1,90
 215 297 215 297 190 299 c 1,91,92
 189 260 189 260 189.5 222 c 128,-1,93
 190 184 190 184 192 146 c 1,94,95
 218 149 218 149 249 150.5 c 128,-1,96
 280 152 280 152 312.5 153 c 128,-1,97
 345 154 345 154 377.5 154 c 128,-1,98
 410 154 410 154 438 153 c 0,30,31
EndSplineSet
Validated: 33
EndChar

StartChar: Edieresis
Encoding: 203 203 95
Width: 513
GlyphClass: 1
Flags: W
LayerCount: 2
Fore
SplineSet
245 852 m 0,0,1
 245 826 245 826 226 807 c 128,-1,2
 207 788 207 788 180 788 c 256,3,4
 153 788 153 788 134 807 c 128,-1,5
 115 826 115 826 115 852 c 0,6,7
 115 879 115 879 134 898.5 c 128,-1,8
 153 918 153 918 180 918 c 256,9,10
 207 918 207 918 226 898.5 c 128,-1,11
 245 879 245 879 245 852 c 0,0,1
398 852 m 0,12,13
 398 826 398 826 379 807 c 128,-1,14
 360 788 360 788 333 788 c 256,15,16
 306 788 306 788 287 807 c 128,-1,17
 268 826 268 826 268 852 c 0,18,19
 268 879 268 879 287 898.5 c 128,-1,20
 306 918 306 918 333 918 c 256,21,22
 360 918 360 918 379 898.5 c 128,-1,23
 398 879 398 879 398 852 c 0,12,13
438 153 m 0,24,25
 467 153 467 153 475 142.5 c 128,-1,26
 483 132 483 132 481 100 c 0,27,28
 480 82 480 82 478.5 63.5 c 128,-1,29
 477 45 477 45 473 29.5 c 128,-1,30
 469 14 469 14 463 3 c 128,-1,31
 457 -8 457 -8 447 -11 c 0,32,33
 442 -13 442 -13 427 -11.5 c 128,-1,34
 412 -10 412 -10 391 -8 c 0,35,36
 332 -3 332 -3 272.5 -3 c 128,-1,37
 213 -3 213 -3 147 -8 c 0,38,39
 131 -10 131 -10 115 -10 c 128,-1,40
 99 -10 99 -10 84 -5.5 c 128,-1,41
 69 -1 69 -1 57 9 c 128,-1,42
 45 19 45 19 38 39 c 0,43,44
 34 51 34 51 31.5 87 c 128,-1,45
 29 123 29 123 29 173 c 0,46,47
 29 305 29 305 30 439 c 128,-1,48
 31 573 31 573 41 705 c 0,49,50
 41 730 41 730 61 739.5 c 128,-1,51
 81 749 81 749 106 749 c 0,52,53
 146 751 146 751 191 752.5 c 128,-1,54
 236 754 236 754 281.5 755 c 128,-1,55
 327 756 327 756 371 756 c 128,-1,56
 415 756 415 756 454 756 c 0,57,58
 457 755 457 755 460 753 c 0,59,60
 466 749 466 749 471 740 c 0,61,62
 477 729 477 729 479.5 707 c 128,-1,63
 482 685 482 685 480.5 661.5 c 128,-1,64
 479 638 479 638 472 618.5 c 128,-1,65
 465 599 465 599 453 593 c 0,66,67
 448 592 448 592 431.5 592 c 128,-1,68
 415 592 415 592 392.5 592.5 c 128,-1,69
 370 593 370 593 342.5 594.5 c 128,-1,70
 315 596 315 596 288.5 597.5 c 128,-1,71
 262 599 262 599 237.5 600 c 128,-1,72
 213 601 213 601 196 601 c 1,73,-1
 192 441 l 1,74,-1
 378 442 l 2,75,76
 397 439 397 439 404 417 c 128,-1,77
 411 395 411 395 410.5 368.5 c 128,-1,78
 410 342 410 342 402.5 319.5 c 128,-1,79
 395 297 395 297 385 293 c 0,80,81
 380 291 380 291 358.5 291.5 c 128,-1,82
 337 292 337 292 308 293 c 128,-1,83
 279 294 279 294 247 295.5 c 128,-1,84
 215 297 215 297 190 299 c 1,85,86
 189 260 189 260 189.5 222 c 128,-1,87
 190 184 190 184 192 146 c 1,88,89
 218 149 218 149 249 150.5 c 128,-1,90
 280 152 280 152 312.5 153 c 128,-1,91
 345 154 345 154 377.5 154 c 128,-1,92
 410 154 410 154 438 153 c 0,24,25
EndSplineSet
Validated: 33
EndChar

StartChar: Igrave
Encoding: 204 204 96
Width: 221
GlyphClass: 1
Flags: W
LayerCount: 2
Fore
SplineSet
47 983 m 0,0,1
 73 965 73 965 95.5 949.5 c 128,-1,2
 118 934 118 934 140 919 c 128,-1,3
 162 904 162 904 184 888 c 128,-1,4
 206 872 206 872 231 853 c 0,5,6
 233 849 233 849 235 845 c 0,7,8
 236 841 236 841 236 835.5 c 128,-1,9
 236 830 236 830 231 822 c 0,10,11
 222 807 222 807 210 794 c 128,-1,12
 198 781 198 781 182 788 c 0,13,14
 156 806 156 806 135 822.5 c 128,-1,15
 114 839 114 839 93.5 855.5 c 128,-1,16
 73 872 73 872 52.5 889.5 c 128,-1,17
 32 907 32 907 8 925 c 0,18,19
 6 926 6 926 5 929 c 0,20,21
 4 931 4 931 4 935 c 128,-1,22
 4 939 4 939 8 945 c 256,23,24
 12 951 12 951 17.5 958.5 c 128,-1,25
 23 966 23 966 28.5 972.5 c 128,-1,26
 34 979 34 979 39 982.5 c 128,-1,27
 44 986 44 986 47 983 c 0,0,1
190 44 m 2,28,29
 188 32 188 32 183 22 c 0,30,31
 178 14 178 14 168 6.5 c 128,-1,32
 158 -1 158 -1 141 -3 c 0,33,34
 123 -5 123 -5 104.5 -6 c 128,-1,35
 86 -7 86 -7 70 -2.5 c 128,-1,36
 54 2 54 2 42.5 13.5 c 128,-1,37
 31 25 31 25 28 48 c 0,38,39
 26 59 26 59 26.5 94 c 128,-1,40
 27 129 27 129 28 178 c 128,-1,41
 29 227 29 227 31 286 c 128,-1,42
 33 345 33 345 35 405 c 0,43,44
 40 546 40 546 48 717 c 0,45,46
 46 726 46 726 50 733 c 0,47,48
 52 739 52 739 59 743.5 c 128,-1,49
 66 748 66 748 80 749 c 0,50,51
 94 749 94 749 112.5 749.5 c 128,-1,52
 131 750 131 750 148 748 c 128,-1,53
 165 746 165 746 177 740 c 128,-1,54
 189 734 189 734 189 722 c 2,55,-1
 190 44 l 2,28,29
EndSplineSet
Validated: 33
EndChar

StartChar: Iacute
Encoding: 205 205 97
Width: 221
GlyphClass: 1
Flags: W
LayerCount: 2
Fore
SplineSet
184 970 m 0,0,1
 188 973 188 973 193 969.5 c 128,-1,2
 198 966 198 966 203.5 959.5 c 128,-1,3
 209 953 209 953 214.5 945.5 c 128,-1,4
 220 938 220 938 224 932 c 0,5,6
 229 922 229 922 227 916 c 0,7,8
 226 913 226 913 224 912 c 0,9,10
 200 894 200 894 179.5 877 c 128,-1,11
 159 860 159 860 138.5 843.5 c 128,-1,12
 118 827 118 827 97 810 c 128,-1,13
 76 793 76 793 51 775 c 0,14,15
 35 768 35 768 23 781 c 128,-1,16
 11 794 11 794 1 809 c 0,17,18
 -8 823 -8 823 -4 832 c 0,19,20
 -3 836 -3 836 1 840 c 0,21,22
 26 859 26 859 48 875 c 128,-1,23
 70 891 70 891 92 906 c 128,-1,24
 114 921 114 921 136 936.5 c 128,-1,25
 158 952 158 952 184 970 c 0,0,1
190 44 m 2,26,27
 188 32 188 32 183 22 c 0,28,29
 178 14 178 14 168 6.5 c 128,-1,30
 158 -1 158 -1 141 -3 c 0,31,32
 123 -5 123 -5 104.5 -6 c 128,-1,33
 86 -7 86 -7 70 -2.5 c 128,-1,34
 54 2 54 2 42.5 13.5 c 128,-1,35
 31 25 31 25 28 48 c 0,36,37
 26 59 26 59 26.5 94 c 128,-1,38
 27 129 27 129 28 178 c 128,-1,39
 29 227 29 227 31 286 c 128,-1,40
 33 345 33 345 35 405 c 0,41,42
 40 546 40 546 48 717 c 0,43,44
 46 726 46 726 50 733 c 0,45,46
 52 739 52 739 59 743.5 c 128,-1,47
 66 748 66 748 80 749 c 0,48,49
 94 749 94 749 112.5 749.5 c 128,-1,50
 131 750 131 750 148 748 c 128,-1,51
 165 746 165 746 177 740 c 128,-1,52
 189 734 189 734 189 722 c 2,53,-1
 190 44 l 2,26,27
EndSplineSet
Validated: 33
EndChar

StartChar: Icircumflex
Encoding: 206 206 98
Width: 221
GlyphClass: 1
Flags: W
LayerCount: 2
Fore
SplineSet
257 823 m 2,0,1
 257 819 257 819 256 815 c 0,2,3
 254 811 254 811 251.5 806.5 c 128,-1,4
 249 802 249 802 241 797 c 0,5,6
 226 787 226 787 210 779 c 128,-1,7
 194 771 194 771 185 780 c 0,8,9
 183 783 183 783 179 792 c 128,-1,10
 175 801 175 801 169 814.5 c 128,-1,11
 163 828 163 828 156.5 844.5 c 128,-1,12
 150 861 150 861 143 877 c 1,13,14
 131 860 131 860 117.5 842.5 c 128,-1,15
 104 825 104 825 93 811 c 0,16,17
 80 794 80 794 68 779 c 0,18,19
 60 772 60 772 42.5 776 c 128,-1,20
 25 780 25 780 8 789 c 128,-1,21
 -9 798 -9 798 -19.5 810 c 128,-1,22
 -30 822 -30 822 -25 832 c 2,23,-1
 75 993 l 1,24,25
 101 994 101 994 123 994 c 0,26,27
 141 994 141 994 157 992.5 c 128,-1,28
 173 991 173 991 175 989 c 2,29,-1
 257 823 l 2,0,1
190 44 m 2,30,31
 188 32 188 32 183 22 c 0,32,33
 178 14 178 14 168 6.5 c 128,-1,34
 158 -1 158 -1 141 -3 c 0,35,36
 123 -5 123 -5 104.5 -6 c 128,-1,37
 86 -7 86 -7 70 -2.5 c 128,-1,38
 54 2 54 2 42.5 13.5 c 128,-1,39
 31 25 31 25 28 48 c 0,40,41
 26 59 26 59 26.5 94 c 128,-1,42
 27 129 27 129 28 178 c 128,-1,43
 29 227 29 227 31 286 c 128,-1,44
 33 345 33 345 35 405 c 0,45,46
 40 546 40 546 48 717 c 0,47,48
 46 726 46 726 50 733 c 0,49,50
 52 739 52 739 59 743.5 c 128,-1,51
 66 748 66 748 80 749 c 0,52,53
 94 749 94 749 112.5 749.5 c 128,-1,54
 131 750 131 750 148 748 c 128,-1,55
 165 746 165 746 177 740 c 128,-1,56
 189 734 189 734 189 722 c 2,57,-1
 190 44 l 2,30,31
EndSplineSet
Validated: 33
EndChar

StartChar: Idieresis
Encoding: 207 207 99
Width: 221
GlyphClass: 1
Flags: W
LayerCount: 2
Fore
SplineSet
108 847 m 0,0,1
 108 821 108 821 89 802 c 128,-1,2
 70 783 70 783 43 783 c 256,3,4
 16 783 16 783 -3 802 c 128,-1,5
 -22 821 -22 821 -22 847 c 0,6,7
 -22 874 -22 874 -3 893.5 c 128,-1,8
 16 913 16 913 43 913 c 256,9,10
 70 913 70 913 89 893.5 c 128,-1,11
 108 874 108 874 108 847 c 0,0,1
261 847 m 0,12,13
 261 821 261 821 242 802 c 128,-1,14
 223 783 223 783 196 783 c 256,15,16
 169 783 169 783 150 802 c 128,-1,17
 131 821 131 821 131 847 c 0,18,19
 131 874 131 874 150 893.5 c 128,-1,20
 169 913 169 913 196 913 c 256,21,22
 223 913 223 913 242 893.5 c 128,-1,23
 261 874 261 874 261 847 c 0,12,13
190 44 m 2,24,25
 188 32 188 32 183 22 c 0,26,27
 178 14 178 14 168 6.5 c 128,-1,28
 158 -1 158 -1 141 -3 c 0,29,30
 123 -5 123 -5 104.5 -6 c 128,-1,31
 86 -7 86 -7 70 -2.5 c 128,-1,32
 54 2 54 2 42.5 13.5 c 128,-1,33
 31 25 31 25 28 48 c 0,34,35
 26 59 26 59 26.5 94 c 128,-1,36
 27 129 27 129 28 178 c 128,-1,37
 29 227 29 227 31 286 c 128,-1,38
 33 345 33 345 35 405 c 0,39,40
 40 546 40 546 48 717 c 0,41,42
 46 726 46 726 50 733 c 0,43,44
 52 739 52 739 59 743.5 c 128,-1,45
 66 748 66 748 80 749 c 0,46,47
 94 749 94 749 112.5 749.5 c 128,-1,48
 131 750 131 750 148 748 c 128,-1,49
 165 746 165 746 177 740 c 128,-1,50
 189 734 189 734 189 722 c 2,51,-1
 190 44 l 2,24,25
EndSplineSet
Validated: 33
EndChar

StartChar: Eth
Encoding: 208 208 100
Width: 560
GlyphClass: 1
Flags: W
LayerCount: 2
Fore
SplineSet
54 413 m 1,0,1
 55 487 55 487 55.5 560.5 c 128,-1,2
 56 634 56 634 56 711 c 0,3,4
 55 719 55 719 59 726 c 0,5,6
 62 732 62 732 68.5 737 c 128,-1,7
 75 742 75 742 89 744 c 0,8,9
 99 745 99 745 113 746.5 c 128,-1,10
 127 748 127 748 141 748 c 128,-1,11
 155 748 155 748 167.5 746.5 c 128,-1,12
 180 745 180 745 188 740 c 1,13,14
 265 738 265 738 325 711.5 c 128,-1,15
 385 685 385 685 428 642 c 128,-1,16
 471 599 471 599 496 543.5 c 128,-1,17
 521 488 521 488 528 427.5 c 128,-1,18
 535 367 535 367 523.5 305.5 c 128,-1,19
 512 244 512 244 482 188.5 c 128,-1,20
 452 133 452 133 402 87.5 c 128,-1,21
 352 42 352 42 283 14 c 0,22,23
 249 0 249 0 211 -7 c 128,-1,24
 173 -14 173 -14 135 -12 c 0,25,26
 106 -10 106 -10 81 2 c 128,-1,27
 56 14 56 14 52 47 c 0,28,29
 51 58 51 58 51 92.5 c 128,-1,30
 51 127 51 127 52 175 c 0,31,32
 52 216 52 216 52 256 c 128,-1,33
 52 296 52 296 53 337 c 1,34,35
 49 337 49 337 47 337.5 c 128,-1,36
 45 338 45 338 43 338 c 2,37,-1
 39 338 l 2,38,39
 36 337 36 337 33 339 c 0,40,41
 31 341 31 341 28.5 344 c 128,-1,42
 26 347 26 347 25 355 c 0,43,44
 24 362 24 362 23.5 372 c 128,-1,45
 23 382 23 382 23 391 c 128,-1,46
 23 400 23 400 25.5 406.5 c 128,-1,47
 28 413 28 413 33 413 c 2,48,-1
 54 413 l 1,0,1
213 163 m 1,49,50
 266 183 266 183 302.5 219 c 128,-1,51
 339 255 339 255 358.5 298.5 c 128,-1,52
 378 342 378 342 379 388 c 128,-1,53
 380 434 380 434 361.5 475 c 128,-1,54
 343 516 343 516 304 547.5 c 128,-1,55
 265 579 265 579 204 592 c 1,56,57
 206 547 206 547 207 503 c 128,-1,58
 208 459 208 459 209 414 c 1,59,60
 236 414 236 414 263 414 c 128,-1,61
 290 414 290 414 317 413 c 0,62,63
 322 412 322 412 326 409 c 0,64,65
 329 407 329 407 332 401.5 c 128,-1,66
 335 396 335 396 335 387 c 0,67,68
 336 367 336 367 333.5 348.5 c 128,-1,69
 331 330 331 330 312 327 c 0,70,71
 305 326 305 326 276.5 327.5 c 128,-1,72
 248 329 248 329 211 331 c 1,73,-1
 213 163 l 1,49,50
EndSplineSet
Validated: 33
EndChar

StartChar: Ntilde
Encoding: 209 209 101
Width: 643
GlyphClass: 1
Flags: W
LayerCount: 2
Fore
SplineSet
175 828 m 0,0,1
 182 862 182 862 196.5 895 c 128,-1,2
 211 928 211 928 237 948 c 0,3,4
 260 965 260 965 287.5 964 c 128,-1,5
 315 963 315 963 334 935 c 0,6,7
 342 922 342 922 346 909 c 128,-1,8
 350 896 350 896 358 882 c 0,9,10
 365 869 365 869 374.5 876 c 128,-1,11
 384 883 384 883 386 908 c 0,12,13
 386 920 386 920 395.5 925.5 c 128,-1,14
 405 931 405 931 415 931 c 0,15,16
 441 931 441 931 456 923 c 128,-1,17
 471 915 471 915 470 890 c 0,18,19
 469 860 469 860 458 833.5 c 128,-1,20
 447 807 447 807 425 794 c 0,21,22
 401 780 401 780 371.5 782 c 128,-1,23
 342 784 342 784 325 803 c 0,24,25
 314 815 314 815 305.5 828.5 c 128,-1,26
 297 842 297 842 286 853 c 0,27,28
 279 860 279 860 273.5 858.5 c 128,-1,29
 268 857 268 857 263.5 851 c 128,-1,30
 259 845 259 845 256 835.5 c 128,-1,31
 253 826 253 826 250 817 c 0,32,33
 248 811 248 811 245 807 c 128,-1,34
 242 803 242 803 239 801 c 0,35,36
 234 798 234 798 223 798.5 c 128,-1,37
 212 799 212 799 201 803 c 128,-1,38
 190 807 190 807 181.5 813.5 c 128,-1,39
 173 820 173 820 175 828 c 0,0,1
617 695 m 0,40,41
 618 684 618 684 618 649.5 c 128,-1,42
 618 615 618 615 617.5 566 c 128,-1,43
 617 517 617 517 615.5 458.5 c 128,-1,44
 614 400 614 400 612 341 c 0,45,46
 608 202 608 202 601 33 c 0,47,48
 602 24 602 24 598 17 c 0,49,50
 595 11 595 11 587.5 6 c 128,-1,51
 580 1 580 1 566 1 c 0,52,53
 551 1 551 1 531 -0.5 c 128,-1,54
 511 -2 511 -2 490.5 -1 c 128,-1,55
 470 0 470 0 452.5 6.5 c 128,-1,56
 435 13 435 13 424 29 c 0,57,58
 416 39 416 39 395.5 72.5 c 128,-1,59
 375 106 375 106 351 153 c 0,60,61
 311 230 311 230 270 306.5 c 128,-1,62
 229 383 229 383 187 465 c 1,63,-1
 194 46 l 2,64,65
 193 34 193 34 188 24 c 0,66,67
 183 15 183 15 173.5 7 c 128,-1,68
 164 -1 164 -1 147 -3 c 0,69,70
 129 -5 129 -5 110.5 -6 c 128,-1,71
 92 -7 92 -7 75.5 -3 c 128,-1,72
 59 1 59 1 47.5 12 c 128,-1,73
 36 23 36 23 33 46 c 0,74,75
 31 57 31 57 30.5 92 c 128,-1,76
 30 127 30 127 30 176 c 128,-1,77
 30 225 30 225 31 284 c 128,-1,78
 32 343 32 343 33 403 c 0,79,80
 36 544 36 544 40 715 c 0,81,82
 39 724 39 724 43 731 c 0,83,84
 46 737 46 737 52.5 742 c 128,-1,85
 59 747 59 747 73 748 c 0,86,87
 81 749 81 749 100.5 750 c 128,-1,88
 120 751 120 751 140.5 751 c 128,-1,89
 161 751 161 751 178 748 c 128,-1,90
 195 745 195 745 199 738 c 0,91,92
 264 631 264 631 326.5 524 c 128,-1,93
 389 417 389 417 450 308 c 1,94,-1
 455 700 l 2,95,96
 456 712 456 712 462 722 c 0,97,98
 467 730 467 730 477 738 c 128,-1,99
 487 746 487 746 505 748 c 0,100,101
 523 749 523 749 541.5 749.5 c 128,-1,102
 560 750 560 750 576 745.5 c 128,-1,103
 592 741 592 741 603 729.5 c 128,-1,104
 614 718 614 718 617 695 c 0,40,41
EndSplineSet
Validated: 33
EndChar

StartChar: Ograve
Encoding: 210 210 102
Width: 675
GlyphClass: 1
Flags: W
LayerCount: 2
Fore
SplineSet
263 968 m 0,0,1
 289 950 289 950 311.5 934.5 c 128,-1,2
 334 919 334 919 356 904 c 128,-1,3
 378 889 378 889 400 873 c 128,-1,4
 422 857 422 857 447 838 c 0,5,6
 449 834 449 834 451 830 c 0,7,8
 452 826 452 826 452 820.5 c 128,-1,9
 452 815 452 815 447 807 c 0,10,11
 438 792 438 792 426 779 c 128,-1,12
 414 766 414 766 398 773 c 0,13,14
 372 791 372 791 351 807.5 c 128,-1,15
 330 824 330 824 309.5 840.5 c 128,-1,16
 289 857 289 857 268.5 874.5 c 128,-1,17
 248 892 248 892 224 910 c 0,18,19
 222 911 222 911 221 914 c 0,20,21
 220 916 220 916 220 920 c 128,-1,22
 220 924 220 924 224 930 c 256,23,24
 228 936 228 936 233.5 943.5 c 128,-1,25
 239 951 239 951 244.5 957.5 c 128,-1,26
 250 964 250 964 255 967.5 c 128,-1,27
 260 971 260 971 263 968 c 0,0,1
339 -6 m 0,28,29
 275 -6 275 -6 217.5 24 c 128,-1,30
 160 54 160 54 116 111 c 0,31,32
 74 165 74 165 52.5 232 c 128,-1,33
 31 299 31 299 31 371 c 0,34,35
 31 446 31 446 52.5 512.5 c 128,-1,36
 74 579 74 579 116 632 c 0,37,38
 160 689 160 689 217.5 719.5 c 128,-1,39
 275 750 275 750 339 750 c 0,40,41
 404 750 404 750 461 719.5 c 128,-1,42
 518 689 518 689 562 632 c 0,43,44
 604 579 604 579 625 512.5 c 128,-1,45
 646 446 646 446 646 371 c 0,46,47
 646 299 646 299 625 232 c 128,-1,48
 604 165 604 165 562 111 c 0,49,50
 518 54 518 54 461 24 c 128,-1,51
 404 -6 404 -6 339 -6 c 0,28,29
339 606 m 256,52,53
 306 606 306 606 276.5 587.5 c 128,-1,54
 247 569 247 569 224.5 536.5 c 128,-1,55
 202 504 202 504 189 461.5 c 128,-1,56
 176 419 176 419 176 371 c 0,57,58
 176 324 176 324 189 281.5 c 128,-1,59
 202 239 202 239 224.5 207 c 128,-1,60
 247 175 247 175 276.5 156.5 c 128,-1,61
 306 138 306 138 339 138 c 256,62,63
 372 138 372 138 402 156.5 c 128,-1,64
 432 175 432 175 454.5 207 c 128,-1,65
 477 239 477 239 490 281.5 c 128,-1,66
 503 324 503 324 503 371 c 0,67,68
 503 419 503 419 490 461.5 c 128,-1,69
 477 504 477 504 454.5 536.5 c 128,-1,70
 432 569 432 569 402 587.5 c 128,-1,71
 372 606 372 606 339 606 c 256,52,53
EndSplineSet
Validated: 1
EndChar

StartChar: Oacute
Encoding: 211 211 103
Width: 675
GlyphClass: 1
Flags: W
LayerCount: 2
Fore
SplineSet
410 983 m 0,0,1
 414 986 414 986 419 982.5 c 128,-1,2
 424 979 424 979 429.5 972.5 c 128,-1,3
 435 966 435 966 440.5 958.5 c 128,-1,4
 446 951 446 951 450 945 c 0,5,6
 455 935 455 935 453 929 c 0,7,8
 452 926 452 926 450 925 c 0,9,10
 426 907 426 907 405.5 890 c 128,-1,11
 385 873 385 873 364.5 856.5 c 128,-1,12
 344 840 344 840 323 823 c 128,-1,13
 302 806 302 806 277 788 c 0,14,15
 261 781 261 781 249 794 c 128,-1,16
 237 807 237 807 227 822 c 0,17,18
 218 836 218 836 222 845 c 0,19,20
 223 849 223 849 227 853 c 0,21,22
 252 872 252 872 274 888 c 128,-1,23
 296 904 296 904 318 919 c 128,-1,24
 340 934 340 934 362 949.5 c 128,-1,25
 384 965 384 965 410 983 c 0,0,1
339 -6 m 0,26,27
 275 -6 275 -6 217.5 24 c 128,-1,28
 160 54 160 54 116 111 c 0,29,30
 74 165 74 165 52.5 232 c 128,-1,31
 31 299 31 299 31 371 c 0,32,33
 31 446 31 446 52.5 512.5 c 128,-1,34
 74 579 74 579 116 632 c 0,35,36
 160 689 160 689 217.5 719.5 c 128,-1,37
 275 750 275 750 339 750 c 0,38,39
 404 750 404 750 461 719.5 c 128,-1,40
 518 689 518 689 562 632 c 0,41,42
 604 579 604 579 625 512.5 c 128,-1,43
 646 446 646 446 646 371 c 0,44,45
 646 299 646 299 625 232 c 128,-1,46
 604 165 604 165 562 111 c 0,47,48
 518 54 518 54 461 24 c 128,-1,49
 404 -6 404 -6 339 -6 c 0,26,27
339 606 m 256,50,51
 306 606 306 606 276.5 587.5 c 128,-1,52
 247 569 247 569 224.5 536.5 c 128,-1,53
 202 504 202 504 189 461.5 c 128,-1,54
 176 419 176 419 176 371 c 0,55,56
 176 324 176 324 189 281.5 c 128,-1,57
 202 239 202 239 224.5 207 c 128,-1,58
 247 175 247 175 276.5 156.5 c 128,-1,59
 306 138 306 138 339 138 c 256,60,61
 372 138 372 138 402 156.5 c 128,-1,62
 432 175 432 175 454.5 207 c 128,-1,63
 477 239 477 239 490 281.5 c 128,-1,64
 503 324 503 324 503 371 c 0,65,66
 503 419 503 419 490 461.5 c 128,-1,67
 477 504 477 504 454.5 536.5 c 128,-1,68
 432 569 432 569 402 587.5 c 128,-1,69
 372 606 372 606 339 606 c 256,50,51
EndSplineSet
Validated: 1
EndChar

StartChar: Ocircumflex
Encoding: 212 212 104
Width: 675
GlyphClass: 1
Flags: W
LayerCount: 2
Fore
SplineSet
483 822 m 2,0,1
 483 818 483 818 482 814 c 0,2,3
 480 810 480 810 477.5 805.5 c 128,-1,4
 475 801 475 801 467 796 c 0,5,6
 452 786 452 786 436 778 c 128,-1,7
 420 770 420 770 411 779 c 0,8,9
 409 782 409 782 405 791 c 128,-1,10
 401 800 401 800 395 813.5 c 128,-1,11
 389 827 389 827 382.5 843.5 c 128,-1,12
 376 860 376 860 369 876 c 1,13,14
 357 859 357 859 343.5 841.5 c 128,-1,15
 330 824 330 824 319 810 c 0,16,17
 306 793 306 793 294 778 c 0,18,19
 286 771 286 771 268.5 775 c 128,-1,20
 251 779 251 779 234 788 c 128,-1,21
 217 797 217 797 206.5 809 c 128,-1,22
 196 821 196 821 201 831 c 2,23,-1
 301 992 l 1,24,25
 327 993 327 993 349 993 c 0,26,27
 367 993 367 993 383 991.5 c 128,-1,28
 399 990 399 990 401 988 c 2,29,-1
 483 822 l 2,0,1
339 -6 m 0,30,31
 275 -6 275 -6 217.5 24 c 128,-1,32
 160 54 160 54 116 111 c 0,33,34
 74 165 74 165 52.5 232 c 128,-1,35
 31 299 31 299 31 371 c 0,36,37
 31 446 31 446 52.5 512.5 c 128,-1,38
 74 579 74 579 116 632 c 0,39,40
 160 689 160 689 217.5 719.5 c 128,-1,41
 275 750 275 750 339 750 c 0,42,43
 404 750 404 750 461 719.5 c 128,-1,44
 518 689 518 689 562 632 c 0,45,46
 604 579 604 579 625 512.5 c 128,-1,47
 646 446 646 446 646 371 c 0,48,49
 646 299 646 299 625 232 c 128,-1,50
 604 165 604 165 562 111 c 0,51,52
 518 54 518 54 461 24 c 128,-1,53
 404 -6 404 -6 339 -6 c 0,30,31
339 606 m 256,54,55
 306 606 306 606 276.5 587.5 c 128,-1,56
 247 569 247 569 224.5 536.5 c 128,-1,57
 202 504 202 504 189 461.5 c 128,-1,58
 176 419 176 419 176 371 c 0,59,60
 176 324 176 324 189 281.5 c 128,-1,61
 202 239 202 239 224.5 207 c 128,-1,62
 247 175 247 175 276.5 156.5 c 128,-1,63
 306 138 306 138 339 138 c 256,64,65
 372 138 372 138 402 156.5 c 128,-1,66
 432 175 432 175 454.5 207 c 128,-1,67
 477 239 477 239 490 281.5 c 128,-1,68
 503 324 503 324 503 371 c 0,69,70
 503 419 503 419 490 461.5 c 128,-1,71
 477 504 477 504 454.5 536.5 c 128,-1,72
 432 569 432 569 402 587.5 c 128,-1,73
 372 606 372 606 339 606 c 256,54,55
EndSplineSet
Validated: 1
EndChar

StartChar: Otilde
Encoding: 213 213 105
Width: 675
GlyphClass: 1
Flags: W
LayerCount: 2
Fore
SplineSet
191 831 m 0,0,1
 198 865 198 865 212.5 898 c 128,-1,2
 227 931 227 931 253 951 c 0,3,4
 276 968 276 968 303.5 967 c 128,-1,5
 331 966 331 966 350 938 c 0,6,7
 358 925 358 925 362 912 c 128,-1,8
 366 899 366 899 374 885 c 0,9,10
 381 872 381 872 390.5 879 c 128,-1,11
 400 886 400 886 402 911 c 0,12,13
 402 923 402 923 411.5 928.5 c 128,-1,14
 421 934 421 934 431 934 c 0,15,16
 457 934 457 934 472 926 c 128,-1,17
 487 918 487 918 486 893 c 0,18,19
 485 863 485 863 474 836.5 c 128,-1,20
 463 810 463 810 441 797 c 0,21,22
 417 783 417 783 387.5 785 c 128,-1,23
 358 787 358 787 341 806 c 0,24,25
 330 818 330 818 321.5 831.5 c 128,-1,26
 313 845 313 845 302 856 c 0,27,28
 295 863 295 863 289.5 861.5 c 128,-1,29
 284 860 284 860 279.5 854 c 128,-1,30
 275 848 275 848 272 838.5 c 128,-1,31
 269 829 269 829 266 820 c 0,32,33
 264 814 264 814 261 810 c 128,-1,34
 258 806 258 806 255 804 c 0,35,36
 250 801 250 801 239 801.5 c 128,-1,37
 228 802 228 802 217 806 c 128,-1,38
 206 810 206 810 197.5 816.5 c 128,-1,39
 189 823 189 823 191 831 c 0,0,1
339 -6 m 0,40,41
 275 -6 275 -6 217.5 24 c 128,-1,42
 160 54 160 54 116 111 c 0,43,44
 74 165 74 165 52.5 232 c 128,-1,45
 31 299 31 299 31 371 c 0,46,47
 31 446 31 446 52.5 512.5 c 128,-1,48
 74 579 74 579 116 632 c 0,49,50
 160 689 160 689 217.5 719.5 c 128,-1,51
 275 750 275 750 339 750 c 0,52,53
 404 750 404 750 461 719.5 c 128,-1,54
 518 689 518 689 562 632 c 0,55,56
 604 579 604 579 625 512.5 c 128,-1,57
 646 446 646 446 646 371 c 0,58,59
 646 299 646 299 625 232 c 128,-1,60
 604 165 604 165 562 111 c 0,61,62
 518 54 518 54 461 24 c 128,-1,63
 404 -6 404 -6 339 -6 c 0,40,41
339 606 m 256,64,65
 306 606 306 606 276.5 587.5 c 128,-1,66
 247 569 247 569 224.5 536.5 c 128,-1,67
 202 504 202 504 189 461.5 c 128,-1,68
 176 419 176 419 176 371 c 0,69,70
 176 324 176 324 189 281.5 c 128,-1,71
 202 239 202 239 224.5 207 c 128,-1,72
 247 175 247 175 276.5 156.5 c 128,-1,73
 306 138 306 138 339 138 c 256,74,75
 372 138 372 138 402 156.5 c 128,-1,76
 432 175 432 175 454.5 207 c 128,-1,77
 477 239 477 239 490 281.5 c 128,-1,78
 503 324 503 324 503 371 c 0,79,80
 503 419 503 419 490 461.5 c 128,-1,81
 477 504 477 504 454.5 536.5 c 128,-1,82
 432 569 432 569 402 587.5 c 128,-1,83
 372 606 372 606 339 606 c 256,64,65
EndSplineSet
Validated: 33
EndChar

StartChar: Odieresis
Encoding: 214 214 106
Width: 675
GlyphClass: 1
Flags: W
LayerCount: 2
Fore
SplineSet
326 839 m 0,0,1
 326 813 326 813 307 794 c 128,-1,2
 288 775 288 775 261 775 c 256,3,4
 234 775 234 775 215 794 c 128,-1,5
 196 813 196 813 196 839 c 0,6,7
 196 866 196 866 215 885.5 c 128,-1,8
 234 905 234 905 261 905 c 256,9,10
 288 905 288 905 307 885.5 c 128,-1,11
 326 866 326 866 326 839 c 0,0,1
479 839 m 0,12,13
 479 813 479 813 460 794 c 128,-1,14
 441 775 441 775 414 775 c 256,15,16
 387 775 387 775 368 794 c 128,-1,17
 349 813 349 813 349 839 c 0,18,19
 349 866 349 866 368 885.5 c 128,-1,20
 387 905 387 905 414 905 c 256,21,22
 441 905 441 905 460 885.5 c 128,-1,23
 479 866 479 866 479 839 c 0,12,13
339 -6 m 0,24,25
 275 -6 275 -6 217.5 24 c 128,-1,26
 160 54 160 54 116 111 c 0,27,28
 74 165 74 165 52.5 232 c 128,-1,29
 31 299 31 299 31 371 c 0,30,31
 31 446 31 446 52.5 512.5 c 128,-1,32
 74 579 74 579 116 632 c 0,33,34
 160 689 160 689 217.5 719.5 c 128,-1,35
 275 750 275 750 339 750 c 0,36,37
 404 750 404 750 461 719.5 c 128,-1,38
 518 689 518 689 562 632 c 0,39,40
 604 579 604 579 625 512.5 c 128,-1,41
 646 446 646 446 646 371 c 0,42,43
 646 299 646 299 625 232 c 128,-1,44
 604 165 604 165 562 111 c 0,45,46
 518 54 518 54 461 24 c 128,-1,47
 404 -6 404 -6 339 -6 c 0,24,25
339 606 m 256,48,49
 306 606 306 606 276.5 587.5 c 128,-1,50
 247 569 247 569 224.5 536.5 c 128,-1,51
 202 504 202 504 189 461.5 c 128,-1,52
 176 419 176 419 176 371 c 0,53,54
 176 324 176 324 189 281.5 c 128,-1,55
 202 239 202 239 224.5 207 c 128,-1,56
 247 175 247 175 276.5 156.5 c 128,-1,57
 306 138 306 138 339 138 c 256,58,59
 372 138 372 138 402 156.5 c 128,-1,60
 432 175 432 175 454.5 207 c 128,-1,61
 477 239 477 239 490 281.5 c 128,-1,62
 503 324 503 324 503 371 c 0,63,64
 503 419 503 419 490 461.5 c 128,-1,65
 477 504 477 504 454.5 536.5 c 128,-1,66
 432 569 432 569 402 587.5 c 128,-1,67
 372 606 372 606 339 606 c 256,48,49
EndSplineSet
Validated: 1
EndChar

StartChar: multiply
Encoding: 215 215 107
Width: 475
GlyphClass: 1
Flags: W
LayerCount: 2
Fore
SplineSet
411 201 m 0,0,1
 401 187 401 187 389.5 172.5 c 128,-1,2
 378 158 378 158 366 147.5 c 128,-1,3
 354 137 354 137 341.5 132 c 128,-1,4
 329 127 329 127 318 133 c 0,5,6
 310 138 310 138 290 155 c 128,-1,7
 270 172 270 172 244 197 c 1,8,9
 227 177 227 177 210 156.5 c 128,-1,10
 193 136 193 136 177 116 c 0,11,12
 172 112 172 112 164 111 c 0,13,14
 157 110 157 110 146.5 112.5 c 128,-1,15
 136 115 136 115 122 125 c 0,16,17
 107 135 107 135 92 146.5 c 128,-1,18
 77 158 77 158 66 170 c 128,-1,19
 55 182 55 182 50 194 c 128,-1,20
 45 206 45 206 51 218 c 0,21,22
 55 226 55 226 77 251 c 128,-1,23
 99 276 99 276 128 309 c 1,24,-1
 48 389 l 2,25,26
 44 392 44 392 43 397 c 256,27,28
 42 402 42 402 44.5 408.5 c 128,-1,29
 47 415 47 415 55 426 c 0,30,31
 64 437 64 437 76 451.5 c 128,-1,32
 88 466 88 466 100 478 c 128,-1,33
 112 490 112 490 122 496.5 c 128,-1,34
 132 503 132 503 137 499 c 2,35,-1
 234 416 l 1,36,37
 251 432 251 432 265 445.5 c 128,-1,38
 279 459 279 459 290 469 c 0,39,40
 302 480 302 480 313 490 c 0,41,42
 316 493 316 493 321 494 c 256,43,44
 326 495 326 495 332.5 492 c 128,-1,45
 339 489 339 489 350 480 c 0,46,47
 360 471 360 471 373.5 459 c 128,-1,48
 387 447 387 447 398.5 434.5 c 128,-1,49
 410 422 410 422 416.5 411.5 c 128,-1,50
 423 401 423 401 419 396 c 0,51,52
 401 377 401 377 384 358 c 128,-1,53
 367 339 367 339 349 319 c 1,54,-1
 423 256 l 2,55,56
 427 251 427 251 428 243 c 0,57,58
 429 236 429 236 425.5 225.5 c 128,-1,59
 422 215 422 215 411 201 c 0,0,1
EndSplineSet
Validated: 1
EndChar

StartChar: Oslash
Encoding: 216 216 108
Width: 675
GlyphClass: 1
Flags: W
LayerCount: 2
Fore
SplineSet
339 -6 m 0,0,1
 275 -6 275 -6 217.5 24 c 128,-1,2
 160 54 160 54 116 111 c 0,3,4
 74 165 74 165 52.5 232 c 128,-1,5
 31 299 31 299 31 371 c 0,6,7
 31 446 31 446 52.5 512.5 c 128,-1,8
 74 579 74 579 116 632 c 0,9,10
 160 689 160 689 217.5 719.5 c 128,-1,11
 275 750 275 750 339 750 c 0,12,13
 404 750 404 750 461 719.5 c 128,-1,14
 518 689 518 689 562 632 c 0,15,16
 604 579 604 579 625 512.5 c 128,-1,17
 646 446 646 446 646 371 c 0,18,19
 646 299 646 299 625 232 c 128,-1,20
 604 165 604 165 562 111 c 0,21,22
 518 54 518 54 461 24 c 128,-1,23
 404 -6 404 -6 339 -6 c 0,0,1
503 371 m 0,24,25
 503 428 503 428 484.5 477 c 128,-1,26
 466 526 466 526 436 558 c 1,27,-1
 313 141 l 1,28,29
 326 138 326 138 339 138 c 0,30,31
 372 138 372 138 402 156.5 c 128,-1,32
 432 175 432 175 454.5 207 c 128,-1,33
 477 239 477 239 490 281.5 c 128,-1,34
 503 324 503 324 503 371 c 0,24,25
339 606 m 0,35,36
 306 606 306 606 276.5 587.5 c 128,-1,37
 247 569 247 569 224.5 536.5 c 128,-1,38
 202 504 202 504 189 461.5 c 128,-1,39
 176 419 176 419 176 371 c 0,40,41
 176 325 176 325 188 284.5 c 128,-1,42
 200 244 200 244 221 212 c 1,43,44
 234 256 234 256 252 310.5 c 128,-1,45
 270 365 270 365 288 419.5 c 128,-1,46
 306 474 306 474 322 523 c 128,-1,47
 338 572 338 572 349 605 c 1,48,49
 346 606 346 606 339 606 c 0,35,36
EndSplineSet
Validated: 1
EndChar

